<?xml version="1.0" encoding="UTF-8" standalone="no"?>
<!-- Created with Inkscape (http://www.inkscape.org/) -->

<svg
   xmlns:dc="http://purl.org/dc/elements/1.1/"
   xmlns:cc="http://creativecommons.org/ns#"
   xmlns:rdf="http://www.w3.org/1999/02/22-rdf-syntax-ns#"
   xmlns:svg="http://www.w3.org/2000/svg"
   xmlns="http://www.w3.org/2000/svg"
   xmlns:sodipodi="http://sodipodi.sourceforge.net/DTD/sodipodi-0.dtd"
   xmlns:inkscape="http://www.inkscape.org/namespaces/inkscape"
   version="1.1"
   id="svg8453"
   xml:space="preserve"
   width="642.51971"
   height="404.40942"
   viewBox="0 0 642.51971 404.40942"
   sodipodi:docname="multiprocNUMA.svg"
   inkscape:version="0.92.5 (2060ec1f9f, 2020-04-08)"><metadata
     id="metadata8459"><rdf:RDF><cc:Work
         rdf:about=""><dc:format>image/svg+xml</dc:format><dc:type
           rdf:resource="http://purl.org/dc/dcmitype/StillImage" /><dc:title></dc:title></cc:Work></rdf:RDF></metadata><defs
     id="defs8457" /><sodipodi:namedview
     pagecolor="#ffffff"
     bordercolor="#666666"
     borderopacity="1"
     objecttolerance="10"
     gridtolerance="10"
     guidetolerance="10"
     inkscape:pageopacity="0"
     inkscape:pageshadow="2"
     inkscape:window-width="1141"
     inkscape:window-height="480"
     id="namedview8455"
     showgrid="false"
     inkscape:zoom="0.58356701"
     inkscape:cx="434.22802"
     inkscape:cy="198.53753"
     inkscape:window-x="663"
     inkscape:window-y="93"
     inkscape:window-maximized="0"
     inkscape:current-layer="g8461" /><g
     id="g8461"
     inkscape:groupmode="layer"
     inkscape:label="multiprocNUMA"
     transform="matrix(1.3333333,0,0,-1.3333333,0,404.40942)"><g
       transform="matrix(1,0,0,-1,0,303.30707)"
       id="g8465"><path
         inkscape:connector-curvature="0"
         id="path8467"
         style="fill:none;stroke:#000000;stroke-width:0.78719997;stroke-linecap:round;stroke-linejoin:round;stroke-miterlimit:4;stroke-dasharray:none;stroke-opacity:1"
         d="m 46.309,20.461 h 56.293 c 7.515,0 13.566,6.051 13.566,13.566 v 16.297 c 0,7.516 -6.051,13.567 -13.566,13.567 H 46.309 c -7.516,0 -13.567,-6.051 -13.567,-13.567 V 34.027 c 0,-7.515 6.051,-13.566 13.567,-13.566 z" /></g><g
       transform="matrix(1,0,0,-1,0,303.30707)"
       id="g8469"><path
         inkscape:connector-curvature="0"
         id="path8471"
         style="fill:none;stroke:#000000;stroke-width:0.78719997;stroke-linecap:round;stroke-linejoin:round;stroke-miterlimit:4;stroke-dasharray:none;stroke-opacity:1"
         d="m 298.453,20.461 h 56.293 c 7.52,0 13.57,6.051 13.57,13.566 v 16.297 c 0,7.516 -6.05,13.567 -13.57,13.567 h -56.293 c -7.515,0 -13.566,-6.051 -13.566,-13.567 V 34.027 c 0,-7.515 6.051,-13.566 13.566,-13.566 z" /></g><g
       transform="matrix(1,0,0,-1,0,303.30707)"
       id="g8473"><path
         inkscape:connector-curvature="0"
         id="path8475"
         style="fill:none;stroke:#000000;stroke-width:0.78719997;stroke-linecap:round;stroke-linejoin:round;stroke-miterlimit:4;stroke-dasharray:none;stroke-opacity:1"
         d="m 172.379,20.461 h 56.297 c 7.515,0 13.566,6.051 13.566,13.566 v 16.297 c 0,7.516 -6.051,13.567 -13.566,13.567 h -56.297 c -7.516,0 -13.567,-6.051 -13.567,-13.567 V 34.027 c 0,-7.515 6.051,-13.566 13.567,-13.566 z" /></g><g
       transform="matrix(1,0,0,-1,0,303.30707)"
       id="g8477"><path
         inkscape:connector-curvature="0"
         id="path8479"
         style="fill:none;stroke:#000000;stroke-width:0.78719997;stroke-linecap:round;stroke-linejoin:round;stroke-miterlimit:4;stroke-dasharray:none;stroke-opacity:1"
         d="m 181.98,81.57 h 37.719 c 7.524,0 13.582,6.055 13.582,13.582 v 16.305 c 0,7.523 -6.058,13.582 -13.582,13.582 H 181.98 c -7.523,0 -13.582,-6.059 -13.582,-13.582 V 95.152 c 0,-7.527 6.059,-13.582 13.582,-13.582 z" /></g><g
       transform="matrix(1,0,0,-1,0,303.30707)"
       id="g8481"><path
         inkscape:connector-curvature="0"
         id="path8483"
         style="fill:none;stroke:#000000;stroke-width:0.78719997;stroke-linecap:round;stroke-linejoin:round;stroke-miterlimit:4;stroke-dasharray:none;stroke-opacity:1"
         d="m 307.418,81.574 h 37.715 c 7.523,0 13.582,6.059 13.582,13.582 v 16.305 c 0,7.523 -6.059,13.582 -13.582,13.582 h -37.715 c -7.527,0 -13.586,-6.059 -13.586,-13.582 V 95.156 c 0,-7.523 6.059,-13.582 13.586,-13.582 z" /></g><g
       transform="matrix(1,0,0,-1,0,303.30707)"
       id="g8485"><path
         inkscape:connector-curvature="0"
         id="path8487"
         style="fill:none;stroke:#000000;stroke-width:0.78719997;stroke-linecap:round;stroke-linejoin:round;stroke-miterlimit:4;stroke-dasharray:none;stroke-opacity:1"
         d="m 53.977,81.566 h 37.722 c 7.524,0 13.582,6.059 13.582,13.582 v 16.309 c 0,7.523 -6.058,13.578 -13.582,13.578 H 53.977 c -7.524,0 -13.579,-6.055 -13.579,-13.578 V 95.148 c 0,-7.523 6.055,-13.582 13.579,-13.582 z" /></g><g
       transform="rotate(180,0,151.65353)"
       id="g8489"><path
         inkscape:connector-curvature="0"
         id="path8491"
         style="fill:none;stroke:#000000;stroke-width:0.78719997;stroke-linecap:round;stroke-linejoin:round;stroke-miterlimit:4;stroke-dasharray:none;stroke-opacity:1"
         d="m -133.137,207.598 h 35.028 c 5.093,0 9.195,4.101 9.195,9.195 v 11.043 c 0,5.094 -4.102,9.191 -9.195,9.191 h -35.028 c -5.093,0 -9.191,-4.097 -9.191,-9.191 v -11.043 c 0,-5.094 4.098,-9.195 9.191,-9.195 z" /></g><g
       transform="matrix(1,0,0,-1,0,303.30707)"
       id="g8493"><path
         inkscape:connector-curvature="0"
         id="path8495"
         style="fill:none;stroke:#000000;stroke-width:0.78719997;stroke-linecap:round;stroke-linejoin:round;stroke-miterlimit:4;stroke-dasharray:none;stroke-opacity:1"
         d="m 13.199,254.816 h 373.969 v 43.047 H 13.199 Z" /></g><g
       transform="matrix(1,0,0,-1,0,303.30707)"
       id="g8497"><path
         inkscape:connector-curvature="0"
         id="path8499"
         style="fill:none;stroke:#000000;stroke-width:0.78719997;stroke-linecap:butt;stroke-linejoin:miter;stroke-miterlimit:4;stroke-dasharray:none;stroke-opacity:1"
         d="m 72.98,63.949 v 17.61" /></g><g
       transform="matrix(1,0,0,-1,0,303.30707)"
       id="g8501"><path
         inkscape:connector-curvature="0"
         id="path8503"
         style="fill:none;stroke:#000000;stroke-width:0.78719997;stroke-linecap:butt;stroke-linejoin:miter;stroke-miterlimit:4;stroke-dasharray:none;stroke-opacity:1"
         d="M 200.258,63.852 V 81.57" /></g><g
       transform="matrix(1,0,0,-1,0,303.30707)"
       id="g8505"><path
         inkscape:connector-curvature="0"
         id="path8507"
         style="fill:none;stroke:#000000;stroke-width:0.78719997;stroke-linecap:butt;stroke-linejoin:miter;stroke-miterlimit:4;stroke-dasharray:none;stroke-opacity:1"
         d="M 326.73,63.793 V 81.52" /></g><g
       transform="matrix(1,0,0,-1,0,303.30707)"
       id="g8509"><path
         inkscape:connector-curvature="0"
         id="path8511"
         style="fill:none;stroke:#000000;stroke-width:0.79090101;stroke-linecap:butt;stroke-linejoin:miter;stroke-miterlimit:4;stroke-dasharray:none;stroke-opacity:1"
         d="M 72.992,124.949 V 254.77" /></g><g
       transform="matrix(1,0,0,-1,0,303.30707)"
       id="g8513"><path
         inkscape:connector-curvature="0"
         id="path8515"
         style="fill:none;stroke:#000000;stroke-width:0.78719997;stroke-linecap:butt;stroke-linejoin:miter;stroke-miterlimit:4;stroke-dasharray:none;stroke-opacity:1"
         d="M 200.262,124.957 V 254.703" /></g><g
       transform="matrix(1,0,0,-1,0,303.30707)"
       id="g8517"><path
         inkscape:connector-curvature="0"
         id="path8519"
         style="fill:none;stroke:#000000;stroke-width:0.78719997;stroke-linecap:butt;stroke-linejoin:miter;stroke-miterlimit:4;stroke-dasharray:none;stroke-opacity:1"
         d="M 326.734,125.008 V 254.906" /></g><text
       id="text8523"
       style="font-variant:normal;font-weight:normal;font-size:14.69294167px;font-family:'DejaVu Sans';-inkscape-font-specification:DejaVuSans;writing-mode:lr-tb;fill:#000000;fill-opacity:1;fill-rule:nonzero;stroke:none;stroke-width:0.98578954"
       transform="scale(0.98578953,-1.0144153)"
       x="60.272926"
       y="-252.00417"><tspan
         id="tspan8521"
         sodipodi:role="line"
         y="-252.00417"
         x="60.272926 70.528603 79.388443"
         style="stroke-width:0.98578954">CPU</tspan></text>
<text
       id="text8527"
       style="font-style:oblique;font-variant:normal;font-size:11.23193073px;font-family:'DejaVu Sans';-inkscape-font-specification:DejaVuSans-Oblique;writing-mode:lr-tb;fill:#000000;fill-opacity:1;fill-rule:nonzero;stroke:none;stroke-width:0.92364275"
       transform="scale(0.92364273,-1.0826697)"
       x="61.705452"
       y="-180.47345"><tspan
         id="tspan8525"
         sodipodi:role="line"
         y="-180.47345"
         x="61.705452 69.545341 76.419281 82.585609 89.729118"
         style="stroke-width:0.92364275">Cache</tspan></text>
<text
       id="text8531"
       style="font-variant:normal;font-weight:normal;font-size:10.40025043px;font-family:'DejaVu Sans';-inkscape-font-specification:DejaVuSans;writing-mode:lr-tb;fill:#000000;fill-opacity:1;fill-rule:nonzero;stroke:none;stroke-width:0.9213925"
       transform="scale(0.9213925,-1.0853138)"
       x="103.98123"
       y="-71.918533"><tspan
         y="-71.918533"
         x="103.98123"
         id="tspan8529"
         sodipodi:role="line"
         style="stroke-width:0.9213925">Memory</tspan></text>
<text
       id="text8535"
       style="font-variant:normal;font-weight:normal;font-size:14.69294167px;font-family:'DejaVu Sans';-inkscape-font-specification:DejaVuSans;writing-mode:lr-tb;fill:#000000;fill-opacity:1;fill-rule:nonzero;stroke:none;stroke-width:0.98578954"
       transform="scale(0.98578953,-1.0144153)"
       x="188.26909"
       y="-252.0041"><tspan
         id="tspan8533"
         sodipodi:role="line"
         y="-252.0041"
         x="188.26909 198.52477 207.38461"
         style="stroke-width:0.98578954">CPU</tspan></text>
<text
       id="text8539"
       style="font-variant:normal;font-weight:normal;font-size:14.69294167px;font-family:'DejaVu Sans';-inkscape-font-specification:DejaVuSans;writing-mode:lr-tb;fill:#000000;fill-opacity:1;fill-rule:nonzero;stroke:none;stroke-width:0.98578954"
       transform="scale(0.98578953,-1.0144153)"
       x="316.82227"
       y="-252.0041"><tspan
         id="tspan8537"
         sodipodi:role="line"
         y="-252.0041"
         x="316.82227 327.07794 335.93781"
         style="stroke-width:0.98578954">CPU</tspan></text>
<text
       id="text8543"
       style="font-style:oblique;font-variant:normal;font-size:11.23193073px;font-family:'DejaVu Sans';-inkscape-font-specification:DejaVuSans-Oblique;writing-mode:lr-tb;fill:#000000;fill-opacity:1;fill-rule:nonzero;stroke:none;stroke-width:0.92364275"
       transform="scale(0.92364273,-1.0826697)"
       x="199.44008"
       y="-180.47365"><tspan
         id="tspan8541"
         sodipodi:role="line"
         y="-180.47365"
         x="199.44008 207.27997 214.15392 220.32024 227.46375"
         style="stroke-width:0.92364275">Cache</tspan></text>
<text
       id="text8547"
       style="font-style:oblique;font-variant:normal;font-size:11.23193073px;font-family:'DejaVu Sans';-inkscape-font-specification:DejaVuSans-Oblique;writing-mode:lr-tb;fill:#000000;fill-opacity:1;fill-rule:nonzero;stroke:none;stroke-width:0.92364275"
       transform="scale(0.92364273,-1.0826697)"
       x="335.94998"
       y="-180.47365"><tspan
         id="tspan8545"
         sodipodi:role="line"
         y="-180.47365"
         x="335.94998 343.78986 350.66379 356.83014 363.97363"
         style="stroke-width:0.92364275">Cache</tspan></text>
<text
       y="-20.813499"
       x="94.507179"
       id="text8551"
       style="font-variant:normal;font-weight:normal;font-size:16.85743332px;font-family:'DejaVu Sans';-inkscape-font-specification:DejaVuSans;writing-mode:lr-tb;fill:#000000;fill-opacity:1;fill-rule:nonzero;stroke:none;stroke-width:0.99518687"
       transform="scale(1.0048364,-0.99518688)"><tspan
         style="stroke-width:0.99518687"
         y="-20.813499"
         x="94.507179"
         id="tspan8549"
         sodipodi:role="line">Interconnection Network</tspan></text>
<g
       transform="matrix(1,0,0,-1,0,303.30707)"
       id="g8553"><path
         inkscape:connector-curvature="0"
         id="path8555"
         style="fill:none;stroke:#000000;stroke-width:0.812163;stroke-linecap:butt;stroke-linejoin:miter;stroke-miterlimit:4;stroke-dasharray:none;stroke-opacity:1"
         d="M 72.492,223.23 H 89.18" /></g><g
       transform="matrix(1,0,0,-1,0,303.30707)"
       id="g8557"><path
         inkscape:connector-curvature="0"
         id="path8559"
         style="fill:none;stroke:#000000;stroke-width:0.78719997;stroke-linecap:round;stroke-linejoin:round;stroke-miterlimit:4;stroke-dasharray:none;stroke-opacity:1"
         d="m 11.469,150.652 h 28.328 c 4.742,0 8.558,3.817 8.558,8.559 v 10.277 c 0,4.742 -3.816,8.559 -8.558,8.559 H 11.469 c -4.742,0 -8.559,-3.817 -8.559,-8.559 v -10.277 c 0,-4.742 3.817,-8.559 8.559,-8.559 z" /></g><text
       y="-133.81436"
       x="18.202738"
       id="text8563"
       style="font-variant:normal;font-weight:normal;font-size:10.60569954px;font-family:'DejaVu Sans';-inkscape-font-specification:DejaVuSans;writing-mode:lr-tb;fill:#000000;fill-opacity:1;fill-rule:nonzero;stroke:none;stroke-width:0.9877699"
       transform="scale(0.98776992,-1.0123815)"><tspan
         style="stroke-width:0.9877699"
         y="-133.81436"
         x="18.202738"
         id="tspan8561"
         sodipodi:role="line">I/O</tspan></text>
<g
       transform="matrix(1,0,0,-1,0,303.30707)"
       id="g8565"><path
         inkscape:connector-curvature="0"
         id="path8567"
         style="fill:none;stroke:#000000;stroke-width:0.77202398;stroke-linecap:butt;stroke-linejoin:miter;stroke-miterlimit:4;stroke-dasharray:none;stroke-opacity:1"
         d="M 48.109,165.609 H 73.297" /></g><g
       transform="rotate(180,0,151.65353)"
       id="g8569"><path
         inkscape:connector-curvature="0"
         id="path8571"
         style="fill:none;stroke:#000000;stroke-width:0.78719997;stroke-linecap:round;stroke-linejoin:round;stroke-miterlimit:4;stroke-dasharray:none;stroke-opacity:1"
         d="m -260.102,207.598 h 35.032 c 5.09,0 9.191,4.101 9.191,9.195 v 11.043 c 0,5.094 -4.101,9.191 -9.191,9.191 h -35.032 c -5.093,0 -9.191,-4.097 -9.191,-9.191 v -11.043 c 0,-5.094 4.098,-9.195 9.191,-9.195 z" /></g><text
       id="text8575"
       style="font-variant:normal;font-weight:normal;font-size:10.40025043px;font-family:'DejaVu Sans';-inkscape-font-specification:DejaVuSans;writing-mode:lr-tb;fill:#000000;fill-opacity:1;fill-rule:nonzero;stroke:none;stroke-width:0.9213925"
       transform="scale(0.9213925,-1.0853138)"
       x="241.77809"
       y="-71.918533"><tspan
         y="-71.918533"
         x="241.77809"
         id="tspan8573"
         sodipodi:role="line"
         style="stroke-width:0.9213925">Memory</tspan></text>
<g
       transform="matrix(1,0,0,-1,0,303.30707)"
       id="g8577"><path
         inkscape:connector-curvature="0"
         id="path8579"
         style="fill:none;stroke:#000000;stroke-width:0.77272201;stroke-linecap:butt;stroke-linejoin:miter;stroke-miterlimit:4;stroke-dasharray:none;stroke-opacity:1"
         d="m 200.668,223.23 h 15.109" /></g><g
       transform="rotate(180,0,151.65353)"
       id="g8581"><path
         inkscape:connector-curvature="0"
         id="path8583"
         style="fill:none;stroke:#000000;stroke-width:0.78719997;stroke-linecap:round;stroke-linejoin:round;stroke-miterlimit:4;stroke-dasharray:none;stroke-opacity:1"
         d="m -386.547,207.598 h 35.027 c 5.094,0 9.196,4.101 9.196,9.195 v 11.043 c 0,5.094 -4.102,9.191 -9.196,9.191 h -35.027 c -5.094,0 -9.195,-4.097 -9.195,-9.191 v -11.043 c 0,-5.094 4.101,-9.195 9.195,-9.195 z" /></g><text
       id="text8587"
       style="font-variant:normal;font-weight:normal;font-size:10.40025043px;font-family:'DejaVu Sans';-inkscape-font-specification:DejaVuSans;writing-mode:lr-tb;fill:#000000;fill-opacity:1;fill-rule:nonzero;stroke:none;stroke-width:0.9213925"
       transform="scale(0.9213925,-1.0853138)"
       x="379.01276"
       y="-71.918533"><tspan
         y="-71.918533"
         x="379.01276"
         id="tspan8585"
         sodipodi:role="line"
         style="stroke-width:0.9213925">Memory</tspan></text>
<g
       transform="matrix(1,0,0,-1,0,303.30707)"
       id="g8589"><path
         inkscape:connector-curvature="0"
         id="path8591"
         style="fill:none;stroke:#000000;stroke-width:0.77272201;stroke-linecap:butt;stroke-linejoin:miter;stroke-miterlimit:4;stroke-dasharray:none;stroke-opacity:1"
         d="m 327.113,223.23 h 15.11" /></g><g
       transform="matrix(1,0,0,-1,0,303.30707)"
       id="g8593"><path
         inkscape:connector-curvature="0"
         id="path8595"
         style="fill:none;stroke:#000000;stroke-width:0.78719997;stroke-linecap:round;stroke-linejoin:round;stroke-miterlimit:4;stroke-dasharray:none;stroke-opacity:1"
         d="m 138.129,150.652 h 28.328 c 4.738,0 8.555,3.817 8.555,8.559 v 10.277 c 0,4.742 -3.817,8.559 -8.555,8.559 h -28.328 c -4.742,0 -8.559,-3.817 -8.559,-8.559 v -10.277 c 0,-4.742 3.817,-8.559 8.559,-8.559 z" /></g><text
       y="-133.81436"
       x="146.42946"
       id="text8599"
       style="font-variant:normal;font-weight:normal;font-size:10.60569954px;font-family:'DejaVu Sans';-inkscape-font-specification:DejaVuSans;writing-mode:lr-tb;fill:#000000;fill-opacity:1;fill-rule:nonzero;stroke:none;stroke-width:0.9877699"
       transform="scale(0.98776992,-1.0123815)"><tspan
         style="stroke-width:0.9877699"
         y="-133.81436"
         x="146.42946"
         id="tspan8597"
         sodipodi:role="line">I/O</tspan></text>
<g
       transform="matrix(1,0,0,-1,0,303.30707)"
       id="g8601"><path
         inkscape:connector-curvature="0"
         id="path8603"
         style="fill:none;stroke:#000000;stroke-width:0.77856398;stroke-linecap:butt;stroke-linejoin:miter;stroke-miterlimit:4;stroke-dasharray:none;stroke-opacity:1"
         d="m 174.625,165.609 h 25.617" /></g><g
       transform="matrix(1,0,0,-1,0,303.30707)"
       id="g8605"><path
         inkscape:connector-curvature="0"
         id="path8607"
         style="fill:none;stroke:#000000;stroke-width:0.78719997;stroke-linecap:round;stroke-linejoin:round;stroke-miterlimit:4;stroke-dasharray:none;stroke-opacity:1"
         d="m 265.203,150.652 h 28.328 c 4.739,0 8.555,3.817 8.555,8.559 v 10.277 c 0,4.742 -3.816,8.559 -8.555,8.559 h -28.328 c -4.742,0 -8.558,-3.817 -8.558,-8.559 v -10.277 c 0,-4.742 3.816,-8.559 8.558,-8.559 z" /></g><text
       y="-133.81436"
       x="275.07733"
       id="text8611"
       style="font-variant:normal;font-weight:normal;font-size:10.60569954px;font-family:'DejaVu Sans';-inkscape-font-specification:DejaVuSans;writing-mode:lr-tb;fill:#000000;fill-opacity:1;fill-rule:nonzero;stroke:none;stroke-width:0.9877699"
       transform="scale(0.98776992,-1.0123815)"><tspan
         style="stroke-width:0.9877699"
         y="-133.81436"
         x="275.07733"
         id="tspan8609"
         sodipodi:role="line">I/O</tspan></text>
<g
       transform="matrix(1,0,0,-1,0,303.30707)"
       id="g8613"><path
         inkscape:connector-curvature="0"
         id="path8615"
         style="fill:none;stroke:#000000;stroke-width:0.769831;stroke-linecap:butt;stroke-linejoin:miter;stroke-miterlimit:4;stroke-dasharray:none;stroke-opacity:1"
         d="m 301.699,165.609 h 25.047" /></g><g
       transform="matrix(1,0,0,-1,0,303.30707)"
       id="g8617"><path
         inkscape:connector-curvature="0"
         id="path8619"
         style="fill:none;stroke:#000000;stroke-width:0.78719997;stroke-linecap:square;stroke-linejoin:miter;stroke-miterlimit:4;stroke-dasharray:1.5744, 4.7232;stroke-dashoffset:2.28288007;stroke-opacity:1"
         d="m 9.633,194.477 h 448.57 v 56 H 9.633 Z" /></g><text
       id="text8623"
       style="font-variant:normal;font-weight:normal;font-size:8.18594551px;font-family:'DejaVu Sans';-inkscape-font-specification:DejaVuSans;writing-mode:lr-tb;fill:#000000;fill-opacity:1;fill-rule:nonzero;stroke:none;stroke-width:0.95090497"
       transform="scale(1.0516298,-0.95090496)"
       x="365.02295"
       y="-117.08107"><tspan
         id="tspan8621"
         sodipodi:role="line"
         style="stroke-width:0.95090497"
         x="365.02295"
         y="-117.08107">Address Space</tspan></text>
</g></svg>