<?xml version="1.0" encoding="UTF-8" standalone="no"?>
<!-- Created with Inkscape (http://www.inkscape.org/) -->

<svg
   xmlns:dc="http://purl.org/dc/elements/1.1/"
   xmlns:cc="http://creativecommons.org/ns#"
   xmlns:rdf="http://www.w3.org/1999/02/22-rdf-syntax-ns#"
   xmlns:svg="http://www.w3.org/2000/svg"
   xmlns="http://www.w3.org/2000/svg"
   xmlns:sodipodi="http://sodipodi.sourceforge.net/DTD/sodipodi-0.dtd"
   xmlns:inkscape="http://www.inkscape.org/namespaces/inkscape"
   version="1.1"
   id="svg3718"
   xml:space="preserve"
   width="198.77763"
   height="95.047623"
   viewBox="0 0 198.77764 95.04762"
   sodipodi:docname="tiling5.svg"
   inkscape:version="0.92.2 (5c3e80d, 2017-08-06)"><metadata
     id="metadata3724"><rdf:RDF><cc:Work
         rdf:about=""><dc:format>image/svg+xml</dc:format><dc:type
           rdf:resource="http://purl.org/dc/dcmitype/StillImage" /><dc:title></dc:title></cc:Work></rdf:RDF></metadata><defs
     id="defs3722"><clipPath
       clipPathUnits="userSpaceOnUse"
       id="clipPath3788"><path
         d="M 0,0 H 2384 V 3370 H 0 Z"
         id="path3786"
         inkscape:connector-curvature="0" /></clipPath><clipPath
       clipPathUnits="userSpaceOnUse"
       id="clipPath4242"><path
         d="M 0,0 H 2384 V 3370 H 0 Z"
         id="path4240"
         inkscape:connector-curvature="0" /></clipPath></defs><sodipodi:namedview
     pagecolor="#ffffff"
     bordercolor="#666666"
     borderopacity="1"
     objecttolerance="10"
     gridtolerance="10"
     guidetolerance="10"
     inkscape:pageopacity="0"
     inkscape:pageshadow="2"
     inkscape:window-width="1904"
     inkscape:window-height="989"
     id="namedview3720"
     showgrid="false"
     units="px"
     inkscape:zoom="5.6568542"
     inkscape:cx="66.312843"
     inkscape:cy="23.722026"
     inkscape:window-x="8"
     inkscape:window-y="56"
     inkscape:window-maximized="0"
     inkscape:current-layer="g4236"
     showguides="false" /><g
     id="g3726"
     inkscape:groupmode="layer"
     inkscape:label="meng_ijpp_preprint"
     transform="matrix(1.3333333,0,0,-1.3333333,0,95.047412)"><g
       id="g3728"
       transform="translate(72,769.89)"><g
         id="g4234"
         transform="matrix(0.3175,0,0,0.3175,128.63832,-756.08036)"><g
           id="g4236"><path
             d="m -474.35519,34.456033 h 174.64584 l -58.21589,-58.036024 h -174.61668 l 58.18673,58.036024"
             style="fill:#ccccff;fill-opacity:1;fill-rule:evenodd;stroke:none;stroke-width:0.22972099"
             id="path4258"
             inkscape:connector-curvature="0" /><g
             id="g4260"
             transform="matrix(0.2299645,0,0,0.22947773,-627.63837,-67.913387)"><path
               d="M 666.552,446.097 H 1426 L 1172.85,193.193 H 413.527 Z"
               style="fill:none;stroke:#010101;stroke-width:10.28291798;stroke-linecap:butt;stroke-linejoin:round;stroke-miterlimit:10;stroke-dasharray:none;stroke-opacity:1"
               id="path4262"
               inkscape:connector-curvature="0" /></g><path
             d="m -447.77211,22.226147 h 77.1387 l -25.84591,-25.6777543 h -77.13824 l 25.84545,25.6777543"
             style="fill:#ccccff;fill-opacity:1;fill-rule:evenodd;stroke:none;stroke-width:0.22972099"
             id="path4282"
             inkscape:connector-curvature="0" /><g
             id="g4284"
             transform="matrix(0.2299645,0,0,0.22947773,-627.63837,-67.913387)"><path
               d="M 782.149,392.803 H 1117.58 L 1005.2,280.907 H 669.76 Z"
               style="fill:none;stroke:#010101;stroke-width:10.28291798;stroke-linecap:butt;stroke-linejoin:round;stroke-miterlimit:10;stroke-dasharray:none;stroke-opacity:1"
               id="path4286"
               inkscape:connector-curvature="0" /></g><path
             d="m -429.01953,4.9566407 0.19848,-1.387285 c -0.45416,-0.08431 -0.85065,-0.141738 -1.19179,-0.141738 -0.5959,0 -1.02111,0.08523 -1.36133,0.283476 -0.31219,0.169534 -0.53915,0.424524 -0.65217,0.708 -0.14197,0.282787 -0.1994,0.90556 -0.1994,1.868321 v 5.3786873 h -1.16285 v 1.217751 h 1.16285 v 2.321331 l 1.58921,0.934275 v -3.255606 h 1.617 v -1.217751 h -1.617 V 6.2021877 c 0,-0.453239 0.0278,-0.735796 0.0852,-0.877534 0.0568,-0.141967 0.14197,-0.226275 0.28371,-0.311502 0.11302,-0.08431 0.31219,-0.113022 0.53847,-0.113022 0.17045,0 0.42613,0.02871 0.7096,0.05651"
             style="fill:#010101;fill-opacity:1;fill-rule:evenodd;stroke:none;stroke-width:0.22972099"
             id="path4288"
             inkscape:connector-curvature="0" /><path
             d="m -427.43123,14.610207 v 1.811809 h 1.5892 v -1.811809 z m 0,-11.0686473 v 9.3422933 h 1.5892 V 3.5415597 h -1.5892"
             style="fill:#010101;fill-opacity:1;fill-rule:evenodd;stroke:none;stroke-width:0.22972099"
             id="path4290"
             inkscape:connector-curvature="0" /><path
             d="m -423.48738,3.5415597 h 1.5883 V 16.422085 h -1.5883 z"
             style="fill:#010101;fill-opacity:1;fill-rule:evenodd;stroke:none;stroke-width:0.22972099"
             id="path4292"
             inkscape:connector-curvature="0" /><path
             d="m -413.13179,6.5421747 1.6448,-0.198249 c -0.25499,-0.96276 -0.73763,-1.698787 -1.41876,-2.208308 -0.70892,-0.537547 -1.617,-0.792307 -2.69485,-0.792307 -1.36202,0 -2.43987,0.424294 -3.26273,1.245317 -0.79415,0.849049 -1.19156,2.037855 -1.19156,3.539312 0,1.584615 0.39741,2.8023663 1.22027,3.6511853 0.79415,0.877534 1.8442,1.302978 3.14879,1.302978 1.2483,0 2.26941,-0.425444 3.06448,-1.274263 0.79414,-0.849738 1.19087,-2.0387743 1.19087,-3.5668783 0,-0.08523 0,-0.226964 0,-0.425443 h -7.00741 c 0.0574,-1.018353 0.34091,-1.81158 0.87937,-2.349127 0.51159,-0.537547 1.16377,-0.821253 1.95792,-0.821253 0.59589,0 1.07785,0.141968 1.50398,0.45324 0.39673,0.311502 0.73763,0.792308 0.96483,1.443796 z m -5.22087,2.576321 h 5.24866 c -0.0565,0.792308 -0.2837,1.3585703 -0.59589,1.7552993 -0.51067,0.594058 -1.16308,0.90533 -1.98594,0.90533 -0.73763,0 -1.3333,-0.25476 -1.84397,-0.735796 -0.48196,-0.481036 -0.76635,-1.1038103 -0.82286,-1.9248333"
             style="fill:#010101;fill-opacity:1;fill-rule:evenodd;stroke:none;stroke-width:0.22972099"
             id="path4294"
             inkscape:connector-curvature="0" /><g
             id="g4296"
             transform="matrix(0.2299645,0,0,0.22947773,-627.63837,-67.913387)"><path
               d="M 997.054,607.213 H 1977.45 L 1650.16,281.032 h -980.4 z"
               style="fill:none;stroke:#010101;stroke-width:10.28291798;stroke-linecap:butt;stroke-linejoin:round;stroke-miterlimit:10;stroke-dasharray:none;stroke-opacity:1"
               id="path4298"
               inkscape:connector-curvature="0" /></g><g
             id="g4300"
             transform="matrix(0.2299645,0,0,0.22947773,-627.63837,-67.913387)"><path
               d="M 789.676,392.803 H 1767.24"
               style="fill:none;stroke:#010101;stroke-width:10.28291798;stroke-linecap:butt;stroke-linejoin:round;stroke-miterlimit:10;stroke-dasharray:none;stroke-opacity:1"
               id="path4302"
               inkscape:connector-curvature="0" /></g><g
             id="g4304"
             transform="matrix(0.2299645,0,0,0.22947773,-627.63837,-67.913387)"><path
               d="M 902.677,509.137 H 1877.16"
               style="fill:none;stroke:#010101;stroke-width:10.28291798;stroke-linecap:butt;stroke-linejoin:round;stroke-miterlimit:10;stroke-dasharray:none;stroke-opacity:1"
               id="path4306"
               inkscape:connector-curvature="0" /></g><g
             id="g4308"
             transform="matrix(0.2299645,0,0,0.22947773,-627.63837,-67.913387)"><path
               d="m 1005.32,281.032 327.66,326.06"
               style="fill:none;stroke:#010101;stroke-width:10.28291798;stroke-linecap:butt;stroke-linejoin:round;stroke-miterlimit:10;stroke-dasharray:none;stroke-opacity:1"
               id="path4310"
               inkscape:connector-curvature="0" /></g><g
             id="g4312"
             transform="matrix(0.2299645,0,0,0.22947773,-627.63837,-67.913387)"><path
               d="m 1309.3,281.032 332.47,326.553"
               style="fill:none;stroke:#010101;stroke-width:10.28291798;stroke-linecap:butt;stroke-linejoin:round;stroke-miterlimit:10;stroke-dasharray:none;stroke-opacity:1"
               id="path4314"
               inkscape:connector-curvature="0" /></g><path
             d="m -458.15591,74.335871 h 124.64608 l -41.79065,-43.985172 h -124.61577 l 41.76034,43.985172"
             style="fill:#ccccff;fill-opacity:1;fill-rule:evenodd;stroke:none;stroke-width:0.24209681"
             id="path4316"
             inkscape:connector-curvature="0" /><g
             id="g4318"
             transform="matrix(0.2299645,0,0,0.22947773,-627.63837,-67.913387)"><path
               d="M 736.99492,619.88329 H 1279.0157 L 1097.2908,428.207 H 555.40002 Z"
               style="fill:none;stroke:#010101;stroke-width:10.83689213;stroke-linecap:butt;stroke-linejoin:round;stroke-miterlimit:10;stroke-dasharray:none;stroke-opacity:1"
               id="path4320"
               inkscape:connector-curvature="0" /></g><g
             id="g4328"
             transform="matrix(0.12495305,-6.9445829e-4,0.0069488,0.11068449,-480.23005,-13.146683)"
             style="stroke-width:2.02549744"><path
               d="M 1129.8519,797.46799 1420.2956,438.98698"
               style="fill:none;stroke:#010101;stroke-width:21.10725212;stroke-linecap:butt;stroke-linejoin:round;stroke-miterlimit:10;stroke-dasharray:12.91473186, 12.91473186, 12.91473186, 12.91473186;stroke-dashoffset:0;stroke-opacity:1"
               id="path4330"
               inkscape:connector-curvature="0" /></g><g
             id="g4332"
             transform="matrix(0.09962046,0.00288156,-0.00237041,0.12059028,-473.98231,-51.484201)"
             style="stroke-width:2.0667522"><path
               d="M 1005.2027,654.13868 1169.8332,203.44315"
               style="fill:none;stroke:#010101;stroke-width:20.7489109;stroke-linecap:butt;stroke-linejoin:round;stroke-miterlimit:10;stroke-dasharray:12.69547661, 12.69547661, 12.69547661, 12.69547661;stroke-dashoffset:0;stroke-opacity:1"
               id="path4334"
               inkscape:connector-curvature="0" /></g><g
             id="g4336"
             transform="matrix(0.1216929,-0.00235453,0.00243176,0.11732993,-583.75143,-45.034275)"
             style="stroke-width:2.06512499"><path
               d="M 416.98886,191.22311 675.79914,656.06489"
               style="fill:none;stroke:#010101;stroke-width:21.23550987;stroke-linecap:butt;stroke-linejoin:round;stroke-miterlimit:10;stroke-dasharray:12.99320846, 12.99320846, 12.99320846, 12.99320846;stroke-dashoffset:0;stroke-opacity:1"
               id="path4338"
               inkscape:connector-curvature="0" /></g><path
             d="m -543.40795,125.00504 4.25604,-9.51074 h -8.51116 l 4.25512,9.51074"
             style="fill:#010101;fill-opacity:1;fill-rule:evenodd;stroke:none;stroke-width:0.19849119"
             id="path4342"
             inkscape:connector-curvature="0" /><path
             d="m -561.48071,5.6469807 h -1.58828 V 15.725991 c -0.3687,-0.3687 -0.87937,-0.73671 -1.50399,-1.07578 -0.59589,-0.36802 -1.16284,-0.65149 -1.6448,-0.82103 v 1.52811 c 0.87937,0.39673 1.6448,0.90625 2.32593,1.50123 0.65241,0.59405 1.10631,1.16032 1.39004,1.72658 h 1.02111 V 5.6469807"
             style="fill:#010101;fill-opacity:1;fill-rule:evenodd;stroke:none;stroke-width:0.22972099"
             id="path4376"
             inkscape:connector-curvature="0" /><path
             d="m -559.57965,36.648633 v -1.5281 h -8.53919 c 0,0.36778 0.0565,0.73579 0.19848,1.10357 0.19917,0.56626 0.53916,1.13253 1.02203,1.69879 0.48195,0.56626 1.16285,1.21682 2.07093,1.95354 1.41784,1.16032 2.35465,2.06657 2.86531,2.74586 0.48196,0.65148 0.73764,1.30205 0.73764,1.89703 0,0.62277 -0.22697,1.16032 -0.68112,1.58461 -0.45393,0.42544 -1.02111,0.65149 -1.75875,0.65149 -0.76635,0 -1.36224,-0.22605 -1.81617,-0.67929 -0.48196,-0.45323 -0.70892,-1.10472 -0.70892,-1.89703 l -1.61701,0.16977 c 0.11303,1.21751 0.53916,2.12399 1.24808,2.74676 0.73763,0.65057 1.70223,0.96184 2.92182,0.96184 1.2483,0 2.2129,-0.33906 2.95054,-1.01858 0.70983,-0.67997 1.07854,-1.52902 1.07854,-2.54829 0,-0.50975 -0.11395,-1.0195 -0.3122,-1.52833 -0.22719,-0.48173 -0.56718,-1.01927 -1.05005,-1.55774 -0.48173,-0.56626 -1.30459,-1.32985 -2.43987,-2.26482 -0.93588,-0.82032 -1.56049,-1.35856 -1.81525,-1.64135 -0.28348,-0.28347 -0.51067,-0.56626 -0.68113,-0.84973 h 6.32629"
             style="fill:#010101;fill-opacity:1;fill-rule:evenodd;stroke:none;stroke-width:0.22972099"
             id="path4382"
             inkscape:connector-curvature="0" /><path
             style="fill:none;stroke:#000000;stroke-width:1.73591423px;stroke-linecap:butt;stroke-linejoin:miter;stroke-opacity:1"
             d="m -543.40731,117.39489 -0.0279,-118.03984331"
             id="path5865"
             inkscape:connector-curvature="0" /><path
             d="m -567.15902,115.59885 v 9.34231 h 1.41737 v -1.33078 c 0.68228,1.0195 1.67467,1.52903 2.97949,1.52903 0.53754,0 1.07739,-0.11303 1.53223,-0.31128 0.48242,-0.19825 0.82241,-0.45324 1.0774,-0.79322 0.22741,-0.3115 0.39741,-0.70708 0.48241,-1.16032 0.0574,-0.28348 0.085,-0.82103 0.085,-1.52903 v -5.74671 h -1.58967 v 5.69019 c 0,0.65149 -0.0551,1.1323 -0.1677,1.44381 -0.14241,0.31127 -0.34228,0.56626 -0.6547,0.76451 -0.31013,0.19825 -0.67998,0.28256 -1.10496,0.28256 -0.67998,0 -1.24968,-0.22605 -1.7321,-0.65057 -0.48241,-0.4243 -0.7374,-1.24555 -0.7374,-2.43436 v -5.09613 h -1.58737"
             style="fill:#010101;fill-opacity:1;fill-rule:evenodd;stroke:none;stroke-width:0.22972098"
             id="path4278"
             inkscape:connector-curvature="0" /><path
             d="m -614.33636,117.13063 0.19825,-1.39004 c -0.45301,-0.0852 -0.84882,-0.14174 -1.18904,-0.14174 -0.59475,0 -1.01927,0.0852 -1.35857,0.28348 -0.31127,0.17068 -0.53824,0.42543 -0.65148,0.70891 -0.14175,0.2837 -0.19826,0.90832 -0.19826,1.87292 v 5.39039 h -1.16032 v 1.21936 h 1.16032 v 2.32686 l 1.58577,0.93588 v -3.26274 h 1.61333 v -1.21936 h -1.61333 v -5.47562 c 0,-0.45416 0.0278,-0.73763 0.0852,-0.87937 0.0565,-0.14198 0.14082,-0.22719 0.28256,-0.31242 0.11302,-0.0852 0.3115,-0.11302 0.53847,-0.11302 0.16953,0 0.42429,0.0278 0.70708,0.0565"
             style="fill:#010101;fill-opacity:1;fill-rule:evenodd;stroke:none;stroke-width:0.22972098"
             id="path4402"
             inkscape:connector-curvature="0" /><path
             d="m -602.69696,115.59885 v 9.36205 h 1.416 v -1.44655 c 0.36801,0.68112 0.67928,1.10656 0.99078,1.33353 0.31128,0.19825 0.65149,0.31219 0.99056,0.31219 0.53847,0 1.07601,-0.17045 1.61356,-0.51044 l -0.53755,-1.44747 c -0.39672,0.19825 -0.76451,0.31219 -1.13252,0.31219 -0.33907,0 -0.65057,-0.11394 -0.90533,-0.31219 -0.28371,-0.19825 -0.48196,-0.51067 -0.59498,-0.87937 -0.16953,-0.53939 -0.25476,-1.16308 -0.25476,-1.8442 v -4.87974 h -1.58576"
             style="fill:#010101;fill-opacity:1;fill-rule:evenodd;stroke:none;stroke-width:0.22972098"
             id="path4404"
             inkscape:connector-curvature="0" /><path
             d="m -589.64359,116.96018 c -0.56627,-0.51067 -1.1045,-0.85066 -1.67076,-1.04914 -0.53754,-0.19916 -1.13252,-0.31219 -1.75529,-0.31219 -1.01837,0 -1.81158,0.25476 -2.37785,0.73764 -0.53754,0.51067 -0.82125,1.16284 -0.82125,1.92919 0,0.45416 0.11325,0.87939 0.31149,1.24831 0.19826,0.3687 0.48196,0.68113 0.82104,0.9081 0.34021,0.22604 0.73579,0.39672 1.16124,0.51067 0.31126,0.0843 0.76451,0.16953 1.38727,0.25475 1.30207,0.14173 2.23611,0.3409 2.85888,0.53938 0,0.22697 0,0.3687 0,0.42521 0,0.65241 -0.14173,1.10657 -0.453,1.36225 -0.39582,0.3687 -0.9908,0.53848 -1.7831,0.53848 -0.73671,0 -1.30297,-0.14175 -1.64228,-0.39673 -0.36777,-0.25568 -0.62277,-0.70984 -0.79322,-1.36202 l -1.58461,0.19825 c 0.14173,0.65333 0.36778,1.19156 0.70708,1.5892 0.31219,0.42521 0.7645,0.73764 1.38728,0.93588 0.59498,0.22697 1.30297,0.34092 2.124,0.34092 0.79231,0 1.44288,-0.0852 1.92483,-0.28439 0.50976,-0.16954 0.87754,-0.42522 1.10381,-0.70892 0.22696,-0.28348 0.3965,-0.6237 0.48173,-1.07762 0.0565,-0.25591 0.0845,-0.73764 0.0845,-1.44748 v -2.09896 c 0,-1.47527 0.0287,-2.41207 0.0852,-2.80857 0.0843,-0.39764 0.19826,-0.76635 0.39558,-1.13528 h -1.61333 c -0.16953,0.34114 -0.28278,0.70984 -0.3393,1.16308 z m -0.0852,3.51842 c -0.56627,-0.22697 -1.4438,-0.42523 -2.60412,-0.5959 -0.65149,-0.0852 -1.1045,-0.19825 -1.38728,-0.31219 -0.28349,-0.11302 -0.48173,-0.28348 -0.62278,-0.51067 -0.14176,-0.22696 -0.22696,-0.48173 -0.22696,-0.73763 0,-0.42523 0.16953,-0.76612 0.48195,-1.04983 0.31127,-0.28348 0.79231,-0.42521 1.41508,-0.42521 0.59406,0 1.16032,0.14173 1.64205,0.39741 0.45324,0.28348 0.82102,0.6237 1.0473,1.10634 0.16953,0.34021 0.25476,0.85089 0.25476,1.55981 v 0.56787"
             style="fill:#010101;fill-opacity:1;fill-rule:evenodd;stroke:none;stroke-width:0.22972098"
             id="path4406"
             inkscape:connector-curvature="0" /><path
             d="m -605.81307,118.80416 1.64228,-0.19826 c -0.25477,-0.96459 -0.73672,-1.70223 -1.416,-2.2129 -0.70801,-0.53938 -1.61357,-0.79415 -2.68935,-0.79415 -1.35857,0 -2.43458,0.42545 -3.2556,1.24831 -0.79231,0.85066 -1.18904,2.04222 -1.18904,3.5462 0,1.5883 0.39673,2.80881 1.21775,3.65947 0.79231,0.87937 1.83961,1.3055 3.14166,1.3055 1.24647,0 2.26482,-0.42613 3.05805,-1.27679 0.79231,-0.85158 1.18904,-2.04244 1.18904,-3.57516 0,-0.0843 0,-0.22696 0,-0.4252 h -6.99294 c 0.0565,-1.02135 0.33999,-1.8155 0.87753,-2.35465 0.50975,-0.53938 1.16124,-0.82286 1.95355,-0.82286 0.59498,0 1.07578,0.14175 1.50031,0.45394 0.39673,0.31242 0.7358,0.79415 0.96276,1.44655 z m -5.20892,2.58159 h 5.23695 c -0.0567,0.79507 -0.28279,1.36226 -0.59406,1.75991 -0.50975,0.59566 -1.16124,0.90717 -1.98227,0.90717 -0.73579,0 -1.32985,-0.255 -1.8396,-0.73764 -0.48196,-0.48196 -0.76451,-1.10656 -0.82102,-1.92944"
             style="fill:#010101;fill-opacity:1;fill-rule:evenodd;stroke:none;stroke-width:0.22972098"
             id="path4410"
             inkscape:connector-curvature="0" /><path
             d="m -621.69862,126.69293 v 1.81548 h 1.58552 v -1.81548 z m 0,-11.093 v 9.36205 h 1.58552 v -9.36205 h -1.58552"
             style="fill:#010101;fill-opacity:1;fill-rule:evenodd;stroke:none;stroke-width:0.22972098"
             id="path4416"
             inkscape:connector-curvature="0" /><path
             d="m -581.91428,117.13063 0.19826,-1.39004 c -0.45301,-0.0852 -0.84882,-0.14174 -1.18904,-0.14174 -0.59475,0 -1.01927,0.0852 -1.35857,0.28348 -0.31128,0.17068 -0.53825,0.42543 -0.65149,0.70891 -0.14175,0.2837 -0.19826,0.90832 -0.19826,1.87292 v 5.39039 h -1.16032 v 1.21936 h 1.16032 v 2.32686 l 1.58577,0.93588 v -3.26274 h 1.61333 v -1.21936 h -1.61333 v -5.47562 c 0,-0.45416 0.0278,-0.73763 0.0852,-0.87937 0.0565,-0.14198 0.14081,-0.22719 0.28256,-0.31242 0.11303,-0.0852 0.3115,-0.11302 0.53847,-0.11302 0.16953,0 0.42429,0.0278 0.70708,0.0565"
             style="fill:#010101;fill-opacity:1;fill-rule:evenodd;stroke:none;stroke-width:0.22972098"
             id="path4402-2"
             inkscape:connector-curvature="0" /><path
             d="m -580.2987,126.69293 v 1.81548 h 1.58552 v -1.81548 z m 0,-11.093 v 9.36205 h 1.58552 v -9.36205 h -1.58552"
             style="fill:#010101;fill-opacity:1;fill-rule:evenodd;stroke:none;stroke-width:0.22972098"
             id="path4416-2"
             inkscape:connector-curvature="0" /><path
             d="m -577.29586,120.47858 c 0,1.73003 0.48103,3.00702 1.44402,3.82991 0.79231,0.70891 1.78287,1.04983 2.91539,1.04983 1.27426,0 2.32133,-0.42613 3.14258,-1.24808 0.82103,-0.85158 1.21753,-2.01465 1.21753,-3.48992 0,-1.22027 -0.16953,-2.15616 -0.53823,-2.83728 -0.36802,-0.70892 -0.87777,-1.21959 -1.55706,-1.61701 -0.70708,-0.36893 -1.4438,-0.56718 -2.26481,-0.56718 -1.30207,0 -2.34937,0.42545 -3.14259,1.24831 -0.82011,0.85065 -1.21683,2.04222 -1.21683,3.63142 z m 1.61356,0 c 0,-1.19158 0.25476,-2.09965 0.7923,-2.69555 0.50976,-0.5959 1.16124,-0.87937 1.95356,-0.87937 0.79323,0 1.4438,0.31219 1.95354,0.90809 0.53846,0.59589 0.79323,1.50398 0.79323,2.72334 0,1.16308 -0.25477,2.04245 -0.79323,2.63835 -0.50974,0.59566 -1.16031,0.87938 -1.95354,0.87938 -0.79232,0 -1.4438,-0.28372 -1.95356,-0.87938 -0.53754,-0.59589 -0.7923,-1.50307 -0.7923,-2.69485"
             style="fill:#010101;fill-opacity:1;fill-rule:evenodd;stroke:none;stroke-width:0.22972098"
             id="path4414-1"
             inkscape:connector-curvature="0" /><path
             d="m -558.16779,118.62819 1.5605,0.19825 c 0.0843,-0.62346 0.34022,-1.1045 0.73763,-1.416 0.39673,-0.33999 0.96368,-0.50952 1.70132,-0.50952 0.73763,0 1.27702,0.14173 1.61792,0.45301 0.36893,0.28278 0.53847,0.62277 0.53847,1.0195 0,0.36778 -0.16953,0.65056 -0.48196,0.84881 -0.19917,0.14174 -0.76635,0.3115 -1.617,0.53846 -1.16377,0.28256 -1.98571,0.53755 -2.43987,0.7636 -0.45393,0.19825 -0.79415,0.50975 -1.02111,0.87753 -0.22696,0.36893 -0.34114,0.79323 -0.34114,1.24647 0,0.42452 0.0855,0.7923 0.28371,1.16032 0.19918,0.33998 0.45393,0.65149 0.79506,0.87753 0.22696,0.16955 0.56719,0.34022 0.9924,0.45324 0.42544,0.14175 0.90809,0.19826 1.39004,0.19826 0.73763,0 1.39004,-0.11395 1.9292,-0.31128 0.56718,-0.2272 0.96483,-0.50975 1.2483,-0.84997 0.25568,-0.36778 0.42522,-0.84882 0.53939,-1.4438 l -1.5605,-0.19825 c -0.0565,0.48196 -0.2837,0.84974 -0.62369,1.10473 -0.34114,0.25476 -0.79507,0.39558 -1.41876,0.39558 -0.73763,0 -1.2483,-0.11302 -1.56049,-0.36778 -0.31219,-0.22628 -0.48288,-0.50975 -0.48288,-0.82125 0,-0.22605 0.0574,-0.39558 0.1994,-0.56604 0.113,-0.16976 0.33999,-0.3115 0.59567,-0.42452 0.16974,-0.0565 0.62368,-0.16953 1.41784,-0.39581 1.13527,-0.28348 1.90163,-0.53824 2.35556,-0.73671 0.45324,-0.19825 0.79414,-0.45301 1.04913,-0.82103 0.25568,-0.36778 0.3687,-0.82102 0.3687,-1.35857 0,-0.50975 -0.14174,-1.01927 -0.45415,-1.47251 -0.31128,-0.48104 -0.76544,-0.84882 -1.3324,-1.10381 -0.59588,-0.25476 -1.24921,-0.36778 -1.98684,-0.36778 -1.21936,0 -2.15548,0.25476 -2.77986,0.76451 -0.62369,0.50952 -1.05005,1.27334 -1.21959,2.26482"
             style="fill:#010101;fill-opacity:1;fill-rule:evenodd;stroke:none;stroke-width:0.22972098"
             id="path4356-2"
             inkscape:connector-curvature="0" /></g></g></g></g></svg>