<?xml version="1.0" encoding="UTF-8" standalone="no"?>
<!-- Created with Inkscape (http://www.inkscape.org/) -->

<svg
   xmlns:dc="http://purl.org/dc/elements/1.1/"
   xmlns:cc="http://creativecommons.org/ns#"
   xmlns:rdf="http://www.w3.org/1999/02/22-rdf-syntax-ns#"
   xmlns:svg="http://www.w3.org/2000/svg"
   xmlns="http://www.w3.org/2000/svg"
   xmlns:sodipodi="http://sodipodi.sourceforge.net/DTD/sodipodi-0.dtd"
   xmlns:inkscape="http://www.inkscape.org/namespaces/inkscape"
   version="1.1"
   id="svg3718"
   xml:space="preserve"
   width="198.77763"
   height="95.047623"
   viewBox="0 0 198.77764 95.04762"
   sodipodi:docname="tiling2.svg"
   inkscape:version="0.92.2 (5c3e80d, 2017-08-06)"><metadata
     id="metadata3724"><rdf:RDF><cc:Work
         rdf:about=""><dc:format>image/svg+xml</dc:format><dc:type
           rdf:resource="http://purl.org/dc/dcmitype/StillImage" /><dc:title></dc:title></cc:Work></rdf:RDF></metadata><defs
     id="defs3722"><clipPath
       clipPathUnits="userSpaceOnUse"
       id="clipPath3788"><path
         d="M 0,0 H 2384 V 3370 H 0 Z"
         id="path3786"
         inkscape:connector-curvature="0" /></clipPath><clipPath
       clipPathUnits="userSpaceOnUse"
       id="clipPath4242"><path
         d="M 0,0 H 2384 V 3370 H 0 Z"
         id="path4240"
         inkscape:connector-curvature="0" /></clipPath></defs><sodipodi:namedview
     pagecolor="#ffffff"
     bordercolor="#666666"
     borderopacity="1"
     objecttolerance="10"
     gridtolerance="10"
     guidetolerance="10"
     inkscape:pageopacity="0"
     inkscape:pageshadow="2"
     inkscape:window-width="1904"
     inkscape:window-height="989"
     id="namedview3720"
     showgrid="false"
     units="px"
     inkscape:zoom="4"
     inkscape:cx="101.42233"
     inkscape:cy="56.456282"
     inkscape:window-x="8"
     inkscape:window-y="56"
     inkscape:window-maximized="0"
     inkscape:current-layer="g4236"
     showguides="false" /><g
     id="g3726"
     inkscape:groupmode="layer"
     inkscape:label="meng_ijpp_preprint"
     transform="matrix(1.3333333,0,0,-1.3333333,0,95.047412)"><g
       id="g3728"
       transform="translate(72,769.89)"><g
         id="g4234"
         transform="matrix(0.3175,0,0,0.3175,128.63832,-756.08036)"><g
           id="g4236"><g
             id="g4260"
             transform="matrix(0.2299645,0,0,0.22947773,-627.63837,-67.913387)" /><path
             d="m -447.77211,22.226147 h 77.1387 l -25.84591,-25.6777543 h -77.13824 l 25.84545,25.6777543"
             style="fill:#ccccff;fill-opacity:1;fill-rule:evenodd;stroke:none;stroke-width:0.22972099"
             id="path4282"
             inkscape:connector-curvature="0" /><g
             id="g4284"
             transform="matrix(0.2299645,0,0,0.22947773,-627.63837,-67.913387)"><path
               d="M 782.149,392.803 H 1117.58 L 1005.2,280.907 H 669.76 Z"
               style="fill:none;stroke:#010101;stroke-width:10.28291798;stroke-linecap:butt;stroke-linejoin:round;stroke-miterlimit:10;stroke-dasharray:none;stroke-opacity:1"
               id="path4286"
               inkscape:connector-curvature="0" /></g><path
             d="m -429.01953,4.9566407 0.19848,-1.387285 c -0.45416,-0.08431 -0.85065,-0.141738 -1.19179,-0.141738 -0.5959,0 -1.02111,0.08523 -1.36133,0.283476 -0.31219,0.169534 -0.53915,0.424524 -0.65217,0.708 -0.14197,0.282787 -0.1994,0.90556 -0.1994,1.868321 v 5.3786873 h -1.16285 v 1.217751 h 1.16285 v 2.321331 l 1.58921,0.934275 v -3.255606 h 1.617 v -1.217751 h -1.617 V 6.2021877 c 0,-0.453239 0.0278,-0.735796 0.0852,-0.877534 0.0568,-0.141967 0.14197,-0.226275 0.28371,-0.311502 0.11302,-0.08431 0.31219,-0.113022 0.53847,-0.113022 0.17045,0 0.42613,0.02871 0.7096,0.05651"
             style="fill:#010101;fill-opacity:1;fill-rule:evenodd;stroke:none;stroke-width:0.22972099"
             id="path4288"
             inkscape:connector-curvature="0" /><path
             d="m -427.43123,14.610207 v 1.811809 h 1.5892 v -1.811809 z m 0,-11.0686473 v 9.3422933 h 1.5892 V 3.5415597 h -1.5892"
             style="fill:#010101;fill-opacity:1;fill-rule:evenodd;stroke:none;stroke-width:0.22972099"
             id="path4290"
             inkscape:connector-curvature="0" /><path
             d="m -423.48738,3.5415597 h 1.5883 V 16.422085 h -1.5883 z"
             style="fill:#010101;fill-opacity:1;fill-rule:evenodd;stroke:none;stroke-width:0.22972099"
             id="path4292"
             inkscape:connector-curvature="0" /><path
             d="m -413.13179,6.5421747 1.6448,-0.198249 c -0.25499,-0.96276 -0.73763,-1.698787 -1.41876,-2.208308 -0.70892,-0.537547 -1.617,-0.792307 -2.69485,-0.792307 -1.36202,0 -2.43987,0.424294 -3.26273,1.245317 -0.79415,0.849049 -1.19156,2.037855 -1.19156,3.539312 0,1.584615 0.39741,2.8023663 1.22027,3.6511853 0.79415,0.877534 1.8442,1.302978 3.14879,1.302978 1.2483,0 2.26941,-0.425444 3.06448,-1.274263 0.79414,-0.849738 1.19087,-2.0387743 1.19087,-3.5668783 0,-0.08523 0,-0.226964 0,-0.425443 h -7.00741 c 0.0574,-1.018353 0.34091,-1.81158 0.87937,-2.349127 0.51159,-0.537547 1.16377,-0.821253 1.95792,-0.821253 0.59589,0 1.07785,0.141968 1.50398,0.45324 0.39673,0.311502 0.73763,0.792308 0.96483,1.443796 z m -5.22087,2.576321 h 5.24866 c -0.0565,0.792308 -0.2837,1.3585703 -0.59589,1.7552993 -0.51067,0.594058 -1.16308,0.90533 -1.98594,0.90533 -0.73763,0 -1.3333,-0.25476 -1.84397,-0.735796 -0.48196,-0.481036 -0.76635,-1.1038103 -0.82286,-1.9248333"
             style="fill:#010101;fill-opacity:1;fill-rule:evenodd;stroke:none;stroke-width:0.22972099"
             id="path4294"
             inkscape:connector-curvature="0" /><g
             id="g4296"
             transform="matrix(0.2299645,0,0,0.22947773,-627.63837,-67.913387)"><path
               d="M 997.054,607.213 H 1977.45 L 1650.16,281.032 h -980.4 z"
               style="fill:none;stroke:#010101;stroke-width:10.28291798;stroke-linecap:butt;stroke-linejoin:round;stroke-miterlimit:10;stroke-dasharray:none;stroke-opacity:1"
               id="path4298"
               inkscape:connector-curvature="0" /></g><g
             id="g4300"
             transform="matrix(0.2299645,0,0,0.22947773,-627.63837,-67.913387)"><path
               d="M 789.676,392.803 H 1767.24"
               style="fill:none;stroke:#010101;stroke-width:10.28291798;stroke-linecap:butt;stroke-linejoin:round;stroke-miterlimit:10;stroke-dasharray:none;stroke-opacity:1"
               id="path4302"
               inkscape:connector-curvature="0" /></g><g
             id="g4304"
             transform="matrix(0.2299645,0,0,0.22947773,-627.63837,-67.913387)"><path
               d="M 902.677,509.137 H 1877.16"
               style="fill:none;stroke:#010101;stroke-width:10.28291798;stroke-linecap:butt;stroke-linejoin:round;stroke-miterlimit:10;stroke-dasharray:none;stroke-opacity:1"
               id="path4306"
               inkscape:connector-curvature="0" /></g><g
             id="g4308"
             transform="matrix(0.2299645,0,0,0.22947773,-627.63837,-67.913387)"><path
               d="m 1005.32,281.032 327.66,326.06"
               style="fill:none;stroke:#010101;stroke-width:10.28291798;stroke-linecap:butt;stroke-linejoin:round;stroke-miterlimit:10;stroke-dasharray:none;stroke-opacity:1"
               id="path4310"
               inkscape:connector-curvature="0" /></g><g
             id="g4312"
             transform="matrix(0.2299645,0,0,0.22947773,-627.63837,-67.913387)"><path
               d="m 1309.3,281.032 332.47,326.553"
               style="fill:none;stroke:#010101;stroke-width:10.28291798;stroke-linecap:butt;stroke-linejoin:round;stroke-miterlimit:10;stroke-dasharray:none;stroke-opacity:1"
               id="path4314"
               inkscape:connector-curvature="0" /></g><rect
             style="opacity:1;fill:#f3ffff;fill-opacity:1;stroke:#ffffff;stroke-width:2.83824229;stroke-miterlimit:10;stroke-dasharray:none;stroke-dashoffset:0;stroke-opacity:1"
             id="rect7735"
             width="107.71894"
             height="71.257301"
             x="-586.77209"
             y="26.179905"
             transform="scale(1,-1)" /><rect
             style="opacity:1;fill:#f3ffff;fill-opacity:1;stroke:#ffffff;stroke-width:2.83464575;stroke-miterlimit:10;stroke-dasharray:none;stroke-dashoffset:0;stroke-opacity:1"
             id="rect7735-6"
             width="107.71894"
             height="71.076843"
             x="-423.15305"
             y="26.269051"
             transform="scale(1,-1)" /><rect
             style="opacity:1;fill:#f3ffff;fill-opacity:1;stroke:#ffffff;stroke-width:2.86710453;stroke-miterlimit:10;stroke-dasharray:none;stroke-dashoffset:0;stroke-opacity:1"
             id="rect7735-6-0"
             width="107.71894"
             height="72.713928"
             x="-233.25578"
             y="250.59258"
             transform="matrix(0.70573057,-0.70848031,-0.70848031,-0.70573057,0,0)" /><rect
             style="opacity:1;fill:#f3ffff;fill-opacity:1;stroke:#ffffff;stroke-width:0.90240514;stroke-miterlimit:10;stroke-dasharray:none;stroke-dashoffset:0;stroke-opacity:1"
             id="rect7735-6-0-8"
             width="34.629032"
             height="22.407089"
             x="-294.32529"
             y="-20.596706"
             transform="scale(1,-1)" /><rect
             style="opacity:1;fill:#f3ffff;fill-opacity:1;stroke:#ffffff;stroke-width:0.36696598;stroke-miterlimit:10;stroke-dasharray:none;stroke-dashoffset:0;stroke-opacity:1"
             id="rect7735-6-0-8-8"
             width="34.995491"
             height="3.6665888"
             x="-292.4054"
             y="-27.2719"
             transform="scale(1,-1)" /><rect
             style="opacity:1;fill:#f3ffff;fill-opacity:1;stroke:#ffffff;stroke-width:0.12929738;stroke-miterlimit:10;stroke-dasharray:none;stroke-dashoffset:0;stroke-opacity:1"
             id="rect7735-6-0-8-8-7"
             width="4.081821"
             height="3.9025471"
             x="-292.81372"
             y="-27.868061"
             transform="scale(1,-1)" /><rect
             style="opacity:1;fill:#f3ffff;fill-opacity:1;stroke:#ffffff;stroke-width:0.06716391;stroke-miterlimit:10;stroke-dasharray:none;stroke-dashoffset:0;stroke-opacity:1"
             id="rect7735-6-0-8-8-7-0"
             width="2.2421894"
             height="1.9170001"
             x="219.19472"
             y="-186.31192"
             transform="matrix(-0.71806507,0.69597597,0.72757869,0.68602424,0,0)" /><rect
             style="opacity:1;fill:#f3ffff;fill-opacity:1;stroke:#ffffff;stroke-width:0.14796187;stroke-miterlimit:10;stroke-dasharray:none;stroke-dashoffset:0;stroke-opacity:1"
             id="rect7735-6-0-8-8-7-0-8"
             width="5.0313945"
             height="4.1460428"
             x="229.21094"
             y="-172.19128"
             transform="matrix(-0.76275507,0.64668748,0.71059761,0.70359864,0,0)" /><rect
             style="opacity:1;fill:#f3ffff;fill-opacity:1;stroke:#ffffff;stroke-width:0.14816955;stroke-miterlimit:10;stroke-dasharray:none;stroke-dashoffset:0;stroke-opacity:1"
             id="rect7735-9"
             width="9.6093063"
             height="2.1769493"
             x="-484.94476"
             y="227.93489"
             transform="matrix(0.92299088,-0.38482183,-0.38482183,-0.92299088,0,0)" /><rect
             style="opacity:1;fill:#f3ffff;fill-opacity:1;stroke:#ffffff;stroke-width:0.14816952;stroke-miterlimit:10;stroke-dasharray:none;stroke-dashoffset:0;stroke-opacity:1"
             id="rect7735-9-9"
             width="9.6093063"
             height="2.1769493"
             x="-240.66298"
             y="264.08749"
             transform="matrix(0.72153345,-0.69237958,-0.69237958,-0.72153345,0,0)" /><rect
             style="opacity:1;fill:#f3ffff;fill-opacity:1;stroke:#ffffff;stroke-width:0.14796187;stroke-miterlimit:10;stroke-dasharray:none;stroke-dashoffset:0;stroke-opacity:1"
             id="rect7735-6-0-8-8-7-0-8-6"
             width="5.0313945"
             height="4.1460428"
             x="229.95364"
             y="-170.88385"
             transform="matrix(-0.76275507,0.64668748,0.71059761,0.70359863,0,0)" /><rect
             style="opacity:1;fill:#f3ffff;fill-opacity:1;stroke:#ffffff;stroke-width:0.14796187;stroke-miterlimit:10;stroke-dasharray:none;stroke-dashoffset:0;stroke-opacity:1"
             id="rect7735-6-0-8-8-7-0-8-8"
             width="5.0313945"
             height="4.1460428"
             x="-8.8688974"
             y="-300.858"
             transform="matrix(0.04680781,0.99890391,0.99104363,-0.13353847,0,0)" /><rect
             style="opacity:1;fill:#f3ffff;fill-opacity:1;stroke:#ffffff;stroke-width:0.06458396;stroke-miterlimit:10;stroke-dasharray:none;stroke-dashoffset:0;stroke-opacity:1"
             id="rect7735-6-0-8-8-7-0-7"
             width="2.1543837"
             height="1.844797"
             x="227.91455"
             y="-186.67874"
             transform="matrix(-0.72167189,0.69223528,0.6950024,0.71900742,0,0)" /><rect
             style="opacity:1;fill:#f3ffff;fill-opacity:1;stroke:#ffffff;stroke-width:0.08063035;stroke-miterlimit:10;stroke-dasharray:none;stroke-dashoffset:0;stroke-opacity:1"
             id="rect7735-6-0-8-8-7-0-7-1"
             width="2.1476634"
             height="2.8843849"
             x="22.995562"
             y="-294.08374"
             transform="matrix(0.01011274,0.99994886,0.9999988,-0.00154905,0,0)" /><rect
             style="opacity:1;fill:#f3ffff;fill-opacity:1;stroke:#ffffff;stroke-width:0.90240514;stroke-miterlimit:10;stroke-dasharray:none;stroke-dashoffset:0;stroke-opacity:1"
             id="rect7735-6-0-8-9"
             width="34.629032"
             height="22.407089"
             x="-289.30527"
             y="5.0527081"
             transform="scale(1,-1)" /></g></g></g></g></svg>