<?xml version="1.0" encoding="UTF-8" standalone="no"?>
<!-- Created with Inkscape (http://www.inkscape.org/) -->

<svg
   xmlns:dc="http://purl.org/dc/elements/1.1/"
   xmlns:cc="http://creativecommons.org/ns#"
   xmlns:rdf="http://www.w3.org/1999/02/22-rdf-syntax-ns#"
   xmlns:svg="http://www.w3.org/2000/svg"
   xmlns="http://www.w3.org/2000/svg"
   xmlns:sodipodi="http://sodipodi.sourceforge.net/DTD/sodipodi-0.dtd"
   xmlns:inkscape="http://www.inkscape.org/namespaces/inkscape"
   version="1.1"
   id="svg3718"
   xml:space="preserve"
   width="6.81495cm"
   height="3.7000101cm"
   viewBox="0 0 257.5729 139.84289"
   sodipodi:docname="tilingProp.svg"
   inkscape:version="0.91 r13725"><sodipodi:namedview
     pagecolor="#ffffff"
     bordercolor="#666666"
     borderopacity="1"
     objecttolerance="10"
     gridtolerance="10"
     guidetolerance="10"
     inkscape:pageopacity="0"
     inkscape:pageshadow="2"
     inkscape:window-width="1301"
     inkscape:window-height="744"
     id="namedview3720"
     showgrid="false"
     units="cm"
     inkscape:zoom="3.1500552"
     inkscape:cx="72.013241"
     inkscape:cy="69.747146"
     inkscape:window-x="65"
     inkscape:window-y="24"
     inkscape:window-maximized="1"
     inkscape:current-layer="g3728" /><metadata
     id="metadata3724"><rdf:RDF><cc:Work
         rdf:about=""><dc:format>image/svg+xml</dc:format><dc:type
           rdf:resource="http://purl.org/dc/dcmitype/StillImage" /><dc:title></dc:title></cc:Work></rdf:RDF></metadata><defs
     id="defs3722"><clipPath
       id="clipPath3788"
       clipPathUnits="userSpaceOnUse"><path
         inkscape:connector-curvature="0"
         id="path3786"
         d="m 0,0 2384,0 0,3370 -2384,0 z" /></clipPath><clipPath
       id="clipPath4242"
       clipPathUnits="userSpaceOnUse"><path
         inkscape:connector-curvature="0"
         id="path4240"
         d="m 0,0 2384,0 0,3370 -2384,0 z" /></clipPath></defs><g
     transform="matrix(1.3333333,0,0,-1.3333333,0,139.84288)"
     inkscape:label="meng_ijpp_preprint"
     inkscape:groupmode="layer"
     id="g3726"><g
       transform="translate(72,769.89)"
       id="g3728"><path
         inkscape:connector-curvature="0"
         id="path3792"
         style="fill:#e6e6ff;fill-opacity:1;fill-rule:evenodd;stroke:none;stroke-opacity:1"
         d="m -1.7038808,-713.80085 79.8523118,0 -28.455003,-25.67478 -79.84159,0 28.4442812,25.67478" /><path
         d="m -1.7040355,-713.80088 79.8519545,0 -28.454538,-25.67476 -79.841573,0 z"
         style="fill:none;stroke:#ff0101;stroke-width:0.90205091;stroke-linecap:butt;stroke-linejoin:round;stroke-miterlimit:10;stroke-dasharray:none;stroke-opacity:1"
         id="path3796"
         inkscape:connector-curvature="0" /><path
         d="m 48.461062,-717.78239 40.972793,0 -13.662705,-13.63052 -40.964436,0 z"
         style="fill:none;stroke:#010101;stroke-width:0.74999946;stroke-linecap:butt;stroke-linejoin:round;stroke-miterlimit:10;stroke-dasharray:none;stroke-opacity:1"
         id="path3800"
         inkscape:connector-curvature="0" /><path
         d="m 62.004676,-704.16021 40.963744,0 -13.654352,-13.62218 -40.964436,0 z"
         style="fill:none;stroke:#010101;stroke-width:0.74999946;stroke-linecap:butt;stroke-linejoin:round;stroke-miterlimit:10;stroke-dasharray:none;stroke-opacity:1"
         id="path3804"
         inkscape:connector-curvature="0" /><path
         d="m 21.040239,-704.16021 40.964437,0 -13.655044,-13.62218 -40.9640889,0 z"
         style="fill:none;stroke:#010101;stroke-width:0.74999946;stroke-linecap:butt;stroke-linejoin:round;stroke-miterlimit:10;stroke-dasharray:none;stroke-opacity:1"
         id="path3808"
         inkscape:connector-curvature="0" /><path
         inkscape:connector-curvature="0"
         id="path3810"
         style="fill:#ccccff;fill-opacity:1;fill-rule:evenodd;stroke:none"
         d="m 7.5660961,-717.78239 41.1959659,0 -13.732104,-13.63051 -41.1960355,0 13.7321736,13.63051" /><path
         d="m 7.5659901,-717.78239 41.1959329,0 -13.731653,-13.63052 -41.1964195,0 z"
         style="fill:none;stroke:#010101;stroke-width:0.74999946;stroke-linecap:butt;stroke-linejoin:round;stroke-miterlimit:10;stroke-dasharray:none;stroke-opacity:1"
         id="path3814"
         inkscape:connector-curvature="0" /><path
         inkscape:connector-curvature="0"
         id="path3816"
         style="fill:#ffffff;fill-opacity:1;fill-rule:evenodd;stroke:none"
         d="m 48.461466,-705.83292 40.972954,0 -13.663218,-13.63058 -40.964604,0 13.654868,13.63058" /><path
         d="m 48.461062,-705.83296 40.972793,0 -13.662705,-13.63052 -40.964436,0 z"
         style="fill:none;stroke:#010101;stroke-width:0.74999946;stroke-linecap:butt;stroke-linejoin:round;stroke-miterlimit:10;stroke-dasharray:none;stroke-opacity:1"
         id="path3820"
         inkscape:connector-curvature="0" /><path
         inkscape:connector-curvature="0"
         id="path3822"
         style="fill:#ffffff;fill-opacity:1;fill-rule:evenodd;stroke:none"
         d="m 62.004306,-692.21089 40.964604,0 -13.654868,-13.62203 -40.963908,0 13.654172,13.62203" /><path
         d="m 62.004676,-692.21113 40.963744,0 -13.654352,-13.62183 -40.964436,0 z"
         style="fill:none;stroke:#010101;stroke-width:0.74999946;stroke-linecap:butt;stroke-linejoin:round;stroke-miterlimit:10;stroke-dasharray:none;stroke-opacity:1"
         id="path3826"
         inkscape:connector-curvature="0" /><path
         inkscape:connector-curvature="0"
         id="path3828"
         style="fill:#ffffff;fill-opacity:1;fill-rule:evenodd;stroke:none"
         d="m 21.040398,-692.21089 40.963908,0 -13.654172,-13.62203 -40.9644649,0 13.6547289,13.62203" /><path
         d="m 21.040239,-692.21113 40.964437,0 -13.655044,-13.62183 -40.9640889,0 z"
         style="fill:none;stroke:#010101;stroke-width:0.74999946;stroke-linecap:butt;stroke-linejoin:round;stroke-miterlimit:10;stroke-dasharray:none;stroke-opacity:1"
         id="path3832"
         inkscape:connector-curvature="0" /><path
         inkscape:connector-curvature="0"
         id="path3834"
         style="fill:#ffffff;fill-opacity:1;fill-rule:evenodd;stroke:none"
         d="m 7.5660961,-705.83292 41.1959659,0 -13.732104,-13.63058 -41.1960355,0 13.7321736,13.63058" /><path
         d="m 7.5659901,-705.83296 41.1959329,0 -13.731653,-13.63052 -41.1964195,0 z"
         style="fill:none;stroke:#010101;stroke-width:0.74999946;stroke-linecap:butt;stroke-linejoin:round;stroke-miterlimit:10;stroke-dasharray:none;stroke-opacity:1"
         id="path3838"
         inkscape:connector-curvature="0" /><path
         inkscape:connector-curvature="0"
         id="path3840"
         style="fill:#e6e6ff;fill-opacity:1;fill-rule:evenodd;stroke:none"
         d="m 0.66897111,-701.81098 65.95765689,0 -23.503708,-25.75563 -65.9488,0 23.49485111,25.75563" /><path
         d="m 0.66884311,-701.81099 65.95736089,0 -23.503322,-25.75568 -65.948786,0 z"
         style="fill:none;stroke:#ff0101;stroke-width:0.82111335;stroke-linecap:butt;stroke-linejoin:round;stroke-miterlimit:10;stroke-dasharray:none;stroke-opacity:1"
         id="path3844"
         inkscape:connector-curvature="0" /><path
         d="m 48.461062,-705.83296 40.972793,0 -13.662705,-13.63052 -40.964436,0 z"
         style="fill:none;stroke:#010101;stroke-width:0.74999946;stroke-linecap:butt;stroke-linejoin:round;stroke-miterlimit:10;stroke-dasharray:none;stroke-opacity:1"
         id="path3856"
         inkscape:connector-curvature="0" /><path
         d="m 62.004676,-692.21113 40.963744,0 -13.654352,-13.62183 -40.964436,0 z"
         style="fill:none;stroke:#010101;stroke-width:0.74999946;stroke-linecap:butt;stroke-linejoin:round;stroke-miterlimit:10;stroke-dasharray:none;stroke-opacity:1"
         id="path3860"
         inkscape:connector-curvature="0" /><path
         d="m 21.040239,-692.21113 40.964437,0 -13.655044,-13.62183 -40.9640889,0 z"
         style="fill:none;stroke:#010101;stroke-width:0.74999946;stroke-linecap:butt;stroke-linejoin:round;stroke-miterlimit:10;stroke-dasharray:none;stroke-opacity:1"
         id="path3864"
         inkscape:connector-curvature="0" /><path
         inkscape:connector-curvature="0"
         id="path3866"
         style="fill:#ccccff;fill-opacity:1;fill-rule:evenodd;stroke:none"
         d="m 7.5660961,-705.83292 41.1959659,0 -13.732104,-13.63058 -41.1960355,0 13.7321736,13.63058" /><path
         d="m 7.5659901,-705.83296 41.1959329,0 -13.731653,-13.63052 -41.1964195,0 z"
         style="fill:none;stroke:#010101;stroke-width:0.74999946;stroke-linecap:butt;stroke-linejoin:round;stroke-miterlimit:10;stroke-dasharray:none;stroke-opacity:1"
         id="path3870"
         inkscape:connector-curvature="0" /><path
         inkscape:connector-curvature="0"
         id="path3880"
         style="fill:#ccccff;fill-opacity:1;fill-rule:evenodd;stroke:none"
         d="m 7.4802311,-694.93867 40.9645349,0 -13.654867,-13.63051 -40.9643955,0 13.6547276,13.63051" /><path
         d="m 7.4801191,-694.93865 40.9642279,0 -13.655044,-13.63052 -40.9638795,0 z"
         style="fill:none;stroke:#ff0101;stroke-width:0.74999946;stroke-linecap:butt;stroke-linejoin:round;stroke-miterlimit:10;stroke-dasharray:none;stroke-opacity:1"
         id="path3884"
         inkscape:connector-curvature="0" /><path
         d="m 48.444347,-694.93865 18.209047,-6.83678"
         style="fill:none;stroke:#010101;stroke-width:0.74999946;stroke-linecap:butt;stroke-linejoin:round;stroke-miterlimit:10;stroke-dasharray:0.43787087, 0.43787087, 0.43787087, 0.43787087;stroke-dashoffset:0;stroke-opacity:1"
         id="path3888"
         inkscape:connector-curvature="0" /><path
         d="m 34.944411,-708.552 8.041573,-18.69115"
         style="fill:none;stroke:#010101;stroke-width:0.75635809;stroke-linecap:butt;stroke-linejoin:round;stroke-miterlimit:10;stroke-dasharray:0.44158323, 0.44158323, 0.44158323, 0.44158323;stroke-dashoffset:0;stroke-opacity:1"
         id="path3892"
         inkscape:connector-curvature="0" /><path
         d="m -22.612149,-727.53581 16.3762755,18.91732"
         style="fill:none;stroke:#010101;stroke-width:0.92906553;stroke-linecap:butt;stroke-linejoin:round;stroke-miterlimit:10;stroke-dasharray:0.5424147, 0.5424147, 0.5424147, 0.5424147;stroke-dashoffset:0;stroke-opacity:1"
         id="path3896"
         inkscape:connector-curvature="0" /><path
         inkscape:connector-curvature="0"
         id="path3912"
         style="fill:#010101;fill-opacity:1;fill-rule:evenodd;stroke:none"
         d="m -33.843688,-691.98376 1.288876,-3.86044 -2.5781,0 1.289224,3.86044" /><path
         d="m -33.84373,-737.55953 0,42.48749"
         style="fill:none;stroke:#010101;stroke-width:0.0085857;stroke-linecap:butt;stroke-linejoin:miter;stroke-miterlimit:10;stroke-dasharray:none;stroke-opacity:1"
         id="path3916"
         inkscape:connector-curvature="0" /><g
         transform="matrix(0.3175,0,0,0.3175,138.18066,-765.46426)"
         id="g4234"><g
           id="g4236"><path
             inkscape:connector-curvature="0"
             id="path5865-6"
             d="m -541.77917,225.37411 -0.028,-138.374443"
             style="fill:none;stroke:#000000;stroke-width:1.8801322px;stroke-linecap:butt;stroke-linejoin:miter;stroke-opacity:1" /></g></g><g
         transform="matrix(0.7810885,0,0,-0.59905419,-81.279612,-686.20975)"
         id="g4869"><g
           style="font-style:normal;font-variant:normal;font-weight:normal;font-stretch:normal;letter-spacing:normal;word-spacing:normal;text-anchor:start;fill:none;fill-opacity:1;fill-rule:evenodd;stroke:#000000;stroke-linecap:butt;stroke-linejoin:miter;stroke-miterlimit:10.43299961;stroke-dasharray:none;stroke-dashoffset:0;stroke-opacity:1"
           word-spacing="normal"
           letter-spacing="normal"
           font-size-adjust="none"
           font-stretch="normal"
           font-weight="normal"
           font-variant="normal"
           font-style="normal"
           stroke-miterlimit="10.433"
           xml:space="preserve"
           transform="matrix(0.1872896,0,0,-0.1872896,-37.002511,153.68327)"
           id="content"><path
             style="fill:#000000;stroke-width:0"
             inkscape:connector-curvature="0"
             id="path4872"
             d="m 470.15,437.13 0,0.1 -0.01,0.09 -0.01,0.09 -0.01,0.09 -0.02,0.08 -0.02,0.09 -0.03,0.08 -0.03,0.08 -0.03,0.08 -0.04,0.08 -0.04,0.08 -0.04,0.07 -0.05,0.07 -0.05,0.07 -0.06,0.06 -0.05,0.06 -0.07,0.06 -0.06,0.06 -0.07,0.05 -0.07,0.05 -0.07,0.05 -0.08,0.04 -0.08,0.04 -0.08,0.04 -0.09,0.03 -0.09,0.03 -0.09,0.02 -0.1,0.02 -0.1,0.02 -0.1,0.01 -0.1,0 -0.11,0.01 c -1.34,0 -2.69,-1.3 -2.69,-2.64 0,-0.95 0.7,-1.8 1.9,-1.8 1.14,0 2.64,1.15 2.64,2.64 z" /><path
             style="fill:#000000;stroke-width:0"
             inkscape:connector-curvature="0"
             id="path4874"
             d="m 466.36,418.4 0.05,0.13 0.05,0.13 0.05,0.12 0.05,0.11 0.04,0.1 0.04,0.1 0.04,0.09 0.03,0.09 0.04,0.09 0.03,0.08 0.03,0.08 0.03,0.08 0.03,0.07 0.02,0.07 0.05,0.15 0.06,0.14 0.05,0.14 0.02,0.07 0.03,0.08 0.03,0.08 0.03,0.08 0.03,0.08 0.03,0.09 0.04,0.09 0.03,0.1 0.04,0.11 0.04,0.1 0.04,0.12 0.05,0.12 c 0.4,1 0.65,1.69 0.65,2.64 0,2.25 -1.6,4.09 -4.09,4.09 -4.68,0 -6.57,-7.23 -6.57,-7.67 0,-0.5 0.49,-0.5 0.59,-0.5 0.5,0 0.55,0.1 0.8,0.9 1.34,4.68 3.34,6.17 5.03,6.17 0.4,0 1.25,0 1.25,-1.59 0,-1.05 -0.35,-2.1 -0.55,-2.59 -0.4,-1.3 -2.64,-7.08 -3.44,-9.22 -0.5,-1.29 -1.15,-2.94 -1.15,-3.98 0,-2.34 1.7,-4.09 4.09,-4.09 4.68,0 6.52,7.23 6.52,7.67 0,0.5 -0.44,0.5 -0.59,0.5 -0.5,0 -0.5,-0.15 -0.75,-0.89 -0.89,-3.14 -2.54,-6.18 -5.08,-6.18 -0.85,0 -1.2,0.5 -1.2,1.64 0,1.25 0.3,1.94 1.45,4.98 z" /></g></g><g
         transform="matrix(0.68504756,0,0,-0.61451356,-84.68698,-668.98057)"
         id="g5086"><g
           style="font-style:normal;font-variant:normal;font-weight:normal;font-stretch:normal;letter-spacing:normal;word-spacing:normal;text-anchor:start;fill:none;fill-opacity:1;fill-rule:evenodd;stroke:#000000;stroke-linecap:butt;stroke-linejoin:miter;stroke-miterlimit:10.43299961;stroke-dasharray:none;stroke-dashoffset:0;stroke-opacity:1"
           id="g5088"
           transform="matrix(0.1872896,0,0,-0.1872896,-32.77568,154.53115)"
           xml:space="preserve"
           stroke-miterlimit="10.433"
           font-style="normal"
           font-variant="normal"
           font-weight="normal"
           font-stretch="normal"
           font-size-adjust="none"
           letter-spacing="normal"
           word-spacing="normal"><path
             style="fill:#000000;stroke-width:0"
             inkscape:connector-curvature="0"
             d="m 470.15,437.13 0,0.1 -0.01,0.09 -0.01,0.09 -0.01,0.09 -0.02,0.08 -0.02,0.09 -0.03,0.08 -0.03,0.08 -0.03,0.08 -0.04,0.08 -0.04,0.08 -0.04,0.07 -0.05,0.07 -0.05,0.07 -0.06,0.06 -0.05,0.06 -0.07,0.06 -0.06,0.06 -0.07,0.05 -0.07,0.05 -0.07,0.05 -0.08,0.04 -0.08,0.04 -0.08,0.04 -0.09,0.03 -0.09,0.03 -0.09,0.02 -0.1,0.02 -0.1,0.02 -0.1,0.01 -0.1,0 -0.11,0.01 c -1.34,0 -2.69,-1.3 -2.69,-2.64 0,-0.95 0.7,-1.8 1.9,-1.8 1.14,0 2.64,1.15 2.64,2.64 z"
             id="path5090" /><path
             style="fill:#000000;stroke-width:0"
             inkscape:connector-curvature="0"
             d="m 466.36,418.4 0.05,0.13 0.05,0.13 0.05,0.12 0.05,0.11 0.04,0.1 0.04,0.1 0.04,0.09 0.03,0.09 0.04,0.09 0.03,0.08 0.03,0.08 0.03,0.08 0.03,0.07 0.02,0.07 0.05,0.15 0.06,0.14 0.05,0.14 0.02,0.07 0.03,0.08 0.03,0.08 0.03,0.08 0.03,0.08 0.03,0.09 0.04,0.09 0.03,0.1 0.04,0.11 0.04,0.1 0.04,0.12 0.05,0.12 c 0.4,1 0.65,1.69 0.65,2.64 0,2.25 -1.6,4.09 -4.09,4.09 -4.68,0 -6.57,-7.23 -6.57,-7.67 0,-0.5 0.49,-0.5 0.59,-0.5 0.5,0 0.55,0.1 0.8,0.9 1.34,4.68 3.34,6.17 5.03,6.17 0.4,0 1.25,0 1.25,-1.59 0,-1.05 -0.35,-2.1 -0.55,-2.59 -0.4,-1.3 -2.64,-7.08 -3.44,-9.22 -0.5,-1.29 -1.15,-2.94 -1.15,-3.98 0,-2.34 1.7,-4.09 4.09,-4.09 4.68,0 6.52,7.23 6.52,7.67 0,0.5 -0.44,0.5 -0.59,0.5 -0.5,0 -0.5,-0.15 -0.75,-0.89 -0.89,-3.14 -2.54,-6.18 -5.08,-6.18 -0.85,0 -1.2,0.5 -1.2,1.64 0,1.25 0.3,1.94 1.45,4.98 z"
             id="path5092" /><path
             style="fill:#000000;stroke-width:0"
             inkscape:connector-curvature="0"
             d="m 504.38,417.46 13.89,0 c 0.7,0 1.64,0 1.64,0.99 0,1 -0.94,1 -1.64,1 l -13.89,0 0,13.95 c 0,0.69 0,1.64 -1,1.64 -1,0 -1,-0.95 -1,-1.64 l 0,-13.95 -13.95,0 c -0.7,0 -1.64,0 -1.64,-1 0,-0.99 0.94,-0.99 1.64,-0.99 l 13.95,0 0,-13.95 c 0,-0.7 0,-1.64 1,-1.64 1,0 1,0.94 1,1.64 z"
             id="path5094" /><path
             style="fill:#000000;stroke-width:0"
             inkscape:connector-curvature="0"
             d="m 548.65,437.88 0,0.05 -0.01,0.06 0,0.05 0,0.05 0,0.05 0,0.05 0,0.04 0,0.05 0,0.04 0,0.04 0,0.04 0,0.04 0,0.04 -0.01,0.04 0,0.03 0,0.04 -0.01,0.03 0,0.03 -0.01,0.06 -0.01,0.05 -0.02,0.05 -0.01,0.05 -0.02,0.04 -0.02,0.04 -0.03,0.04 -0.03,0.03 -0.03,0.02 -0.03,0.03 -0.04,0.02 -0.05,0.02 -0.02,0.01 -0.03,0.01 -0.02,0 -0.03,0.01 -0.03,0.01 -0.03,0 -0.03,0.01 -0.03,0 -0.03,0.01 -0.04,0 -0.04,0 -0.03,0 -0.04,0.01 -0.04,0 -0.04,0 -0.05,0 -0.04,0 -0.05,0 -0.05,0.01 -0.05,0 -0.05,0 -0.05,0 c -3.09,-3.19 -7.47,-3.19 -9.07,-3.19 l 0,-1.55 c 1,0 3.94,0 6.53,1.3 l 0,-25.81 c 0,-1.79 -0.15,-2.39 -4.63,-2.39 l -1.6,0 0,-1.54 16.14,0 0,1.54 -1.59,0 c -4.49,0 -4.63,0.55 -4.63,2.39 z"
             id="path5096" /></g></g><g
         transform="matrix(0.71892031,0,0,-0.69752894,-81.250642,-649.99641)"
         id="g5320"><g
           style="font-style:normal;font-variant:normal;font-weight:normal;font-stretch:normal;letter-spacing:normal;word-spacing:normal;text-anchor:start;fill:none;fill-opacity:1;fill-rule:evenodd;stroke:#000000;stroke-linecap:butt;stroke-linejoin:miter;stroke-miterlimit:10.43299961;stroke-dasharray:none;stroke-dashoffset:0;stroke-opacity:1"
           word-spacing="normal"
           letter-spacing="normal"
           font-size-adjust="none"
           font-stretch="normal"
           font-weight="normal"
           font-variant="normal"
           font-style="normal"
           stroke-miterlimit="10.433"
           xml:space="preserve"
           transform="matrix(0.1872896,0,0,-0.1872896,-32.77568,154.53115)"
           id="g5322"><path
             style="fill:#000000;stroke-width:0"
             inkscape:connector-curvature="0"
             id="path5324"
             d="m 466.26,425.93 4.69,0 c 0.99,0 1.49,0 1.49,0.99 0,0.55 -0.5,0.55 -1.4,0.55 l -4.38,0 c 1.79,7.07 2.04,8.07 2.04,8.37 0,0.84 -0.59,1.34 -1.44,1.34 -0.15,0 -1.55,-0.05 -1.99,-1.79 l -1.95,-7.92 -4.68,0 c -1,0 -1.5,0 -1.5,-0.95 0,-0.59 0.4,-0.59 1.4,-0.59 l 4.39,0 c -3.59,-14.15 -3.79,-15 -3.79,-15.89 0,-2.7 1.89,-4.59 4.58,-4.59 5.08,0 7.92,7.28 7.92,7.67 0,0.5 -0.4,0.5 -0.6,0.5 -0.45,0 -0.49,-0.15 -0.74,-0.69 -2.14,-5.19 -4.78,-6.38 -6.48,-6.38 -1.05,0 -1.54,0.65 -1.54,2.29 0,1.2 0.1,1.54 0.29,2.39 z" /><path
             style="fill:#000000;stroke-width:0"
             inkscape:connector-curvature="0"
             id="path5326"
             d="m 484.11,440.46 0.03,0.05 0.02,0.05 0.02,0.06 0.03,0.05 0.02,0.04 0.02,0.05 0.01,0.04 0.02,0.05 0.01,0.04 0.02,0.04 0.01,0.04 0.01,0.04 0.02,0.03 0.01,0.04 0.01,0.03 0,0.04 0.01,0.03 0.01,0.03 0,0.03 0.01,0.03 0.01,0.03 0,0.03 0,0.02 0.01,0.03 0,0.05 0,0.05 0.01,0.05 0,0.04 c 0,1.09 -0.98,1.92 -2.06,1.92 -1.33,0 -1.75,-1.08 -1.92,-1.64 l -4.6,-15.1 c -0.04,-0.07 -0.18,-0.52 -0.18,-0.55 0,-0.42 1.08,-0.77 1.37,-0.77 0.24,0 0.27,0.07 0.52,0.59 z" /></g></g><text
         xml:space="preserve"
         style="font-style:normal;font-weight:normal;font-size:6.64117813px;line-height:125%;font-family:sans-serif;letter-spacing:0px;word-spacing:0px;fill:#000000;fill-opacity:1;stroke:none;stroke-width:1px;stroke-linecap:butt;stroke-linejoin:miter;stroke-opacity:1"
         x="12.684107"
         y="806.41711"
         id="text5496"
         sodipodi:linespacing="125%"
         transform="scale(1.1281752,-0.88638714)"><tspan
           sodipodi:role="line"
           id="tspan5498"
           x="12.684107"
           y="806.41711"
           style="font-style:italic;font-variant:normal;font-weight:normal;font-stretch:normal;font-family:'Latin Modern Math';-inkscape-font-specification:'Latin Modern Math Italic'">tile</tspan></text>
<text
         xml:space="preserve"
         style="font-style:normal;font-weight:normal;font-size:6.0027976px;line-height:125%;font-family:sans-serif;letter-spacing:0px;word-spacing:0px;fill:#000000;fill-opacity:1;stroke:none;stroke-width:1px;stroke-linecap:butt;stroke-linejoin:miter;stroke-opacity:1"
         x="4.3707881"
         y="708.95032"
         id="text5500"
         sodipodi:linespacing="125%"
         transform="scale(0.97699461,-1.0235471)"><tspan
           sodipodi:role="line"
           id="tspan5502"
           x="4.3707881"
           y="708.95032"
           style="font-style:normal;font-variant:normal;font-weight:normal;font-stretch:normal;font-family:'Latin Modern Math';-inkscape-font-specification:'Latin Modern Math'">Área útil</tspan></text>
<text
         xml:space="preserve"
         style="font-style:normal;font-variant:normal;font-weight:normal;font-stretch:normal;font-size:6.34227467px;line-height:125%;font-family:'Latin Modern Math';-inkscape-font-specification:'Latin Modern Math';letter-spacing:0px;word-spacing:0px;fill:#000000;fill-opacity:1;stroke:none;stroke-width:1px;stroke-linecap:butt;stroke-linejoin:miter;stroke-opacity:1"
         x="-63.03017"
         y="666.4278"
         id="text5496-0"
         sodipodi:linespacing="125%"
         transform="scale(0.96152857,-1.0400107)"><tspan
           sodipodi:role="line"
           id="tspan5498-3"
           x="-63.03017"
           y="666.4278"
           style="font-style:normal;font-variant:normal;font-weight:normal;font-stretch:normal;font-family:'Latin Modern Math';-inkscape-font-specification:'Latin Modern Math'">iterações</tspan></text>
</g></g></svg>