<?xml version="1.0" encoding="UTF-8" standalone="no"?>
<!-- Created with Inkscape (http://www.inkscape.org/) -->

<svg
   xmlns:dc="http://purl.org/dc/elements/1.1/"
   xmlns:cc="http://creativecommons.org/ns#"
   xmlns:rdf="http://www.w3.org/1999/02/22-rdf-syntax-ns#"
   xmlns:svg="http://www.w3.org/2000/svg"
   xmlns="http://www.w3.org/2000/svg"
   xmlns:sodipodi="http://sodipodi.sourceforge.net/DTD/sodipodi-0.dtd"
   xmlns:inkscape="http://www.inkscape.org/namespaces/inkscape"
   version="1.1"
   id="svg3718"
   xml:space="preserve"
   width="198.77763"
   height="95.047623"
   viewBox="0 0 198.77764 95.04762"
   sodipodi:docname="tiling3.svg"
   inkscape:version="0.92.2 (5c3e80d, 2017-08-06)"><metadata
     id="metadata3724"><rdf:RDF><cc:Work
         rdf:about=""><dc:format>image/svg+xml</dc:format><dc:type
           rdf:resource="http://purl.org/dc/dcmitype/StillImage" /><dc:title></dc:title></cc:Work></rdf:RDF></metadata><defs
     id="defs3722"><clipPath
       clipPathUnits="userSpaceOnUse"
       id="clipPath3788"><path
         d="M 0,0 H 2384 V 3370 H 0 Z"
         id="path3786"
         inkscape:connector-curvature="0" /></clipPath><clipPath
       clipPathUnits="userSpaceOnUse"
       id="clipPath4242"><path
         d="M 0,0 H 2384 V 3370 H 0 Z"
         id="path4240"
         inkscape:connector-curvature="0" /></clipPath></defs><sodipodi:namedview
     pagecolor="#ffffff"
     bordercolor="#666666"
     borderopacity="1"
     objecttolerance="10"
     gridtolerance="10"
     guidetolerance="10"
     inkscape:pageopacity="0"
     inkscape:pageshadow="2"
     inkscape:window-width="1904"
     inkscape:window-height="989"
     id="namedview3720"
     showgrid="false"
     units="px"
     inkscape:zoom="4"
     inkscape:cx="59.525973"
     inkscape:cy="56.619386"
     inkscape:window-x="8"
     inkscape:window-y="56"
     inkscape:window-maximized="0"
     inkscape:current-layer="g4236"
     showguides="false" /><g
     id="g3726"
     inkscape:groupmode="layer"
     inkscape:label="meng_ijpp_preprint"
     transform="matrix(1.3333333,0,0,-1.3333333,0,95.047412)"><g
       id="g3728"
       transform="translate(72,769.89)"><g
         id="g4234"
         transform="matrix(0.3175,0,0,0.3175,128.63832,-756.08036)"><g
           id="g4236"><path
             d="m -474.35547,34.456258 h 174.64584 L -357.92552,-23.57977 H -532.5422 l 58.18673,58.036028"
             style="fill:#e6e6ff;fill-opacity:1;fill-rule:evenodd;stroke:none;stroke-width:0.22972098"
             id="path4258-2"
             inkscape:connector-curvature="0" /><path
             inkscape:connector-curvature="0"
             id="path4262-5"
             style="fill:none;stroke:#010101;stroke-width:2.36220217;stroke-linecap:butt;stroke-linejoin:round;stroke-miterlimit:10;stroke-dasharray:none;stroke-opacity:1"
             d="m -474.35535,34.456168 h 174.64608 l -58.21552,-58.035848 h -174.61733 z" /><path
             d="m -473.86155,-19.375724 1.53178,-0.19826 c 0.0565,-0.48104 0.22696,-0.82125 0.53846,-1.0473 0.39742,-0.31127 0.93681,-0.45324 1.61793,-0.45324 0.73763,0 1.30481,0.14197 1.70131,0.42452 0.39765,0.31151 0.68112,0.708 0.82286,1.24647 0.0574,0.31127 0.11393,0.99056 0.11393,2.01006 -0.70983,-0.82102 -1.56049,-1.21775 -2.61032,-1.21775 -1.27702,0 -2.26941,0.45324 -2.97833,1.38728 -0.70984,0.93428 -1.04982,2.03786 -1.04982,3.34084 0,0.87753 0.14173,1.697861 0.48172,2.462381 0.31242,0.73671 0.79415,1.330769 1.39004,1.7272693 0.62461,0.42452 1.33353,0.62277 2.15639,0.62277 1.10634,0 2.01443,-0.45301 2.75206,-1.3594903 v 1.1612403 h 1.44655 v -8.0680303 c 0,-1.4438 -0.16954,-2.4633 -0.45392,-3.08607 -0.28371,-0.59498 -0.76543,-1.07578 -1.41784,-1.416 -0.62461,-0.36778 -1.41876,-0.53755 -2.35464,-0.53755 -1.10657,0 -2.01466,0.25499 -2.69578,0.73603 -0.70869,0.50952 -1.02111,1.27403 -0.99239,2.26482 z m 1.30481,5.60565 c 0,-1.24555 0.22696,-2.12308 0.73764,-2.68934 0.48172,-0.56627 1.07762,-0.84974 1.81525,-0.84974 0.73764,0 1.36225,0.28347 1.84397,0.84974 0.51067,0.53754 0.76635,1.44379 0.76635,2.63283 0,1.13252 -0.25568,2.010061 -0.76635,2.576321 -0.51044,0.59406 -1.13413,0.877529 -1.84397,0.877529 -0.70892,0 -1.33353,-0.283469 -1.81525,-0.849739 -0.51067,-0.59405 -0.73764,-1.443791 -0.73764,-2.547601"
             style="fill:#010101;fill-opacity:1;fill-rule:evenodd;stroke:none;stroke-width:0.22972098"
             id="path4264"
             inkscape:connector-curvature="0" /><path
             d="m -463.62013,-18.611214 v 12.88137 h 1.58829 v -4.61509 c 0.73763,0.8499703 1.67352,1.2742603 2.781,1.2742603 0.68021,0 1.27587,-0.14173 1.78654,-0.3965 0.51067,-0.28278 0.87937,-0.6505703 1.07854,-1.1325193 0.22719,-0.48104 0.34022,-1.18904 0.34022,-2.094371 v -5.91715 h -1.58829 v 5.91715 c 0,0.792311 -0.17046,1.358571 -0.51067,1.726361 -0.34091,0.36801 -0.82286,0.537539 -1.44747,0.537539 -0.45393,0 -0.90809,-0.113009 -1.30459,-0.367779 -0.39765,-0.22628 -0.70984,-0.56626 -0.87937,-0.99079 -0.17068,-0.3965 -0.25591,-0.990551 -0.25591,-1.726351 v -5.09613 h -1.58829"
             style="fill:#010101;fill-opacity:1;fill-rule:evenodd;stroke:none;stroke-width:0.22972098"
             id="path4266"
             inkscape:connector-curvature="0" /><path
             d="m -454.23029,-13.940524 c 0,1.7275 0.48288,3.001531 1.44748,3.82278 0.79414,0.7070803 1.78746,1.0470703 2.92182,1.0470703 1.27679,0 2.32684,-0.42429 3.1497,-1.2455503 0.82194,-0.849729 1.21936,-2.01005 1.21936,-3.48257 0,-1.21683 -0.17046,-2.15087 -0.53915,-2.83108 -0.36894,-0.70708 -0.87961,-1.21683 -1.5605,-1.61333 -0.70892,-0.36801 -1.44655,-0.56626 -2.26941,-0.56626 -1.30482,0 -2.35464,0.42429 -3.14879,1.24555 -0.82286,0.84973 -1.22051,2.03877 -1.22051,3.62339 z m 1.61793,0 c 0,-1.18904 0.25499,-2.09437 0.79415,-2.68935 0.51066,-0.59406 1.16307,-0.87753 1.95722,-0.87753 0.79414,0 1.44724,0.31127 1.95791,0.90625 0.53847,0.59406 0.79415,1.50031 0.79415,2.71806 0,1.16032 -0.25568,2.037851 -0.79415,2.632831 -0.51067,0.59406 -1.16377,0.877529 -1.95791,0.877529 -0.79415,0 -1.44656,-0.283469 -1.95722,-0.877529 -0.53916,-0.59498 -0.79415,-1.501231 -0.79415,-2.690261"
             style="fill:#010101;fill-opacity:1;fill-rule:evenodd;stroke:none;stroke-width:0.22972098"
             id="path4268"
             inkscape:connector-curvature="0" /><path
             d="m -444.30014,-15.780134 1.5605,0.19847 c 0.0852,-0.62277 0.33999,-1.10473 0.73763,-1.41623 0.3965,-0.33907 0.9646,-0.50952 1.70224,-0.50952 0.73763,0 1.27587,0.14173 1.617,0.45301 0.3687,0.2837 0.53847,0.62277 0.53847,1.0195 0,0.36778 -0.16978,0.65057 -0.48196,0.84882 -0.19826,0.14173 -0.76635,0.3115 -1.617,0.53846 -1.16308,0.28256 -1.98594,0.53755 -2.43987,0.76452 -0.45416,0.19734 -0.79415,0.50883 -1.02134,0.87753 -0.22696,0.36801 -0.34091,0.79254 -0.34091,1.245551 0,0.42452 0.0852,0.79231 0.2844,1.16032 0.19847,0.340219 0.45324,0.6514893 0.79414,0.8775293 0.22719,0.16977 0.56719,0.34022 0.99263,0.45324 0.42613,0.14173 0.90809,0.19826 1.39004,0.19826 0.73741,0 1.39073,-0.11301 1.9292,-0.31127 0.5681,-0.22696 0.9646,-0.50975 1.2483,-0.8497403 0.25568,-0.368009 0.42613,-0.849049 0.53916,-1.444019 l -1.5605,-0.19734 c -0.0565,0.48104 -0.28347,0.84882 -0.62369,1.10381 -0.34091,0.25476 -0.79506,0.396499 -1.41853,0.396499 -0.73763,0 -1.2483,-0.11395 -1.56049,-0.368699 -0.31242,-0.22627 -0.48196,-0.50883 -0.48196,-0.8201 0,-0.22719 0.0565,-0.39673 0.19826,-0.56627 0.11303,-0.170451 0.34022,-0.311501 0.5959,-0.425441 0.17045,-0.0565 0.62368,-0.16953 1.41876,-0.39581 1.13413,-0.28347 1.90048,-0.53823 2.35464,-0.73671 0.45392,-0.19733 0.79414,-0.45209 1.0489,-0.82103 0.25568,-0.36778 0.36893,-0.8201 0.36893,-1.35857 0,-0.50975 -0.14197,-1.01927 -0.45324,-1.47159 -0.31219,-0.48195 -0.76635,-0.84974 -1.33353,-1.10473 -0.59566,-0.25476 -1.24808,-0.36778 -1.9857,-0.36778 -1.22052,0 -2.1564,0.25476 -2.78101,0.76451 -0.62369,0.50975 -1.0489,1.27426 -1.21936,2.26482"
             style="fill:#010101;fill-opacity:1;fill-rule:evenodd;stroke:none;stroke-width:0.22972098"
             id="path4270"
             inkscape:connector-curvature="0" /><path
             d="m -431.19363,-17.196134 0.19939,-1.38729 c -0.45415,-0.0843 -0.85157,-0.14081 -1.19179,-0.14081 -0.59589,0 -1.02203,0.0843 -1.36224,0.28255 -0.31219,0.17069 -0.53916,0.42453 -0.65218,0.708 -0.14197,0.28279 -0.19847,0.90556 -0.19847,1.86832 v 5.37869 h -1.16377 v 1.2177503 h 1.16377 v 2.3213297 l 1.58829,0.93428 v -3.2556097 h 1.61701 v -1.2177503 h -1.61701 v -5.46299 c 0,-0.45324 0.0287,-0.73672 0.0852,-0.87846 0.0567,-0.14105 0.14197,-0.22628 0.2837,-0.3115 0.11393,-0.0843 0.31219,-0.11301 0.53916,-0.11301 0.17067,0 0.42544,0.0287 0.70892,0.0565"
             style="fill:#010101;fill-opacity:1;fill-rule:evenodd;stroke:none;stroke-width:0.22972098"
             id="path4272"
             inkscape:connector-curvature="0" /><path
             d="m -425.4343,-18.611214 v 1.27426 l 5.92956,6.85028 c -0.68112,-0.0278 -1.27679,-0.0565 -1.78746,-0.0565 h -3.80119 v 1.2742598 h 7.6311 v -1.0472998 l -5.0495,-5.916921 -0.9646,-1.10381 c 0.70892,0.0565 1.36133,0.0843 1.98594,0.0843 h 4.31163 v -1.35857 h -8.25548"
             style="fill:#010101;fill-opacity:1;fill-rule:evenodd;stroke:none;stroke-width:0.22972098"
             id="path4274"
             inkscape:connector-curvature="0" /><path
             d="m -416.15748,-13.940524 c 0,1.7275 0.48265,3.001531 1.4484,3.82278 0.79253,0.7070803 1.78722,1.0470703 2.91975,1.0470703 1.27725,0 2.32707,-0.42429 3.14947,-1.2455503 0.82241,-0.849729 1.21982,-2.01005 1.21982,-3.48257 0,-1.21683 -0.16999,-2.15087 -0.53754,-2.83108 -0.36986,-0.70708 -0.87984,-1.21683 -1.56211,-1.61333 -0.70754,-0.36801 -1.44494,-0.56626 -2.26964,-0.56626 -1.30482,0 -2.35464,0.42429 -3.14718,1.24555 -0.82355,0.84973 -1.22097,2.03877 -1.22097,3.62339 z m 1.61609,0 c 0,-1.18904 0.25729,-2.09437 0.79484,-2.68935 0.51227,-0.59406 1.16468,-0.87753 1.95722,-0.87753 0.79483,0 1.44724,0.31127 1.95952,0.90625 0.53755,0.59406 0.79254,1.50031 0.79254,2.71806 0,1.16032 -0.25499,2.037851 -0.79254,2.632831 -0.51228,0.59406 -1.16469,0.877529 -1.95952,0.877529 -0.79254,0 -1.44495,-0.283469 -1.95722,-0.877529 -0.53755,-0.59498 -0.79484,-1.501231 -0.79484,-2.690261"
             style="fill:#010101;fill-opacity:1;fill-rule:evenodd;stroke:none;stroke-width:0.22972098"
             id="path4276"
             inkscape:connector-curvature="0" /><path
             d="m -405.60294,-18.611214 v 9.3422903 h 1.41737 v -1.3307693 c 0.68228,1.0194993 1.67467,1.5290193 2.97949,1.5290193 0.53754,0 1.07739,-0.11301 1.53223,-0.31127 0.48242,-0.19826 0.82241,-0.45324 1.0774,-0.7932303 0.22741,-0.3115 0.39741,-0.707079 0.48241,-1.160319 0.0574,-0.28347 0.085,-0.82102 0.085,-1.529021 v -5.7467 h -1.58967 v 5.69019 c 0,0.65149 -0.0551,1.132291 -0.1677,1.443791 -0.14241,0.31128 -0.34228,0.56627 -0.6547,0.76452 -0.31013,0.19824 -0.67998,0.282549 -1.10496,0.282549 -0.67998,0 -1.24968,-0.226039 -1.7321,-0.650569 -0.48241,-0.42429 -0.7374,-1.245541 -0.7374,-2.434351 v -5.09613 h -1.58737"
             style="fill:#010101;fill-opacity:1;fill-rule:evenodd;stroke:none;stroke-width:0.22972098"
             id="path4278"
             inkscape:connector-curvature="0" /><path
             d="m -389.26289,-15.610374 1.6471,-0.19847 c -0.25729,-0.96184 -0.7374,-1.69855 -1.41968,-2.2083 -0.70983,-0.53755 -1.61723,-0.79231 -2.69462,-0.79231 -1.36225,0 -2.43964,0.42429 -3.26204,1.24555 -0.79484,0.84973 -1.19225,2.03877 -1.19225,3.53908 0,1.58553 0.39741,2.802351 1.21982,3.6521 0.79483,0.8777703 1.84466,1.3020603 3.14947,1.3020603 1.24739,0 2.26964,-0.42429 3.06448,-1.2742703 0.79254,-0.848809 1.18995,-2.03786 1.18995,-3.56687 0,-0.0852 0,-0.22604 0,-0.42452 h -7.00649 c 0.0574,-1.01928 0.33999,-1.81158 0.87983,-2.35006 0.50998,-0.53755 1.16239,-0.82101 1.95723,-0.82101 0.59497,0 1.07739,0.14173 1.50237,0.453 0.39742,0.31151 0.73741,0.79255 0.96483,1.44403 z m -5.21926,2.5761 h 5.24683 c -0.0551,0.79253 -0.28256,1.358571 -0.59498,1.755291 -0.50998,0.59498 -1.16239,0.906249 -1.98479,0.906249 -0.7397,0 -1.33468,-0.254759 -1.84466,-0.736709 -0.48241,-0.48081 -0.76497,-1.103581 -0.8224,-1.924831"
             style="fill:#010101;fill-opacity:1;fill-rule:evenodd;stroke:none;stroke-width:0.22972098"
             id="path4280"
             inkscape:connector-curvature="0" /><g
             id="g4260"
             transform="matrix(0.2299645,0,0,0.22947773,-627.63837,-67.913387)" /><path
             d="m -447.77211,22.226147 h 77.1387 l -25.84591,-25.6777543 h -77.13824 l 25.84545,25.6777543"
             style="fill:#ccccff;fill-opacity:1;fill-rule:evenodd;stroke:none;stroke-width:0.22972099"
             id="path4282"
             inkscape:connector-curvature="0" /><g
             id="g4284"
             transform="matrix(0.2299645,0,0,0.22947773,-627.63837,-67.913387)"><path
               d="M 782.149,392.803 H 1117.58 L 1005.2,280.907 H 669.76 Z"
               style="fill:none;stroke:#010101;stroke-width:10.28291798;stroke-linecap:butt;stroke-linejoin:round;stroke-miterlimit:10;stroke-dasharray:none;stroke-opacity:1"
               id="path4286"
               inkscape:connector-curvature="0" /></g><path
             d="m -429.01953,4.9566407 0.19848,-1.387285 c -0.45416,-0.08431 -0.85065,-0.141738 -1.19179,-0.141738 -0.5959,0 -1.02111,0.08523 -1.36133,0.283476 -0.31219,0.169534 -0.53915,0.424524 -0.65217,0.708 -0.14197,0.282787 -0.1994,0.90556 -0.1994,1.868321 v 5.3786873 h -1.16285 v 1.217751 h 1.16285 v 2.321331 l 1.58921,0.934275 v -3.255606 h 1.617 v -1.217751 h -1.617 V 6.2021877 c 0,-0.453239 0.0278,-0.735796 0.0852,-0.877534 0.0568,-0.141967 0.14197,-0.226275 0.28371,-0.311502 0.11302,-0.08431 0.31219,-0.113022 0.53847,-0.113022 0.17045,0 0.42613,0.02871 0.7096,0.05651"
             style="fill:#010101;fill-opacity:1;fill-rule:evenodd;stroke:none;stroke-width:0.22972099"
             id="path4288"
             inkscape:connector-curvature="0" /><path
             d="m -427.43123,14.610207 v 1.811809 h 1.5892 v -1.811809 z m 0,-11.0686473 v 9.3422933 h 1.5892 V 3.5415597 h -1.5892"
             style="fill:#010101;fill-opacity:1;fill-rule:evenodd;stroke:none;stroke-width:0.22972099"
             id="path4290"
             inkscape:connector-curvature="0" /><path
             d="m -423.48738,3.5415597 h 1.5883 V 16.422085 h -1.5883 z"
             style="fill:#010101;fill-opacity:1;fill-rule:evenodd;stroke:none;stroke-width:0.22972099"
             id="path4292"
             inkscape:connector-curvature="0" /><path
             d="m -413.13179,6.5421747 1.6448,-0.198249 c -0.25499,-0.96276 -0.73763,-1.698787 -1.41876,-2.208308 -0.70892,-0.537547 -1.617,-0.792307 -2.69485,-0.792307 -1.36202,0 -2.43987,0.424294 -3.26273,1.245317 -0.79415,0.849049 -1.19156,2.037855 -1.19156,3.539312 0,1.584615 0.39741,2.8023663 1.22027,3.6511853 0.79415,0.877534 1.8442,1.302978 3.14879,1.302978 1.2483,0 2.26941,-0.425444 3.06448,-1.274263 0.79414,-0.849738 1.19087,-2.0387743 1.19087,-3.5668783 0,-0.08523 0,-0.226964 0,-0.425443 h -7.00741 c 0.0574,-1.018353 0.34091,-1.81158 0.87937,-2.349127 0.51159,-0.537547 1.16377,-0.821253 1.95792,-0.821253 0.59589,0 1.07785,0.141968 1.50398,0.45324 0.39673,0.311502 0.73763,0.792308 0.96483,1.443796 z m -5.22087,2.576321 h 5.24866 c -0.0565,0.792308 -0.2837,1.3585703 -0.59589,1.7552993 -0.51067,0.594058 -1.16308,0.90533 -1.98594,0.90533 -0.73763,0 -1.3333,-0.25476 -1.84397,-0.735796 -0.48196,-0.481036 -0.76635,-1.1038103 -0.82286,-1.9248333"
             style="fill:#010101;fill-opacity:1;fill-rule:evenodd;stroke:none;stroke-width:0.22972099"
             id="path4294"
             inkscape:connector-curvature="0" /><g
             id="g4296"
             transform="matrix(0.2299645,0,0,0.22947773,-627.63837,-67.913387)"><path
               d="M 997.054,607.213 H 1977.45 L 1650.16,281.032 h -980.4 z"
               style="fill:none;stroke:#010101;stroke-width:10.28291798;stroke-linecap:butt;stroke-linejoin:round;stroke-miterlimit:10;stroke-dasharray:none;stroke-opacity:1"
               id="path4298"
               inkscape:connector-curvature="0" /></g><g
             id="g4300"
             transform="matrix(0.2299645,0,0,0.22947773,-627.63837,-67.913387)"><path
               d="M 789.676,392.803 H 1767.24"
               style="fill:none;stroke:#010101;stroke-width:10.28291798;stroke-linecap:butt;stroke-linejoin:round;stroke-miterlimit:10;stroke-dasharray:none;stroke-opacity:1"
               id="path4302"
               inkscape:connector-curvature="0" /></g><g
             id="g4304"
             transform="matrix(0.2299645,0,0,0.22947773,-627.63837,-67.913387)"><path
               d="M 902.677,509.137 H 1877.16"
               style="fill:none;stroke:#010101;stroke-width:10.28291798;stroke-linecap:butt;stroke-linejoin:round;stroke-miterlimit:10;stroke-dasharray:none;stroke-opacity:1"
               id="path4306"
               inkscape:connector-curvature="0" /></g><g
             id="g4308"
             transform="matrix(0.2299645,0,0,0.22947773,-627.63837,-67.913387)"><path
               d="m 1005.32,281.032 327.66,326.06"
               style="fill:none;stroke:#010101;stroke-width:10.28291798;stroke-linecap:butt;stroke-linejoin:round;stroke-miterlimit:10;stroke-dasharray:none;stroke-opacity:1"
               id="path4310"
               inkscape:connector-curvature="0" /></g><g
             id="g4312"
             transform="matrix(0.2299645,0,0,0.22947773,-627.63837,-67.913387)"><path
               d="m 1309.3,281.032 332.47,326.553"
               style="fill:none;stroke:#010101;stroke-width:10.28291798;stroke-linecap:butt;stroke-linejoin:round;stroke-miterlimit:10;stroke-dasharray:none;stroke-opacity:1"
               id="path4314"
               inkscape:connector-curvature="0" /></g><rect
             style="opacity:1;fill:#f3ffff;fill-opacity:1;stroke:#ffffff;stroke-width:2.83824229;stroke-miterlimit:10;stroke-dasharray:none;stroke-dashoffset:0;stroke-opacity:1"
             id="rect7735"
             width="107.71894"
             height="71.257301"
             x="-586.77209"
             y="26.179905"
             transform="scale(1,-1)" /><rect
             style="opacity:1;fill:#f3ffff;fill-opacity:1;stroke:#ffffff;stroke-width:2.83464575;stroke-miterlimit:10;stroke-dasharray:none;stroke-dashoffset:0;stroke-opacity:1"
             id="rect7735-6"
             width="107.71894"
             height="71.076843"
             x="-423.15305"
             y="26.269051"
             transform="scale(1,-1)" /><rect
             style="opacity:1;fill:#f3ffff;fill-opacity:1;stroke:#ffffff;stroke-width:2.86710453;stroke-miterlimit:10;stroke-dasharray:none;stroke-dashoffset:0;stroke-opacity:1"
             id="rect7735-6-0"
             width="107.71894"
             height="72.713928"
             x="-233.25578"
             y="250.59258"
             transform="matrix(0.70573057,-0.70848031,-0.70848031,-0.70573057,0,0)" /><rect
             style="opacity:1;fill:#f3ffff;fill-opacity:1;stroke:#ffffff;stroke-width:0.90240514;stroke-miterlimit:10;stroke-dasharray:none;stroke-dashoffset:0;stroke-opacity:1"
             id="rect7735-6-0-8"
             width="34.629032"
             height="22.407089"
             x="-294.32529"
             y="-20.596706"
             transform="scale(1,-1)" /><rect
             style="opacity:1;fill:#f3ffff;fill-opacity:1;stroke:#ffffff;stroke-width:0.36696598;stroke-miterlimit:10;stroke-dasharray:none;stroke-dashoffset:0;stroke-opacity:1"
             id="rect7735-6-0-8-8"
             width="34.995491"
             height="3.6665888"
             x="-292.4054"
             y="-27.2719"
             transform="scale(1,-1)" /><rect
             style="opacity:1;fill:#f3ffff;fill-opacity:1;stroke:#ffffff;stroke-width:0.12929738;stroke-miterlimit:10;stroke-dasharray:none;stroke-dashoffset:0;stroke-opacity:1"
             id="rect7735-6-0-8-8-7"
             width="4.081821"
             height="3.9025471"
             x="-292.81372"
             y="-27.868061"
             transform="scale(1,-1)" /><rect
             style="opacity:1;fill:#f3ffff;fill-opacity:1;stroke:#ffffff;stroke-width:0.06716391;stroke-miterlimit:10;stroke-dasharray:none;stroke-dashoffset:0;stroke-opacity:1"
             id="rect7735-6-0-8-8-7-0"
             width="2.2421894"
             height="1.9170001"
             x="219.19472"
             y="-186.31192"
             transform="matrix(-0.71806507,0.69597597,0.72757869,0.68602424,0,0)" /><rect
             style="opacity:1;fill:#f3ffff;fill-opacity:1;stroke:#ffffff;stroke-width:0.14796187;stroke-miterlimit:10;stroke-dasharray:none;stroke-dashoffset:0;stroke-opacity:1"
             id="rect7735-6-0-8-8-7-0-8"
             width="5.0313945"
             height="4.1460428"
             x="229.21094"
             y="-172.19128"
             transform="matrix(-0.76275507,0.64668748,0.71059761,0.70359864,0,0)" /><rect
             style="opacity:1;fill:#f3ffff;fill-opacity:1;stroke:#ffffff;stroke-width:0.14816955;stroke-miterlimit:10;stroke-dasharray:none;stroke-dashoffset:0;stroke-opacity:1"
             id="rect7735-9"
             width="9.6093063"
             height="2.1769493"
             x="-484.94476"
             y="227.93489"
             transform="matrix(0.92299088,-0.38482183,-0.38482183,-0.92299088,0,0)" /><rect
             style="opacity:1;fill:#f3ffff;fill-opacity:1;stroke:#ffffff;stroke-width:0.14816952;stroke-miterlimit:10;stroke-dasharray:none;stroke-dashoffset:0;stroke-opacity:1"
             id="rect7735-9-9"
             width="9.6093063"
             height="2.1769493"
             x="-240.66298"
             y="264.08749"
             transform="matrix(0.72153345,-0.69237958,-0.69237958,-0.72153345,0,0)" /><rect
             style="opacity:1;fill:#f3ffff;fill-opacity:1;stroke:#ffffff;stroke-width:0.14796187;stroke-miterlimit:10;stroke-dasharray:none;stroke-dashoffset:0;stroke-opacity:1"
             id="rect7735-6-0-8-8-7-0-8-6"
             width="5.0313945"
             height="4.1460428"
             x="229.95364"
             y="-170.88385"
             transform="matrix(-0.76275507,0.64668748,0.71059761,0.70359863,0,0)" /><rect
             style="opacity:1;fill:#f3ffff;fill-opacity:1;stroke:#ffffff;stroke-width:0.14796187;stroke-miterlimit:10;stroke-dasharray:none;stroke-dashoffset:0;stroke-opacity:1"
             id="rect7735-6-0-8-8-7-0-8-8"
             width="5.0313945"
             height="4.1460428"
             x="-8.8688974"
             y="-300.858"
             transform="matrix(0.04680781,0.99890391,0.99104363,-0.13353847,0,0)" /><rect
             style="opacity:1;fill:#f3ffff;fill-opacity:1;stroke:#ffffff;stroke-width:0.06458396;stroke-miterlimit:10;stroke-dasharray:none;stroke-dashoffset:0;stroke-opacity:1"
             id="rect7735-6-0-8-8-7-0-7"
             width="2.1543837"
             height="1.844797"
             x="227.91455"
             y="-186.67874"
             transform="matrix(-0.72167189,0.69223528,0.6950024,0.71900742,0,0)" /><rect
             style="opacity:1;fill:#f3ffff;fill-opacity:1;stroke:#ffffff;stroke-width:0.08063035;stroke-miterlimit:10;stroke-dasharray:none;stroke-dashoffset:0;stroke-opacity:1"
             id="rect7735-6-0-8-8-7-0-7-1"
             width="2.1476634"
             height="2.8843849"
             x="22.995562"
             y="-294.08374"
             transform="matrix(0.01011274,0.99994886,0.9999988,-0.00154905,0,0)" /><rect
             style="opacity:1;fill:#f3ffff;fill-opacity:1;stroke:#ffffff;stroke-width:0.90240514;stroke-miterlimit:10;stroke-dasharray:none;stroke-dashoffset:0;stroke-opacity:1"
             id="rect7735-6-0-8-9"
             width="34.629032"
             height="22.407089"
             x="-289.30527"
             y="5.0527081"
             transform="scale(1,-1)" /></g></g></g></g></svg>