<?xml version="1.0" encoding="UTF-8" standalone="no"?>
<!-- Created with Inkscape (http://www.inkscape.org/) -->

<svg
   xmlns:dc="http://purl.org/dc/elements/1.1/"
   xmlns:cc="http://creativecommons.org/ns#"
   xmlns:rdf="http://www.w3.org/1999/02/22-rdf-syntax-ns#"
   xmlns:svg="http://www.w3.org/2000/svg"
   xmlns="http://www.w3.org/2000/svg"
   xmlns:sodipodi="http://sodipodi.sourceforge.net/DTD/sodipodi-0.dtd"
   xmlns:inkscape="http://www.inkscape.org/namespaces/inkscape"
   version="1.1"
   id="svg3718"
   xml:space="preserve"
   width="5.81495cm"
   height="3.7000101cm"
   viewBox="0 0 219.77764 139.84289"
   sodipodi:docname="tiling.svg"
   inkscape:version="0.92.2 (5c3e80d, 2017-08-06)"><metadata
     id="metadata3724"><rdf:RDF><cc:Work
         rdf:about=""><dc:format>image/svg+xml</dc:format><dc:type
           rdf:resource="http://purl.org/dc/dcmitype/StillImage" /><dc:title></dc:title></cc:Work></rdf:RDF></metadata><defs
     id="defs3722"><clipPath
       clipPathUnits="userSpaceOnUse"
       id="clipPath3788"><path
         d="M 0,0 H 2384 V 3370 H 0 Z"
         id="path3786"
         inkscape:connector-curvature="0" /></clipPath><clipPath
       clipPathUnits="userSpaceOnUse"
       id="clipPath4242"><path
         d="M 0,0 H 2384 V 3370 H 0 Z"
         id="path4240"
         inkscape:connector-curvature="0" /></clipPath></defs><sodipodi:namedview
     pagecolor="#ffffff"
     bordercolor="#666666"
     borderopacity="1"
     objecttolerance="10"
     gridtolerance="10"
     guidetolerance="10"
     inkscape:pageopacity="0"
     inkscape:pageshadow="2"
     inkscape:window-width="1904"
     inkscape:window-height="1064"
     id="namedview3720"
     showgrid="false"
     units="cm"
     inkscape:zoom="2.2274254"
     inkscape:cx="350.71815"
     inkscape:cy="29.646636"
     inkscape:window-x="8"
     inkscape:window-y="8"
     inkscape:window-maximized="0"
     inkscape:current-layer="g4236"
     showguides="false" /><g
     id="g3726"
     inkscape:groupmode="layer"
     inkscape:label="meng_ijpp_preprint"
     transform="matrix(1.3333333,0,0,-1.3333333,0,139.8429)"><g
       id="g3728"
       transform="translate(72,769.89)"><g
         id="g4234"
         transform="matrix(0.3175,0,0,0.3175,128.63832,-756.08036)"><g
           id="g4236"><g
             id="g4238"
             clip-path="url(#clipPath4242)"
             transform="translate(-621.73286)"><g
               id="g4244"
               transform="scale(0.229721)"><path
                 d="M 721.969,219.238 H 1252.39 L 1074.55,42.8867 H 544.254 L 721.969,219.238"
                 style="fill:#ccccff;fill-opacity:1;fill-rule:evenodd;stroke:none"
                 id="path4246"
                 inkscape:connector-curvature="0" /><g
                 id="g4248"
                 transform="scale(1.00106,0.998941)"><path
                   d="M 721.205,219.471 H 1251.07 L 1073.42,42.9322 H 543.678 Z"
                   style="fill:none;stroke:#010101;stroke-width:10.28291798;stroke-linecap:butt;stroke-linejoin:round;stroke-miterlimit:10;stroke-dasharray:none;stroke-opacity:1"
                   id="path4250"
                   inkscape:connector-curvature="0" /></g><path
                 d="M 739.629,301.438 H 1169.03 L 1029.73,159.84 H 600.445 l 139.184,141.598"
                 style="fill:#ccccff;fill-opacity:1;fill-rule:evenodd;stroke:none"
                 id="path4252"
                 inkscape:connector-curvature="0" /><g
                 id="g4254"
                 transform="scale(1.00106,0.998941)"><path
                   d="M 738.847,301.757 H 1167.8 L 1028.64,160.009 H 599.81 Z"
                   style="fill:none;stroke:#010101;stroke-width:10.28291798;stroke-linecap:butt;stroke-linejoin:round;stroke-miterlimit:10;stroke-dasharray:none;stroke-opacity:1"
                   id="path4256"
                   inkscape:connector-curvature="0" /></g><path
                 d="M 667.258,445.625 H 1427.51 L 1174.09,192.988 H 413.965 l 253.293,252.637"
                 style="fill:#e6e6ff;fill-opacity:1;fill-rule:evenodd;stroke:none"
                 id="path4258"
                 inkscape:connector-curvature="0" /><g
                 id="g4260"
                 transform="scale(1.00106,0.998941)"><path
                   d="M 666.552,446.097 H 1426 L 1172.85,193.193 H 413.527 Z"
                   style="fill:none;stroke:#010101;stroke-width:10.28291798;stroke-linecap:butt;stroke-linejoin:round;stroke-miterlimit:10;stroke-dasharray:none;stroke-opacity:1"
                   id="path4262"
                   inkscape:connector-curvature="0" /></g><path
                 d="m 743.953,200.629 6.668,-0.863 c 0.246,-2.094 0.988,-3.575 2.344,-4.559 1.73,-1.355 4.078,-1.973 7.043,-1.973 3.211,0 5.68,0.618 7.406,1.848 1.731,1.356 2.965,3.082 3.582,5.426 0.25,1.355 0.496,4.312 0.496,8.75 -3.09,-3.574 -6.793,-5.301 -11.363,-5.301 -5.559,0 -9.879,1.973 -12.965,6.039 -3.09,4.067 -4.57,8.871 -4.57,14.543 0,3.82 0.617,7.391 2.097,10.719 1.36,3.207 3.457,5.793 6.051,7.519 2.719,1.848 5.805,2.711 9.387,2.711 4.816,0 8.769,-1.972 11.98,-5.918 v 5.055 h 6.297 v -35.121 c 0,-6.285 -0.738,-10.723 -1.976,-13.434 -1.235,-2.59 -3.332,-4.683 -6.172,-6.164 -2.719,-1.601 -6.176,-2.34 -10.25,-2.34 -4.817,0 -8.77,1.11 -11.735,3.204 -3.085,2.218 -4.445,5.546 -4.32,9.859 z m 5.68,24.402 c 0,-5.422 0.988,-9.242 3.211,-11.707 2.097,-2.465 4.691,-3.699 7.902,-3.699 3.211,0 5.93,1.234 8.027,3.699 2.223,2.34 3.336,6.285 3.336,11.461 0,4.93 -1.113,8.75 -3.336,11.215 -2.222,2.586 -4.937,3.82 -8.027,3.82 -3.086,0 -5.805,-1.234 -7.902,-3.699 -2.223,-2.586 -3.211,-6.285 -3.211,-11.09"
                 style="fill:#010101;fill-opacity:1;fill-rule:evenodd;stroke:none"
                 id="path4264"
                 inkscape:connector-curvature="0" /><path
                 d="m 788.535,203.957 v 56.074 h 6.914 v -20.09 c 3.211,3.7 7.285,5.547 12.106,5.547 2.961,0 5.554,-0.617 7.777,-1.726 2.223,-1.231 3.828,-2.832 4.695,-4.93 0.989,-2.094 1.481,-5.176 1.481,-9.117 v -25.758 h -6.914 v 25.758 c 0,3.449 -0.742,5.914 -2.223,7.515 -1.484,1.602 -3.582,2.34 -6.301,2.34 -1.976,0 -3.953,-0.492 -5.679,-1.601 -1.731,-0.985 -3.09,-2.465 -3.828,-4.313 -0.743,-1.726 -1.114,-4.312 -1.114,-7.515 v -22.184 h -6.914"
                 style="fill:#010101;fill-opacity:1;fill-rule:evenodd;stroke:none"
                 id="path4266"
                 inkscape:connector-curvature="0" /><path
                 d="m 829.41,224.289 c 0,7.52 2.102,13.066 6.301,16.641 3.457,3.078 7.781,4.558 12.719,4.558 5.558,0 10.129,-1.847 13.711,-5.422 3.578,-3.699 5.308,-8.75 5.308,-15.16 0,-5.297 -0.742,-9.363 -2.347,-12.324 -1.606,-3.078 -3.829,-5.297 -6.793,-7.023 -3.086,-1.602 -6.297,-2.465 -9.879,-2.465 -5.68,0 -10.25,1.847 -13.707,5.422 -3.582,3.699 -5.313,8.875 -5.313,15.773 z m 7.043,0 c 0,-5.176 1.11,-9.117 3.457,-11.707 2.223,-2.586 5.063,-3.82 8.52,-3.82 3.457,0 6.3,1.355 8.523,3.945 2.344,2.586 3.457,6.531 3.457,11.832 0,5.051 -1.113,8.871 -3.457,11.461 -2.223,2.586 -5.066,3.82 -8.523,3.82 -3.457,0 -6.297,-1.234 -8.52,-3.82 -2.347,-2.59 -3.457,-6.535 -3.457,-11.711"
                 style="fill:#010101;fill-opacity:1;fill-rule:evenodd;stroke:none"
                 id="path4268"
                 inkscape:connector-curvature="0" /><path
                 d="m 872.637,216.281 6.793,0.864 c 0.371,-2.711 1.48,-4.809 3.211,-6.165 1.726,-1.476 4.199,-2.218 7.41,-2.218 3.211,0 5.554,0.617 7.039,1.972 1.605,1.235 2.344,2.711 2.344,4.438 0,1.601 -0.739,2.832 -2.098,3.695 -0.863,0.617 -3.336,1.356 -7.039,2.344 -5.063,1.23 -8.645,2.34 -10.621,3.328 -1.977,0.859 -3.457,2.215 -4.446,3.82 -0.988,1.602 -1.484,3.45 -1.484,5.422 0,1.848 0.371,3.449 1.238,5.051 0.864,1.481 1.973,2.836 3.457,3.82 0.989,0.739 2.469,1.481 4.321,1.973 1.855,0.617 3.953,0.863 6.051,0.863 3.21,0 6.054,-0.492 8.398,-1.355 2.473,-0.988 4.199,-2.219 5.434,-3.699 1.113,-1.602 1.855,-3.696 2.347,-6.286 l -6.793,-0.859 c -0.246,2.094 -1.234,3.695 -2.715,4.805 -1.484,1.109 -3.461,1.726 -6.175,1.726 -3.211,0 -5.434,-0.496 -6.793,-1.605 -1.36,-0.985 -2.098,-2.215 -2.098,-3.57 0,-0.989 0.246,-1.727 0.863,-2.465 0.492,-0.742 1.481,-1.356 2.594,-1.852 0.742,-0.246 2.715,-0.738 6.176,-1.723 4.937,-1.234 8.273,-2.343 10.25,-3.207 1.976,-0.859 3.457,-1.968 4.566,-3.574 1.113,-1.601 1.606,-3.57 1.606,-5.914 0,-2.219 -0.618,-4.437 -1.973,-6.406 -1.359,-2.098 -3.336,-3.699 -5.805,-4.809 -2.593,-1.109 -5.433,-1.601 -8.644,-1.601 -5.313,0 -9.387,1.109 -12.106,3.328 -2.715,2.219 -4.566,5.547 -5.308,9.859"
                 style="fill:#010101;fill-opacity:1;fill-rule:evenodd;stroke:none"
                 id="path4270"
                 inkscape:connector-curvature="0" /><path
                 d="m 929.691,210.117 0.868,-6.039 c -1.977,-0.367 -3.707,-0.613 -5.188,-0.613 -2.594,0 -4.449,0.367 -5.93,1.23 -1.359,0.743 -2.347,1.848 -2.839,3.082 -0.618,1.231 -0.864,3.942 -0.864,8.133 v 23.414 h -5.066 v 5.301 h 5.066 v 10.105 l 6.914,4.067 v -14.172 h 7.039 v -5.301 h -7.039 v -23.781 c 0,-1.973 0.125,-3.207 0.371,-3.824 0.247,-0.614 0.618,-0.985 1.235,-1.356 0.496,-0.367 1.359,-0.492 2.347,-0.492 0.743,0 1.852,0.125 3.086,0.246"
                 style="fill:#010101;fill-opacity:1;fill-rule:evenodd;stroke:none"
                 id="path4272"
                 inkscape:connector-curvature="0" /><path
                 d="m 954.762,203.957 v 5.547 l 25.812,29.82 c -2.965,-0.121 -5.558,-0.246 -7.781,-0.246 h -16.547 v 5.547 h 33.219 v -4.559 l -21.981,-25.757 -4.199,-4.805 c 3.086,0.246 5.926,0.367 8.645,0.367 h 18.769 v -5.914 h -35.937"
                 style="fill:#010101;fill-opacity:1;fill-rule:evenodd;stroke:none"
                 id="path4274"
                 inkscape:connector-curvature="0" /><path
                 d="m 995.145,224.289 c 0,7.52 2.101,13.066 6.305,16.641 3.45,3.078 7.78,4.558 12.71,4.558 5.56,0 10.13,-1.847 13.71,-5.422 3.58,-3.699 5.31,-8.75 5.31,-15.16 0,-5.297 -0.74,-9.363 -2.34,-12.324 -1.61,-3.078 -3.83,-5.297 -6.8,-7.023 -3.08,-1.602 -6.29,-2.465 -9.88,-2.465 -5.68,0 -10.25,1.847 -13.7,5.422 -3.585,3.699 -5.315,8.875 -5.315,15.773 z m 7.035,0 c 0,-5.176 1.12,-9.117 3.46,-11.707 2.23,-2.586 5.07,-3.82 8.52,-3.82 3.46,0 6.3,1.355 8.53,3.945 2.34,2.586 3.45,6.531 3.45,11.832 0,5.051 -1.11,8.871 -3.45,11.461 -2.23,2.586 -5.07,3.82 -8.53,3.82 -3.45,0 -6.29,-1.234 -8.52,-3.82 -2.34,-2.59 -3.46,-6.535 -3.46,-11.711"
                 style="fill:#010101;fill-opacity:1;fill-rule:evenodd;stroke:none"
                 id="path4276"
                 inkscape:connector-curvature="0" /><path
                 d="m 1041.09,203.957 v 40.668 h 6.17 v -5.793 c 2.97,4.438 7.29,6.656 12.97,6.656 2.34,0 4.69,-0.492 6.67,-1.355 2.1,-0.863 3.58,-1.973 4.69,-3.453 0.99,-1.356 1.73,-3.078 2.1,-5.051 0.25,-1.234 0.37,-3.574 0.37,-6.656 v -25.016 h -6.92 v 24.77 c 0,2.836 -0.24,4.929 -0.73,6.285 -0.62,1.355 -1.49,2.465 -2.85,3.328 -1.35,0.863 -2.96,1.23 -4.81,1.23 -2.96,0 -5.44,-0.984 -7.54,-2.832 -2.1,-1.847 -3.21,-5.422 -3.21,-10.597 v -22.184 h -6.91"
                 style="fill:#010101;fill-opacity:1;fill-rule:evenodd;stroke:none"
                 id="path4278"
                 inkscape:connector-curvature="0" /><path
                 d="m 1112.22,217.02 7.17,-0.864 c -1.12,-4.187 -3.21,-7.394 -6.18,-9.613 -3.09,-2.34 -7.04,-3.449 -11.73,-3.449 -5.93,0 -10.62,1.847 -14.2,5.422 -3.46,3.699 -5.19,8.875 -5.19,15.406 0,6.902 1.73,12.199 5.31,15.898 3.46,3.821 8.03,5.668 13.71,5.668 5.43,0 9.88,-1.847 13.34,-5.547 3.45,-3.695 5.18,-8.871 5.18,-15.527 0,-0.371 0,-0.984 0,-1.848 h -30.5 c 0.25,-4.437 1.48,-7.886 3.83,-10.23 2.22,-2.34 5.06,-3.574 8.52,-3.574 2.59,0 4.69,0.617 6.54,1.972 1.73,1.356 3.21,3.45 4.2,6.286 z m -22.72,11.214 h 22.84 c -0.24,3.45 -1.23,5.914 -2.59,7.641 -2.22,2.59 -5.06,3.945 -8.64,3.945 -3.22,0 -5.81,-1.109 -8.03,-3.207 -2.1,-2.093 -3.33,-4.804 -3.58,-8.379"
                 style="fill:#010101;fill-opacity:1;fill-rule:evenodd;stroke:none"
                 id="path4280"
                 inkscape:connector-curvature="0" /><path
                 d="M 782.977,392.387 H 1118.77 L 1006.26,280.609 H 670.469 l 112.508,111.778"
                 style="fill:#ccccff;fill-opacity:1;fill-rule:evenodd;stroke:none"
                 id="path4282"
                 inkscape:connector-curvature="0" /><g
                 id="g4284"
                 transform="scale(1.00106,0.998941)"><path
                   d="M 782.149,392.803 H 1117.58 L 1005.2,280.907 H 669.76 Z"
                   style="fill:none;stroke:#010101;stroke-width:10.28291798;stroke-linecap:butt;stroke-linejoin:round;stroke-miterlimit:10;stroke-dasharray:none;stroke-opacity:1"
                   id="path4286"
                   inkscape:connector-curvature="0" /></g><path
                 d="m 864.609,317.211 0.864,-6.039 c -1.977,-0.367 -3.703,-0.617 -5.188,-0.617 -2.594,0 -4.445,0.371 -5.926,1.234 -1.359,0.738 -2.347,1.848 -2.839,3.082 -0.618,1.231 -0.868,3.942 -0.868,8.133 v 23.414 h -5.062 v 5.301 h 5.062 v 10.105 l 6.918,4.067 v -14.172 h 7.039 v -5.301 h -7.039 v -23.785 c 0,-1.973 0.121,-3.203 0.371,-3.82 0.247,-0.618 0.618,-0.985 1.235,-1.356 0.492,-0.367 1.359,-0.492 2.344,-0.492 0.742,0 1.855,0.125 3.089,0.246"
                 style="fill:#010101;fill-opacity:1;fill-rule:evenodd;stroke:none"
                 id="path4288"
                 inkscape:connector-curvature="0" /><path
                 d="m 871.523,359.234 v 7.887 h 6.918 v -7.887 z m 0,-48.183 v 40.668 h 6.918 v -40.668 h -6.918"
                 style="fill:#010101;fill-opacity:1;fill-rule:evenodd;stroke:none"
                 id="path4290"
                 inkscape:connector-curvature="0" /><path
                 d="m 888.691,311.051 h 6.91406 v 56.0703 H 888.691 Z"
                 style="fill:#010101;fill-opacity:1;fill-rule:evenodd;stroke:none"
                 id="path4292"
                 inkscape:connector-curvature="0" /><path
                 d="m 933.77,324.113 7.16,-0.863 c -1.11,-4.191 -3.211,-7.395 -6.176,-9.613 -3.086,-2.34 -7.039,-3.449 -11.731,-3.449 -5.929,0 -10.621,1.847 -14.203,5.421 -3.457,3.696 -5.187,8.871 -5.187,15.407 0,6.898 1.73,12.199 5.312,15.894 3.457,3.82 8.028,5.672 13.707,5.672 5.434,0 9.879,-1.852 13.34,-5.547 3.457,-3.699 5.184,-8.875 5.184,-15.527 0,-0.371 0,-0.988 0,-1.852 h -30.504 c 0.25,-4.433 1.484,-7.886 3.828,-10.226 2.227,-2.34 5.066,-3.575 8.523,-3.575 2.594,0 4.692,0.618 6.547,1.973 1.727,1.356 3.211,3.449 4.2,6.285 z m -22.727,11.215 h 22.848 c -0.246,3.449 -1.235,5.914 -2.594,7.641 -2.223,2.586 -5.063,3.941 -8.645,3.941 -3.211,0 -5.804,-1.109 -8.027,-3.203 -2.098,-2.094 -3.336,-4.805 -3.582,-8.379"
                 style="fill:#010101;fill-opacity:1;fill-rule:evenodd;stroke:none"
                 id="path4294"
                 inkscape:connector-curvature="0" /><g
                 id="g4296"
                 transform="scale(1.00106,0.998941)"><path
                   d="M 997.054,607.213 H 1977.45 L 1650.16,281.032 h -980.4 z"
                   style="fill:none;stroke:#010101;stroke-width:10.28291798;stroke-linecap:butt;stroke-linejoin:round;stroke-miterlimit:10;stroke-dasharray:none;stroke-opacity:1"
                   id="path4298"
                   inkscape:connector-curvature="0" /></g><g
                 id="g4300"
                 transform="scale(1.00106,0.998941)"><path
                   d="M 789.676,392.803 H 1767.24"
                   style="fill:none;stroke:#010101;stroke-width:10.28291798;stroke-linecap:butt;stroke-linejoin:round;stroke-miterlimit:10;stroke-dasharray:none;stroke-opacity:1"
                   id="path4302"
                   inkscape:connector-curvature="0" /></g><g
                 id="g4304"
                 transform="scale(1.00106,0.998941)"><path
                   d="M 902.677,509.137 H 1877.16"
                   style="fill:none;stroke:#010101;stroke-width:10.28291798;stroke-linecap:butt;stroke-linejoin:round;stroke-miterlimit:10;stroke-dasharray:none;stroke-opacity:1"
                   id="path4306"
                   inkscape:connector-curvature="0" /></g><g
                 id="g4308"
                 transform="scale(1.00106,0.998941)"><path
                   d="m 1005.32,281.032 327.66,326.06"
                   style="fill:none;stroke:#010101;stroke-width:10.28291798;stroke-linecap:butt;stroke-linejoin:round;stroke-miterlimit:10;stroke-dasharray:none;stroke-opacity:1"
                   id="path4310"
                   inkscape:connector-curvature="0" /></g><g
                 id="g4312"
                 transform="scale(1.00106,0.998941)"><path
                   d="m 1309.3,281.032 332.47,326.553"
                   style="fill:none;stroke:#010101;stroke-width:10.28291798;stroke-linecap:butt;stroke-linejoin:round;stroke-miterlimit:10;stroke-dasharray:none;stroke-opacity:1"
                   id="path4314"
                   inkscape:connector-curvature="0" /></g><path
                 d="M 733.699,604.105 H 1264.13 L 1086.29,427.754 H 555.988 l 177.711,176.351"
                 style="fill:#ccccff;fill-opacity:1;fill-rule:evenodd;stroke:none"
                 id="path4316"
                 inkscape:connector-curvature="0" /><g
                 id="g4318"
                 transform="scale(1.00106,0.998941)"><path
                   d="M 732.923,604.746 H 1262.79 L 1085.14,428.207 H 555.4 Z"
                   style="fill:none;stroke:#010101;stroke-width:10.28291798;stroke-linecap:butt;stroke-linejoin:round;stroke-miterlimit:10;stroke-dasharray:none;stroke-opacity:1"
                   id="path4320"
                   inkscape:connector-curvature="0" /></g><path
                 d="M 751.359,686.305 H 1180.76 L 1041.46,544.707 H 612.18 l 139.179,141.598"
                 style="fill:#ccccff;fill-opacity:1;fill-rule:evenodd;stroke:none"
                 id="path4322"
                 inkscape:connector-curvature="0" /><g
                 id="g4324"
                 transform="scale(1.00106,0.998941)"><path
                   d="M 750.565,687.032 H 1179.51 L 1040.36,545.284 H 611.532 Z"
                   style="fill:none;stroke:#010101;stroke-width:10.28291798;stroke-linecap:butt;stroke-linejoin:round;stroke-miterlimit:10;stroke-dasharray:none;stroke-opacity:1"
                   id="path4326"
                   inkscape:connector-curvature="0" /></g><g
                 id="g4328"
                 transform="scale(1.00106,0.998941)"><path
                   d="M 1111.05,762.78 1425.88,445.972"
                   style="fill:none;stroke:#010101;stroke-width:10.28291798;stroke-linecap:butt;stroke-linejoin:round;stroke-miterlimit:10;stroke-dasharray:6.29173, 6.29173, 6.29173, 6.29173;stroke-dashoffset:0;stroke-opacity:1"
                   id="path4330"
                   inkscape:connector-curvature="0" /></g><g
                 id="g4332"
                 transform="scale(1.00106,0.998941)"><path
                   d="M 1005.32,654.095 1174.21,193.193"
                   style="fill:none;stroke:#010101;stroke-width:10.28291798;stroke-linecap:butt;stroke-linejoin:round;stroke-miterlimit:10;stroke-dasharray:6.29173, 6.29173, 6.29173, 6.29173;stroke-dashoffset:0;stroke-opacity:1"
                   id="path4334"
                   inkscape:connector-curvature="0" /></g><g
                 id="g4336"
                 transform="scale(1.00106,0.998941)"><path
                   d="M 413.527,193.193 679.261,654.095"
                   style="fill:none;stroke:#010101;stroke-width:10.28291798;stroke-linecap:butt;stroke-linejoin:round;stroke-miterlimit:10;stroke-dasharray:6.29173, 6.29173, 6.29173, 6.29173;stroke-dashoffset:0;stroke-opacity:1"
                   id="path4338"
                   inkscape:connector-curvature="0" /></g><path
                 d="m 282.934,88.6055 v 7.8906 h 6.914 v -7.8906 z m 0,-48.1836 v 40.6679 h 6.914 V 40.4219 h -6.914"
                 style="fill:#010101;fill-opacity:1;fill-rule:evenodd;stroke:none"
                 id="path4340"
                 inkscape:connector-curvature="0" /><path
                 d="m 366.664,1025.45 18.527,-55.454 h -37.05 l 18.523,55.454"
                 style="fill:#010101;fill-opacity:1;fill-rule:evenodd;stroke:none"
                 id="path4342"
                 inkscape:connector-curvature="0" /><g
                 id="g4344"
                 transform="scale(1.00106,0.998941)"><path
                   d="m 366.155,27.8811 0.121,954.2449"
                   style="fill:none;stroke:#010101;stroke-width:0.123367;stroke-linecap:butt;stroke-linejoin:miter;stroke-miterlimit:10;stroke-dasharray:none;stroke-opacity:1"
                   id="path4346"
                   inkscape:connector-curvature="0" /></g><path
                 d="m 122.758,940.297 h 6.91406 v 56.0703 H 122.758 Z"
                 style="fill:#010101;fill-opacity:1;fill-rule:evenodd;stroke:none"
                 id="path4348"
                 inkscape:connector-curvature="0" /><path
                 d="m 137.578,960.629 c 0,7.519 2.098,13.062 6.297,16.637 3.457,3.082 7.781,4.562 12.719,4.562 5.558,0 10.129,-1.851 13.711,-5.422 3.582,-3.699 5.308,-8.75 5.308,-15.16 0,-5.301 -0.742,-9.367 -2.347,-12.324 -1.606,-3.082 -3.828,-5.297 -6.789,-7.024 -3.09,-1.601 -6.301,-2.464 -9.883,-2.464 -5.68,0 -10.25,1.847 -13.707,5.421 -3.582,3.7 -5.309,8.875 -5.309,15.774 z m 7.039,0 c 0,-5.176 1.11,-9.117 3.457,-11.707 2.223,-2.586 5.063,-3.82 8.52,-3.82 3.461,0 6.301,1.355 8.523,3.945 2.348,2.586 3.457,6.531 3.457,11.828 0,5.055 -1.109,8.875 -3.457,11.461 -2.222,2.59 -5.062,3.82 -8.523,3.82 -3.457,0 -6.297,-1.23 -8.52,-3.82 -2.347,-2.586 -3.457,-6.531 -3.457,-11.707"
                 style="fill:#010101;fill-opacity:1;fill-rule:evenodd;stroke:none"
                 id="path4350"
                 inkscape:connector-curvature="0" /><path
                 d="m 180.926,960.629 c 0,7.519 2.097,13.062 6.297,16.637 3.457,3.082 7.781,4.562 12.718,4.562 5.559,0 10.129,-1.851 13.711,-5.422 3.582,-3.699 5.309,-8.75 5.309,-15.16 0,-5.301 -0.738,-9.367 -2.344,-12.324 -1.605,-3.082 -3.832,-5.297 -6.793,-7.024 -3.09,-1.601 -6.301,-2.464 -9.883,-2.464 -5.679,0 -10.25,1.847 -13.707,5.421 -3.582,3.7 -5.308,8.875 -5.308,15.774 z m 7.039,0 c 0,-5.176 1.109,-9.117 3.457,-11.707 2.223,-2.586 5.062,-3.82 8.519,-3.82 3.461,0 6.301,1.355 8.524,3.945 2.348,2.586 3.457,6.531 3.457,11.828 0,5.055 -1.109,8.875 -3.457,11.461 -2.223,2.59 -5.063,3.82 -8.524,3.82 -3.457,0 -6.296,-1.23 -8.519,-3.82 -2.348,-2.586 -3.457,-6.531 -3.457,-11.707"
                 style="fill:#010101;fill-opacity:1;fill-rule:evenodd;stroke:none"
                 id="path4352"
                 inkscape:connector-curvature="0" /><path
                 d="m 226.742,924.77 v 56.195 h 6.297 v -5.301 c 1.484,1.973 3.211,3.574 5.066,4.563 1.852,1.105 4.075,1.601 6.79,1.601 3.46,0 6.546,-0.863 9.265,-2.711 2.594,-1.726 4.692,-4.316 6.051,-7.519 1.359,-3.203 1.977,-6.778 1.977,-10.723 0,-4.066 -0.743,-7.887 -2.223,-11.09 -1.485,-3.328 -3.707,-5.914 -6.547,-7.64 -2.84,-1.848 -5.93,-2.711 -9.016,-2.711 -2.347,0 -4.445,0.492 -6.175,1.48 -1.852,0.984 -3.332,2.215 -4.571,3.695 V 924.77 Z m 6.051,35.613 c 0,-5.176 1.113,-8.996 3.211,-11.582 2.223,-2.465 4.816,-3.699 7.781,-3.699 3.211,0 5.805,1.234 8.028,3.82 2.222,2.59 3.335,6.656 3.335,12.078 0,5.176 -1.113,8.996 -3.21,11.586 -2.227,2.586 -4.817,3.82 -7.782,3.82 -2.965,0 -5.683,-1.355 -7.906,-4.07 -2.344,-2.711 -3.457,-6.777 -3.457,-11.953"
                 style="fill:#010101;fill-opacity:1;fill-rule:evenodd;stroke:none"
                 id="path4354"
                 inkscape:connector-curvature="0" /><path
                 d="m 267.621,952.621 6.793,0.863 c 0.367,-2.714 1.481,-4.808 3.211,-6.164 1.727,-1.48 4.195,-2.218 7.406,-2.218 3.211,0 5.559,0.617 7.043,1.972 1.606,1.231 2.344,2.711 2.344,4.438 0,1.601 -0.738,2.832 -2.098,3.695 -0.867,0.617 -3.336,1.356 -7.039,2.344 -5.066,1.23 -8.644,2.34 -10.621,3.324 -1.976,0.863 -3.457,2.219 -4.445,3.82 -0.988,1.606 -1.485,3.453 -1.485,5.426 0,1.848 0.372,3.449 1.235,5.051 0.867,1.48 1.976,2.836 3.461,3.82 0.988,0.738 2.469,1.481 4.32,1.973 1.852,0.617 3.953,0.863 6.051,0.863 3.211,0 6.051,-0.496 8.398,-1.355 2.469,-0.989 4.2,-2.219 5.434,-3.7 1.113,-1.601 1.851,-3.695 2.348,-6.285 l -6.793,-0.863 c -0.246,2.098 -1.235,3.699 -2.715,4.809 -1.485,1.109 -3.461,1.722 -6.176,1.722 -3.211,0 -5.434,-0.492 -6.793,-1.601 -1.359,-0.985 -2.102,-2.219 -2.102,-3.575 0,-0.984 0.25,-1.722 0.868,-2.464 0.492,-0.739 1.48,-1.356 2.593,-1.848 0.739,-0.246 2.715,-0.738 6.172,-1.723 4.942,-1.234 8.278,-2.343 10.254,-3.207 1.973,-0.863 3.457,-1.972 4.567,-3.574 1.113,-1.601 1.605,-3.574 1.605,-5.914 0,-2.219 -0.617,-4.437 -1.977,-6.41 -1.355,-2.094 -3.332,-3.695 -5.8,-4.805 -2.594,-1.109 -5.438,-1.601 -8.649,-1.601 -5.308,0 -9.383,1.109 -12.101,3.328 -2.715,2.218 -4.571,5.543 -5.309,9.859"
                 style="fill:#010101;fill-opacity:1;fill-rule:evenodd;stroke:none"
                 id="path4356"
                 inkscape:connector-curvature="0" /><path
                 d="m 73.7266,486.539 -0.8633,6.777 c 2.7187,0.372 4.8164,1.481 6.1758,3.204 1.4804,1.726 2.2226,4.191 2.2226,7.394 0,3.203 -0.6172,5.547 -1.9765,7.027 -1.2344,1.602 -2.7149,2.34 -4.4454,2.34 -1.6054,0 -2.8398,-0.738 -3.707,-2.093 -0.6172,-0.864 -1.3555,-3.329 -2.3437,-7.028 -1.2344,-5.051 -2.3477,-8.625 -3.336,-10.597 -0.8633,-1.973 -2.2226,-3.45 -3.8281,-4.438 -1.6055,-0.984 -3.457,-1.477 -5.4336,-1.477 -1.8516,0 -3.457,0.368 -5.0625,1.231 -1.4844,0.863 -2.8398,1.973 -3.8281,3.453 -0.7422,0.984 -1.4844,2.465 -1.9766,4.313 -0.6172,1.847 -0.8633,3.941 -0.8633,6.039 0,3.203 0.4922,6.039 1.3555,8.379 0.9883,2.464 2.2227,4.191 3.707,5.421 1.6055,1.11 3.7032,1.848 6.2969,2.344 l 0.8633,-6.781 c -2.0977,-0.246 -3.7031,-1.231 -4.8164,-2.711 -1.1094,-1.477 -1.7266,-3.449 -1.7266,-6.16 0,-3.203 0.4922,-5.422 1.6055,-6.778 0.9883,-1.355 2.2227,-2.097 3.582,-2.097 0.9883,0 1.7266,0.25 2.4688,0.863 0.7422,0.492 1.3594,1.481 1.8515,2.59 0.2461,0.738 0.7422,2.711 1.7305,6.16 1.2344,4.93 2.3477,8.258 3.2109,10.231 0.8633,1.972 1.9766,3.449 3.5821,4.558 1.6054,1.11 3.582,1.602 5.9258,1.602 2.2226,0 4.4453,-0.617 6.4218,-1.973 2.1016,-1.355 3.7071,-3.324 4.8164,-5.789 1.1133,-2.59 1.6055,-5.426 1.6055,-8.629 0,-5.297 -1.1094,-9.363 -3.332,-12.078 -2.2227,-2.711 -5.5586,-4.559 -9.8828,-5.297"
                 style="fill:#010101;fill-opacity:1;fill-rule:evenodd;stroke:none"
                 id="path4358"
                 inkscape:connector-curvature="0" /><path
                 d="m 79.9023,543.473 6.0508,0.863 c 0.3711,-1.973 0.6172,-3.695 0.6172,-5.176 0,-2.586 -0.3672,-4.437 -1.2344,-5.914 -0.7382,-1.355 -1.8515,-2.344 -3.0859,-2.836 -1.2344,-0.617 -3.9531,-0.863 -8.1523,-0.863 H 50.6328 v -5.051 h -5.3086 v 5.051 H 35.1953 l -4.0742,6.902 h 14.2031 v 7.024 h 5.3086 v -7.024 h 23.836 c 1.9765,0 3.2109,0.125 3.8281,0.371 0.6172,0.246 0.9883,0.614 1.3594,1.231 0.371,0.492 0.4921,1.355 0.4921,2.344 0,0.738 -0.1211,1.847 -0.2461,3.078"
                 style="fill:#010101;fill-opacity:1;fill-rule:evenodd;stroke:none"
                 id="path4360"
                 inkscape:connector-curvature="0" /><path
                 d="m 81.0156,576.746 c 2.2227,-2.465 3.7032,-4.805 4.5703,-7.269 0.8633,-2.34 1.3555,-4.93 1.3555,-7.641 0,-4.438 -1.1094,-7.887 -3.2109,-10.352 -2.2227,-2.339 -5.0625,-3.574 -8.3985,-3.574 -1.9726,0 -3.8281,0.492 -5.4336,1.356 -1.6054,0.863 -2.9609,2.093 -3.9492,3.574 -0.9883,1.48 -1.7304,3.203 -2.2226,5.055 -0.3711,1.355 -0.7422,3.324 -1.1133,6.035 -0.6172,5.672 -1.4805,9.738 -2.3477,12.449 -0.9883,0 -1.6054,0 -1.8515,0 -2.8399,0 -4.8164,-0.617 -5.9258,-1.973 -1.6055,-1.726 -2.3477,-4.312 -2.3477,-7.765 0,-3.203 0.6172,-5.668 1.7266,-7.145 1.1133,-1.601 3.0898,-2.711 5.9297,-3.453 l -0.8633,-6.898 c -2.8398,0.613 -5.1875,1.601 -6.918,3.078 -1.8515,1.355 -3.2109,3.328 -4.0742,6.039 -0.9883,2.59 -1.4805,5.668 -1.4805,9.242 0,3.453 0.3672,6.285 1.2344,8.383 0.7383,2.215 1.8516,3.82 3.086,4.804 1.2343,0.985 2.7187,1.727 4.6914,2.094 1.1132,0.246 3.2109,0.371 6.3007,0.371 h 9.1368 c 6.4218,0 10.5,0.125 12.2265,0.371 1.7305,0.368 3.336,0.86 4.9414,1.723 v -7.023 c -1.4804,-0.739 -3.0859,-1.231 -5.0625,-1.481 z m -15.3164,-0.367 c 0.9883,-2.465 1.8555,-6.285 2.5938,-11.34 0.3711,-2.832 0.8672,-4.805 1.3593,-6.039 0.4961,-1.23 1.2344,-2.094 2.2227,-2.711 0.9883,-0.613 2.1016,-0.984 3.2109,-0.984 1.8516,0 3.336,0.738 4.5704,2.093 1.2343,1.356 1.8515,3.454 1.8515,6.165 0,2.585 -0.6172,5.05 -1.7265,7.148 -1.2383,1.969 -2.7188,3.57 -4.8165,4.559 -1.4843,0.738 -3.707,1.109 -6.7929,1.109 h -2.4727"
                 style="fill:#010101;fill-opacity:1;fill-rule:evenodd;stroke:none"
                 id="path4362"
                 inkscape:connector-curvature="0" /><path
                 d="m 89.4141,592.398 0.8632,6.657 c 2.0977,0.246 3.5821,0.984 4.5704,2.34 1.3554,1.726 1.9765,4.066 1.9765,7.023 0,3.207 -0.6211,5.672 -1.8554,7.395 -1.3555,1.726 -3.086,2.96 -5.4336,3.574 -1.3594,0.246 -4.3204,0.492 -8.7657,0.492 3.5782,-3.078 5.3086,-6.777 5.3086,-11.336 0,-5.547 -1.9765,-9.859 -6.0508,-12.941 -4.0742,-3.079 -8.8945,-4.559 -14.5742,-4.559 -3.8281,0 -7.4101,0.617 -10.7422,2.094 -3.2109,1.355 -5.8046,3.453 -7.5351,6.039 -1.8516,2.711 -2.7149,5.793 -2.7149,9.367 0,4.805 1.9727,8.75 5.9258,11.953 h -5.0625 v 6.285 h 35.1953 c 6.3008,0 10.7461,-0.738 13.461,-1.972 2.5937,-1.231 4.6953,-3.325 6.1755,-6.161 1.606,-2.71 2.348,-6.16 2.348,-10.23 0,-4.805 -1.113,-8.75 -3.211,-11.707 -2.2227,-3.078 -5.5586,-4.434 -9.8789,-4.313 z m -24.4532,5.668 c 5.4336,0 9.2618,0.989 11.7305,3.207 2.4727,2.094 3.707,4.68 3.707,7.887 0,3.203 -1.2343,5.914 -3.707,8.008 -2.3476,2.219 -6.2969,3.328 -11.4844,3.328 -4.9414,0 -8.7695,-1.109 -11.2382,-3.328 -2.5938,-2.215 -3.8282,-4.93 -3.8282,-8.008 0,-3.082 1.2344,-5.793 3.7032,-7.887 2.5937,-2.218 6.3007,-3.207 11.1171,-3.207"
                 style="fill:#010101;fill-opacity:1;fill-rule:evenodd;stroke:none"
                 id="path4364"
                 inkscape:connector-curvature="0" /><path
                 d="m 72.9883,664.617 0.8633,7.145 c 4.1992,-1.11 7.4101,-3.203 9.6328,-6.16 2.3476,-3.082 3.457,-7.024 3.457,-11.707 0,-5.915 -1.8516,-10.598 -5.4336,-14.172 -3.7031,-3.453 -8.8906,-5.176 -15.4375,-5.176 -6.914,0 -12.2265,1.723 -15.9297,5.297 -3.8281,3.453 -5.6797,8.011 -5.6797,13.679 0,5.422 1.8516,9.86 5.5547,13.309 3.7071,3.453 8.8946,5.18 15.5625,5.18 0.3711,0 0.9883,0 1.8516,0 V 641.57 c 4.4453,0.246 7.9023,1.481 10.25,3.821 2.3476,2.218 3.582,5.054 3.582,8.504 0,2.585 -0.6172,4.683 -1.9765,6.531 -1.3594,1.726 -3.4571,3.203 -6.2969,4.191 z M 61.75,641.941 v 22.797 c -3.4609,-0.246 -5.9297,-1.23 -7.6562,-2.586 -2.5938,-2.218 -3.9532,-5.054 -3.9532,-8.629 0,-3.203 1.1094,-5.793 3.211,-8.007 2.0976,-2.098 4.8164,-3.328 8.3984,-3.575"
                 style="fill:#010101;fill-opacity:1;fill-rule:evenodd;stroke:none"
                 id="path4366"
                 inkscape:connector-curvature="0" /><g
                 id="g4368"
                 transform="scale(1.00106,0.998941)"><path
                   d="m 167.779,752.789 c -12.338,0 -24.548,-14.558 -24.548,-29.117 V 606.72 c 0,-14.558 -12.338,-29.238 -24.552,-29.238 12.214,0 24.552,-14.558 24.552,-29.112 V 431.414 c 0,-14.555 12.21,-29.238 24.548,-29.238"
                   style="fill:none;stroke:#010101;stroke-width:10.28291798;stroke-linecap:butt;stroke-linejoin:round;stroke-miterlimit:10;stroke-dasharray:none;stroke-opacity:1"
                   id="path4370"
                   inkscape:connector-curvature="0" /></g><path
                 d="m 211.059,212.461 v 7.887 h 6.914 v -7.887 z m 0,-48.188 v 40.668 h 6.914 v -40.668 h -6.914"
                 style="fill:#010101;fill-opacity:1;fill-rule:evenodd;stroke:none"
                 id="path4372"
                 inkscape:connector-curvature="0" /><path
                 d="m 242.922,173.148 v 15.403 h -15.438 v 6.41 h 15.438 v 15.402 h 6.543 v -15.402 h 15.437 v -6.41 h -15.437 v -15.403 h -6.543"
                 style="fill:#010101;fill-opacity:1;fill-rule:evenodd;stroke:none"
                 id="path4374"
                 inkscape:connector-curvature="0" /><path
                 d="m 298.246,164.273 h -6.914 v 43.875 c -1.605,-1.605 -3.828,-3.207 -6.547,-4.683 -2.594,-1.602 -5.062,-2.836 -7.16,-3.574 v 6.652 c 3.828,1.727 7.16,3.945 10.125,6.535 2.84,2.586 4.816,5.051 6.051,7.516 h 4.445 v -56.321"
                 style="fill:#010101;fill-opacity:1;fill-rule:evenodd;stroke:none"
                 id="path4376"
                 inkscape:connector-curvature="0" /><path
                 d="m 204.512,329.781 v 7.887 h 6.918 v -7.887 z m 0,-48.183 v 40.668 h 6.918 v -40.668 h -6.918"
                 style="fill:#010101;fill-opacity:1;fill-rule:evenodd;stroke:none"
                 id="path4378"
                 inkscape:connector-curvature="0" /><path
                 d="m 236.375,290.469 v 15.406 h -15.437 v 6.406 h 15.437 v 15.407 h 6.547 v -15.407 h 15.437 v -6.406 h -15.437 v -15.406 h -6.547"
                 style="fill:#010101;fill-opacity:1;fill-rule:evenodd;stroke:none"
                 id="path4380"
                 inkscape:connector-curvature="0" /><path
                 d="m 302.074,288.25 v -6.652 h -37.172 c 0,1.601 0.246,3.203 0.864,4.804 0.867,2.465 2.347,4.93 4.449,7.395 2.098,2.465 5.062,5.297 9.015,8.504 6.172,5.051 10.25,8.996 12.473,11.953 2.098,2.836 3.211,5.668 3.211,8.258 0,2.711 -0.988,5.051 -2.965,6.898 -1.976,1.852 -4.445,2.836 -7.656,2.836 -3.336,0 -5.93,-0.984 -7.906,-2.957 -2.098,-1.973 -3.086,-4.809 -3.086,-8.258 l -7.039,0.739 c 0.492,5.3 2.347,9.246 5.433,11.957 3.211,2.832 7.41,4.187 12.719,4.187 5.434,0 9.633,-1.476 12.844,-4.434 3.09,-2.96 4.695,-6.656 4.695,-11.093 0,-2.219 -0.496,-4.438 -1.359,-6.653 -0.989,-2.097 -2.469,-4.437 -4.571,-6.781 -2.097,-2.465 -5.679,-5.789 -10.621,-9.859 -4.074,-3.571 -6.793,-5.914 -7.902,-7.145 -1.234,-1.234 -2.223,-2.465 -2.965,-3.699 h 27.539"
                 style="fill:#010101;fill-opacity:1;fill-rule:evenodd;stroke:none"
                 id="path4382"
                 inkscape:connector-curvature="0" /><path
                 d="m 207.723,483.09 v 7.887 h 6.918 v -7.887 z m 0,-48.188 v 40.668 h 6.918 v -40.668 h -6.918"
                 style="fill:#010101;fill-opacity:1;fill-rule:evenodd;stroke:none"
                 id="path4384"
                 inkscape:connector-curvature="0" /><path
                 d="m 239.586,443.773 v 15.407 h -15.438 v 6.41 h 15.438 v 15.402 h 6.547 V 465.59 h 15.437 v -6.41 h -15.437 v -15.407 h -6.547"
                 style="fill:#010101;fill-opacity:1;fill-rule:evenodd;stroke:none"
                 id="path4386"
                 inkscape:connector-curvature="0" /><path
                 d="m 269.102,449.566 6.918,0.864 c 0.738,-3.821 2.097,-6.657 3.949,-8.258 1.976,-1.723 4.199,-2.586 7.039,-2.586 3.211,0 5.93,1.109 8.152,3.328 2.223,2.219 3.336,5.051 3.336,8.379 0,3.082 -0.988,5.793 -3.09,7.766 -2.097,2.093 -4.691,3.078 -7.902,3.078 -1.234,0 -2.84,-0.246 -4.816,-0.739 l 0.738,6.04 c 0.496,0 0.867,-0.125 1.113,-0.125 2.965,0 5.559,0.863 7.902,2.343 2.348,1.602 3.582,3.942 3.582,7.149 0,2.461 -0.863,4.558 -2.593,6.285 -1.727,1.601 -3.95,2.461 -6.668,2.461 -2.715,0 -4.942,-0.86 -6.793,-2.461 -1.727,-1.727 -2.965,-4.317 -3.457,-7.645 l -6.914,1.235 c 0.863,4.558 2.715,8.258 5.8,10.722 2.965,2.586 6.672,3.821 11.118,3.821 3.086,0 5.925,-0.618 8.519,-1.973 2.594,-1.355 4.57,-3.082 5.93,-5.422 1.359,-2.219 2.098,-4.683 2.098,-7.273 0,-2.34 -0.618,-4.559 -1.973,-6.532 -1.238,-2.093 -3.215,-3.574 -5.805,-4.804 3.332,-0.739 5.926,-2.34 7.778,-4.805 1.855,-2.344 2.718,-5.301 2.718,-8.996 0,-4.809 -1.73,-9 -5.312,-12.449 -3.578,-3.328 -8.149,-5.051 -13.582,-5.051 -4.942,0 -9.016,1.477 -12.227,4.312 -3.211,2.958 -5.062,6.653 -5.558,11.336"
                 style="fill:#010101;fill-opacity:1;fill-rule:evenodd;stroke:none"
                 id="path4388"
                 inkscape:connector-curvature="0" /><path
                 d="m 211.059,600.41 v 7.887 h 6.914 v -7.887 z m 0,-48.187 v 40.668 h 6.914 v -40.668 h -6.914"
                 style="fill:#010101;fill-opacity:1;fill-rule:evenodd;stroke:none"
                 id="path4390"
                 inkscape:connector-curvature="0" /><path
                 d="M 242.922,561.098 V 576.5 h -15.438 v 6.41 h 15.438 v 15.403 h 6.543 V 582.91 h 15.437 v -6.41 h -15.437 v -15.402 h -6.543"
                 style="fill:#010101;fill-opacity:1;fill-rule:evenodd;stroke:none"
                 id="path4392"
                 inkscape:connector-curvature="0" /><path
                 d="m 294.418,552.223 v 13.433 h -24.453 v 6.285 l 25.687,36.356 h 5.684 v -36.356 h 7.531 v -6.285 h -7.531 v -13.433 z m 0,19.718 v 25.266 l -17.66,-25.266 h 17.66"
                 style="fill:#010101;fill-opacity:1;fill-rule:evenodd;stroke:none"
                 id="path4394"
                 inkscape:connector-curvature="0" /><path
                 d="m 214.27,711.324 v 7.887 h 6.914 v -7.887 z m 0,-48.187 v 40.668 h 6.914 v -40.668 h -6.914"
                 style="fill:#010101;fill-opacity:1;fill-rule:evenodd;stroke:none"
                 id="path4396"
                 inkscape:connector-curvature="0" /><path
                 d="m 246.133,672.008 v 15.406 h -15.438 v 6.41 h 15.438 v 15.403 h 6.543 v -15.403 h 15.437 v -6.41 h -15.437 v -15.406 h -6.543"
                 style="fill:#010101;fill-opacity:1;fill-rule:evenodd;stroke:none"
                 id="path4398"
                 inkscape:connector-curvature="0" /><path
                 d="m 275.523,677.801 7.04,0.492 c 0.496,-3.449 1.851,-6.035 3.707,-7.887 1.972,-1.722 4.445,-2.586 7.285,-2.586 3.336,0 6.297,1.231 8.519,3.821 2.348,2.464 3.461,5.793 3.461,9.98 0,3.945 -1.113,7.027 -3.336,9.242 -2.097,2.344 -5.062,3.453 -8.769,3.453 -2.223,0 -4.321,-0.492 -6.051,-1.601 -1.727,-0.988 -3.211,-2.344 -4.199,-3.945 l -6.422,0.863 5.433,28.836 h 28.036 v -6.531 h -22.602 l -2.961,-15.036 c 3.332,2.344 6.914,3.453 10.621,3.453 4.938,0 9.137,-1.726 12.473,-5.054 3.332,-3.449 5.062,-7.762 5.062,-13.188 0,-5.05 -1.48,-9.488 -4.445,-13.183 -3.582,-4.563 -8.523,-6.778 -14.82,-6.778 -5.063,0 -9.262,1.477 -12.473,4.313 -3.211,2.832 -5.062,6.652 -5.559,11.336"
                 style="fill:#010101;fill-opacity:1;fill-rule:evenodd;stroke:none"
                 id="path4400"
                 inkscape:connector-curvature="0" /><path
                 d="m 434.836,456.961 6.051,0.863 c 0.371,-1.972 0.617,-3.695 0.617,-5.176 0,-2.589 -0.371,-4.437 -1.234,-5.914 -0.743,-1.355 -1.852,-2.343 -3.086,-2.836 -1.235,-0.617 -3.954,-0.863 -8.153,-0.863 h -23.465 v -5.051 h -5.308 v 5.051 h -10.129 l -4.074,6.903 h 14.203 v 7.023 h 5.308 v -7.023 h 23.836 c 1.977,0 3.211,0.121 3.828,0.371 0.618,0.246 0.989,0.613 1.36,1.23 0.371,0.492 0.492,1.356 0.492,2.344 0,0.738 -0.121,1.847 -0.246,3.078"
                 style="fill:#010101;fill-opacity:1;fill-rule:evenodd;stroke:none"
                 id="path4402"
                 inkscape:connector-curvature="0" /><path
                 d="m 441.012,463.738 h -40.754 v 6.164 h 6.297 c -2.965,1.602 -4.817,2.957 -5.805,4.313 -0.863,1.355 -1.359,2.836 -1.359,4.312 0,2.344 0.742,4.684 2.222,7.024 l 6.301,-2.34 c -0.863,-1.727 -1.359,-3.328 -1.359,-4.93 0,-1.476 0.496,-2.832 1.359,-3.941 0.863,-1.235 2.223,-2.098 3.828,-2.59 2.348,-0.738 5.063,-1.109 8.028,-1.109 h 21.242 v -6.903"
                 style="fill:#010101;fill-opacity:1;fill-rule:evenodd;stroke:none"
                 id="path4404"
                 inkscape:connector-curvature="0" /><path
                 d="m 435.949,516.363 c 2.223,-2.465 3.703,-4.808 4.567,-7.273 0.867,-2.34 1.359,-4.93 1.359,-7.641 0,-4.433 -1.109,-7.886 -3.211,-10.351 -2.223,-2.34 -5.062,-3.575 -8.398,-3.575 -1.977,0 -3.828,0.493 -5.434,1.356 -1.605,0.863 -2.965,2.098 -3.953,3.574 -0.984,1.481 -1.727,3.203 -2.223,5.055 -0.367,1.355 -0.738,3.328 -1.109,6.039 -0.617,5.668 -1.484,9.734 -2.348,12.445 -0.988,0 -1.605,0 -1.851,0 -2.84,0 -4.817,-0.617 -5.93,-1.972 -1.605,-1.723 -2.344,-4.313 -2.344,-7.762 0,-3.207 0.617,-5.672 1.727,-7.149 1.113,-1.601 3.09,-2.711 5.929,-3.453 l -0.863,-6.898 c -2.844,0.617 -5.187,1.601 -6.918,3.078 -1.851,1.359 -3.211,3.328 -4.074,6.039 -0.988,2.59 -1.484,5.672 -1.484,9.246 0,3.449 0.371,6.281 1.238,8.379 0.738,2.219 1.851,3.82 3.086,4.805 1.234,0.988 2.715,1.726 4.691,2.097 1.114,0.246 3.211,0.368 6.301,0.368 h 9.137 c 6.422,0 10.5,0.125 12.226,0.371 1.731,0.367 3.336,0.863 4.942,1.722 v -7.023 c -1.485,-0.738 -3.09,-1.231 -5.063,-1.477 z m -15.316,-0.371 c 0.988,-2.465 1.851,-6.285 2.594,-11.336 0.371,-2.836 0.863,-4.808 1.359,-6.039 0.492,-1.234 1.234,-2.097 2.223,-2.711 0.988,-0.617 2.097,-0.988 3.211,-0.988 1.851,0 3.335,0.738 4.57,2.098 1.234,1.355 1.851,3.449 1.851,6.16 0,2.586 -0.617,5.051 -1.73,7.148 -1.234,1.973 -2.715,3.574 -4.816,4.559 -1.481,0.738 -3.704,1.109 -6.79,1.109 h -2.472"
                 style="fill:#010101;fill-opacity:1;fill-rule:evenodd;stroke:none"
                 id="path4406"
                 inkscape:connector-curvature="0" /><path
                 d="m 456.57,533.121 h -56.312 v 6.285 h 5.308 c -1.976,1.481 -3.582,3.203 -4.57,5.055 -1.109,1.848 -1.605,4.066 -1.605,6.777 0,3.45 0.867,6.532 2.718,9.242 1.731,2.59 4.321,4.684 7.532,6.04 3.211,1.355 6.793,1.972 10.746,1.972 4.074,0 7.902,-0.742 11.113,-2.219 3.336,-1.48 5.93,-3.699 7.66,-6.531 1.852,-2.836 2.715,-5.918 2.715,-8.996 0,-2.344 -0.492,-4.437 -1.48,-6.164 -0.989,-1.848 -2.223,-3.328 -3.707,-4.559 h 19.882 z m -35.691,6.039 c 5.187,0 9.016,1.11 11.609,3.203 2.473,2.219 3.707,4.809 3.707,7.766 0,3.203 -1.234,5.793 -3.828,8.012 -2.594,2.214 -6.672,3.324 -12.105,3.324 -5.184,0 -9.016,-1.11 -11.606,-3.203 -2.593,-2.219 -3.832,-4.805 -3.832,-7.762 0,-2.961 1.36,-5.672 4.078,-7.891 2.715,-2.339 6.793,-3.449 11.977,-3.449"
                 style="fill:#010101;fill-opacity:1;fill-rule:evenodd;stroke:none"
                 id="path4408"
                 inkscape:connector-curvature="0" /><path
                 d="m 427.922,604.23 0.863,7.149 c 4.199,-1.109 7.41,-3.207 9.633,-6.164 2.348,-3.082 3.457,-7.024 3.457,-11.707 0,-5.914 -1.852,-10.598 -5.434,-14.172 -3.703,-3.449 -8.89,-5.176 -15.437,-5.176 -6.914,0 -12.227,1.727 -15.93,5.301 -3.828,3.449 -5.683,8.008 -5.683,13.676 0,5.426 1.855,9.859 5.558,13.312 3.707,3.449 8.891,5.176 15.563,5.176 0.367,0 0.988,0 1.851,0 v -30.441 c 4.446,0.246 7.903,1.48 10.25,3.82 2.348,2.219 3.582,5.055 3.582,8.504 0,2.59 -0.617,4.683 -1.976,6.531 -1.36,1.727 -3.457,3.203 -6.297,4.191 z m -11.238,-22.675 v 22.797 c -3.461,-0.247 -5.93,-1.231 -7.661,-2.586 -2.593,-2.219 -3.949,-5.055 -3.949,-8.629 0,-3.203 1.11,-5.789 3.211,-8.008 2.098,-2.098 4.817,-3.328 8.399,-3.574"
                 style="fill:#010101;fill-opacity:1;fill-rule:evenodd;stroke:none"
                 id="path4410"
                 inkscape:connector-curvature="0" /><path
                 d="m 441.012,616.184 h -5.559 l -29.887,25.757 c 0.125,-2.957 0.247,-5.546 0.247,-7.765 v -16.512 h -5.555 v 33.149 h 4.566 l 25.813,-21.934 4.816,-4.191 c -0.246,3.082 -0.371,5.914 -0.371,8.625 v 18.734 h 5.93 v -35.863"
                 style="fill:#010101;fill-opacity:1;fill-rule:evenodd;stroke:none"
                 id="path4412"
                 inkscape:connector-curvature="0" /><path
                 d="m 420.633,656.359 c -7.531,0 -13.09,2.094 -16.672,6.286 -3.086,3.449 -4.57,7.761 -4.57,12.691 0,5.547 1.855,10.105 5.433,13.68 3.707,3.574 8.77,5.3 15.192,5.3 5.312,0 9.386,-0.738 12.351,-2.343 3.086,-1.602 5.309,-3.821 7.039,-6.778 1.606,-3.078 2.469,-6.285 2.469,-9.859 0,-5.668 -1.852,-10.227 -5.434,-13.68 -3.703,-3.57 -8.89,-5.297 -15.808,-5.297 z m 0,7.024 c 5.187,0 9.14,1.109 11.734,3.449 2.594,2.219 3.828,5.055 3.828,8.504 0,3.453 -1.359,6.285 -3.953,8.504 -2.594,2.344 -6.547,3.453 -11.855,3.453 -5.063,0 -8.891,-1.109 -11.485,-3.453 -2.593,-2.219 -3.828,-5.051 -3.828,-8.504 0,-3.449 1.235,-6.285 3.828,-8.504 2.594,-2.34 6.543,-3.449 11.731,-3.449"
                 style="fill:#010101;fill-opacity:1;fill-rule:evenodd;stroke:none"
                 id="path4414"
                 inkscape:connector-curvature="0" /><path
                 d="m 392.723,702.203 h -7.903 v 6.902 h 7.903 z m 48.289,0 h -40.754 v 6.902 h 40.754 v -6.902"
                 style="fill:#010101;fill-opacity:1;fill-rule:evenodd;stroke:none"
                 id="path4416"
                 inkscape:connector-curvature="0" /><path
                 d="m 441.012,745.828 h -5.188 c 4.074,-2.586 6.051,-6.406 6.051,-11.461 0,-3.203 -0.863,-6.16 -2.715,-8.871 -1.73,-2.711 -4.199,-4.93 -7.41,-6.41 -3.211,-1.477 -6.918,-2.219 -11.117,-2.219 -4.074,0 -7.656,0.742 -10.992,2.098 -3.332,1.355 -5.801,3.324 -7.657,6.035 -1.726,2.711 -2.593,5.793 -2.593,9.121 0,2.465 0.496,4.559 1.605,6.531 0.988,1.973 2.348,3.45 3.953,4.684 H 384.82 v 6.902 h 56.192 z m -20.379,-21.937 c 5.187,0 9.14,1.109 11.734,3.328 2.594,2.219 3.828,4.808 3.828,7.886 0,3.083 -1.234,5.672 -3.707,7.766 -2.468,2.094 -6.172,3.203 -11.238,3.203 -5.555,0 -9.633,-1.109 -12.227,-3.203 -2.593,-2.219 -3.949,-4.93 -3.949,-8.133 0,-3.082 1.235,-5.668 3.703,-7.765 2.594,-2.094 6.547,-3.082 11.856,-3.082"
                 style="fill:#010101;fill-opacity:1;fill-rule:evenodd;stroke:none"
                 id="path4418"
                 inkscape:connector-curvature="0" /><g
                 id="g4420"
                 transform="scale(1.00106,0.998941)"><path
                   d="m 522.338,756.981 c -12.339,0 -24.552,-14.558 -24.552,-29.113 V 610.916 c 0,-14.558 -12.335,-29.238 -24.549,-29.238 12.214,0 24.549,-14.558 24.549,-29.117 V 435.61 c 0,-14.559 12.213,-29.238 24.552,-29.238"
                   style="fill:none;stroke:#010101;stroke-width:10.28291798;stroke-linecap:butt;stroke-linejoin:round;stroke-miterlimit:10;stroke-dasharray:none;stroke-opacity:1"
                   id="path4422"
                   inkscape:connector-curvature="0" /></g><g
                 id="g4424"
                 transform="scale(1.00106,0.998941)"><path
                   d="m 1006.56,980.276 h 980.27 L 1659.29,654.095 H 679.137 Z"
                   style="fill:none;stroke:#010101;stroke-width:10.28291798;stroke-linecap:butt;stroke-linejoin:round;stroke-miterlimit:10;stroke-dasharray:none;stroke-opacity:1"
                   id="path4426"
                   inkscape:connector-curvature="0" /></g><path
                 d="M 786.684,762.098 H 1116.3 L 1009.35,653.402 H 679.855 l 106.829,108.696"
                 style="fill:#ccccff;fill-opacity:1;fill-rule:evenodd;stroke:none"
                 id="path4428"
                 inkscape:connector-curvature="0" /><g
                 id="g4430"
                 transform="scale(1.00106,0.998941)"><path
                   d="M 785.852,762.905 H 1115.12 L 1008.28,654.095 H 679.137 Z"
                   style="fill:none;stroke:#010101;stroke-width:10.28291798;stroke-linecap:butt;stroke-linejoin:round;stroke-miterlimit:10;stroke-dasharray:none;stroke-opacity:1"
                   id="path4432"
                   inkscape:connector-curvature="0" /></g><g
                 id="g4434"
                 transform="scale(1.00106,0.998941)"><path
                   d="M 789.676,762.78 H 1767.24"
                   style="fill:none;stroke:#010101;stroke-width:10.28291798;stroke-linecap:butt;stroke-linejoin:round;stroke-miterlimit:10;stroke-dasharray:none;stroke-opacity:1"
                   id="path4436"
                   inkscape:connector-curvature="0" /></g><g
                 id="g4438"
                 transform="scale(1.00106,0.998941)"><path
                   d="M 912.054,882.2 H 1886.53"
                   style="fill:none;stroke:#010101;stroke-width:10.28291798;stroke-linecap:butt;stroke-linejoin:round;stroke-miterlimit:10;stroke-dasharray:none;stroke-opacity:1"
                   id="path4440"
                   inkscape:connector-curvature="0" /></g><g
                 id="g4442"
                 transform="scale(1.00106,0.998941)"><path
                   d="m 1005.32,654.095 336.42,326.06"
                   style="fill:none;stroke:#010101;stroke-width:10.28291798;stroke-linecap:butt;stroke-linejoin:round;stroke-miterlimit:10;stroke-dasharray:none;stroke-opacity:1"
                   id="path4444"
                   inkscape:connector-curvature="0" /></g><g
                 id="g4446"
                 transform="scale(1.00106,0.998941)"><path
                   d="m 1318.67,654.095 336.05,326.06"
                   style="fill:none;stroke:#010101;stroke-width:10.28291798;stroke-linecap:butt;stroke-linejoin:round;stroke-miterlimit:10;stroke-dasharray:none;stroke-opacity:1"
                   id="path4448"
                   inkscape:connector-curvature="0" /></g><path
                 d="m 1789.73,477.418 c 11.36,0 20.13,-4.559 20.13,-10.352 0,-5.793 -8.77,-10.351 -20.13,-10.351 -11.36,0 -20,4.558 -20,10.351 0,5.793 8.64,10.352 20,10.352"
                 style="fill:#ff8080;fill-opacity:1;fill-rule:evenodd;stroke:none"
                 id="path4450"
                 inkscape:connector-curvature="0" /><g
                 id="g4452"
                 transform="scale(1.00106,0.998941)"><path
                   d="m 1787.84,477.924 c 11.35,0 20.11,-4.564 20.11,-10.363 0,-5.799 -8.76,-10.362 -20.11,-10.362 -11.35,0 -19.98,4.563 -19.98,10.362 0,5.799 8.63,10.363 19.98,10.363 z"
                   style="fill:none;stroke:#010101;stroke-width:10.28291798;stroke-linecap:butt;stroke-linejoin:round;stroke-miterlimit:10;stroke-dasharray:none;stroke-opacity:1"
                   id="path4454"
                   inkscape:connector-curvature="0" /></g><path
                 d="m 1723.29,586.605 c 11.36,0 20.13,-4.558 20.13,-10.351 0,-5.793 -8.77,-10.352 -20.13,-10.352 -11.36,0 -20.01,4.559 -20.01,10.352 0,5.793 8.65,10.351 20.01,10.351"
                 style="fill:#ff8080;fill-opacity:1;fill-rule:evenodd;stroke:none"
                 id="path4456"
                 inkscape:connector-curvature="0" /><g
                 id="g4458"
                 transform="scale(1.00106,0.998941)"><path
                   d="m 1721.47,587.227 c 11.35,0 20.11,-4.563 20.11,-10.362 0,-5.8 -8.76,-10.363 -20.11,-10.363 -11.35,0 -19.99,4.563 -19.99,10.363 0,5.799 8.64,10.362 19.99,10.362 z"
                   style="fill:none;stroke:#010101;stroke-width:10.28291798;stroke-linecap:butt;stroke-linejoin:round;stroke-miterlimit:10;stroke-dasharray:none;stroke-opacity:1"
                   id="path4460"
                   inkscape:connector-curvature="0" /></g><path
                 d="m 1753.67,534.109 c 11.36,0 20.13,-4.562 20.13,-10.351 0,-5.793 -8.77,-10.356 -20.13,-10.356 -11.36,0 -20.01,4.563 -20.01,10.356 0,5.789 8.65,10.351 20.01,10.351"
                 style="fill:#ff8080;fill-opacity:1;fill-rule:evenodd;stroke:none"
                 id="path4462"
                 inkscape:connector-curvature="0" /><g
                 id="g4464"
                 transform="scale(1.00106,0.998941)"><path
                   d="m 1751.82,534.675 c 11.34,0 20.11,-4.567 20.11,-10.362 0,-5.799 -8.77,-10.367 -20.11,-10.367 -11.35,0 -19.99,4.568 -19.99,10.367 0,5.795 8.64,10.362 19.99,10.362 z"
                   style="fill:none;stroke:#010101;stroke-width:10.28291798;stroke-linecap:butt;stroke-linejoin:round;stroke-miterlimit:10;stroke-dasharray:none;stroke-opacity:1"
                   id="path4466"
                   inkscape:connector-curvature="0" /></g><path
                 d="m 1614.61,552.223 h 7.9023 v 7.88672 h -7.9023 z"
                 style="fill:#010101;fill-opacity:1;fill-rule:evenodd;stroke:none"
                 id="path4468"
                 inkscape:connector-curvature="0" /><path
                 d="m 1636.59,552.223 h 7.9063 v 7.88672 h -7.9063 z"
                 style="fill:#010101;fill-opacity:1;fill-rule:evenodd;stroke:none"
                 id="path4470"
                 inkscape:connector-curvature="0" /><path
                 d="m 1658.58,552.223 h 7.9023 v 7.88672 h -7.9023 z"
                 style="fill:#010101;fill-opacity:1;fill-rule:evenodd;stroke:none"
                 id="path4472"
                 inkscape:connector-curvature="0" /><path
                 d="m 1826.29,586.605 c 11.36,0 20.13,-4.558 20.13,-10.351 0,-5.793 -8.77,-10.352 -20.13,-10.352 -11.36,0 -20.01,4.559 -20.01,10.352 0,5.793 8.65,10.351 20.01,10.351"
                 style="fill:#ff8080;fill-opacity:1;fill-rule:evenodd;stroke:none"
                 id="path4474"
                 inkscape:connector-curvature="0" /><g
                 id="g4476"
                 transform="scale(1.00106,0.998941)"><path
                   d="m 1824.35,587.227 c 11.36,0 20.12,-4.563 20.12,-10.362 0,-5.8 -8.76,-10.363 -20.12,-10.363 -11.34,0 -19.98,4.563 -19.98,10.363 0,5.799 8.64,10.362 19.98,10.362 z"
                   style="fill:none;stroke:#010101;stroke-width:10.28291798;stroke-linecap:butt;stroke-linejoin:round;stroke-miterlimit:10;stroke-dasharray:none;stroke-opacity:1"
                   id="path4478"
                   inkscape:connector-curvature="0" /></g><path
                 d="m 1916.2,588.207 c 11.35,0 20.12,-4.559 20.12,-10.352 0,-5.789 -8.77,-10.351 -20.12,-10.351 -11.37,0 -20.01,4.562 -20.01,10.351 0,5.793 8.64,10.352 20.01,10.352"
                 style="fill:#ff8080;fill-opacity:1;fill-rule:evenodd;stroke:none"
                 id="path4480"
                 inkscape:connector-curvature="0" /><g
                 id="g4482"
                 transform="scale(1.00106,0.998941)"><path
                   d="m 1914.17,588.83 c 11.35,0 20.11,-4.563 20.11,-10.362 0,-5.795 -8.76,-10.363 -20.11,-10.363 -11.35,0 -19.99,4.568 -19.99,10.363 0,5.799 8.64,10.362 19.99,10.362 z"
                   style="fill:none;stroke:#010101;stroke-width:10.28291798;stroke-linecap:butt;stroke-linejoin:round;stroke-miterlimit:10;stroke-dasharray:none;stroke-opacity:1"
                   id="path4484"
                   inkscape:connector-curvature="0" /></g><path
                 d="m 1852.59,532.875 c 11.36,0 20.13,-4.559 20.13,-10.352 0,-5.793 -8.77,-10.351 -20.13,-10.351 -11.36,0 -20,4.558 -20,10.351 0,5.793 8.64,10.352 20,10.352"
                 style="fill:#ff8080;fill-opacity:1;fill-rule:evenodd;stroke:none"
                 id="path4486"
                 inkscape:connector-curvature="0" /><g
                 id="g4488"
                 transform="scale(1.00106,0.998941)"><path
                   d="m 1850.63,533.44 c 11.35,0 20.11,-4.564 20.11,-10.363 0,-5.799 -8.76,-10.362 -20.11,-10.362 -11.35,0 -19.98,4.563 -19.98,10.362 0,5.799 8.63,10.363 19.98,10.363 z"
                   style="fill:none;stroke:#010101;stroke-width:10.28291798;stroke-linecap:butt;stroke-linejoin:round;stroke-miterlimit:10;stroke-dasharray:none;stroke-opacity:1"
                   id="path4490"
                   inkscape:connector-curvature="0" /></g><path
                 d="m 1707.9,454.176 5.59,-5.574 -5.59,-5.579 -5.59,5.579 5.59,5.574"
                 style="fill:#010101;fill-opacity:1;fill-rule:evenodd;stroke:none"
                 id="path4492"
                 inkscape:connector-curvature="0" /><path
                 d="m 1692.36,438.664 5.59,-5.574 -5.59,-5.578 -5.59,5.578 5.59,5.574"
                 style="fill:#010101;fill-opacity:1;fill-rule:evenodd;stroke:none"
                 id="path4494"
                 inkscape:connector-curvature="0" /><path
                 d="m 1676.81,423.156 5.59,-5.578 -5.59,-5.578 -5.58,5.578 5.58,5.578"
                 style="fill:#010101;fill-opacity:1;fill-rule:evenodd;stroke:none"
                 id="path4496"
                 inkscape:connector-curvature="0" /><path
                 d="m 642.313,276.422 c 11.484,0 20.378,-3.82 20.378,-8.875 0,-5.051 -8.894,-8.996 -20.378,-8.996 -11.485,0 -20.379,3.945 -20.379,8.996 0,5.055 8.894,8.875 20.379,8.875"
                 style="fill:#ff8080;fill-opacity:1;fill-rule:evenodd;stroke:none"
                 id="path4498"
                 inkscape:connector-curvature="0" /><g
                 id="g4500"
                 transform="scale(1.00106,0.998941)"><path
                   d="m 641.633,276.715 c 11.473,0 20.358,-3.825 20.358,-8.885 0,-5.056 -8.885,-9.005 -20.358,-9.005 -11.472,0 -20.357,3.949 -20.357,9.005 0,5.06 8.885,8.885 20.357,8.885 z"
                   style="fill:none;stroke:#010101;stroke-width:10.28291798;stroke-linecap:butt;stroke-linejoin:round;stroke-miterlimit:10;stroke-dasharray:none;stroke-opacity:1"
                   id="path4502"
                   inkscape:connector-curvature="0" /></g><path
                 d="m 702.949,338.406 c 11.61,0 20.5,-3.82 20.5,-8.625 0,-4.804 -8.89,-8.625 -20.5,-8.625 -11.609,0 -20.375,3.821 -20.375,8.625 0,4.805 8.766,8.625 20.375,8.625"
                 style="fill:#ff8080;fill-opacity:1;fill-rule:evenodd;stroke:none"
                 id="path4504"
                 inkscape:connector-curvature="0" /><g
                 id="g4506"
                 transform="scale(1.00106,0.998941)"><path
                   d="m 702.206,338.765 c 11.597,0 20.478,-3.825 20.478,-8.634 0,-4.81 -8.881,-8.634 -20.478,-8.634 -11.597,0 -20.354,3.824 -20.354,8.634 0,4.809 8.757,8.634 20.354,8.634 z"
                   style="fill:none;stroke:#010101;stroke-width:10.28291798;stroke-linecap:butt;stroke-linejoin:round;stroke-miterlimit:10;stroke-dasharray:none;stroke-opacity:1"
                   id="path4508"
                   inkscape:connector-curvature="0" /></g><path
                 d="m 581.059,211.473 c 11.484,0 20.375,-3.942 20.375,-9.118 0,-5.175 -8.891,-9.242 -20.375,-9.242 -11.485,0 -20.379,4.067 -20.379,9.242 0,5.176 8.894,9.118 20.379,9.118"
                 style="fill:#ff8080;fill-opacity:1;fill-rule:evenodd;stroke:none"
                 id="path4510"
                 inkscape:connector-curvature="0" /><g
                 id="g4512"
                 transform="scale(1.00106,0.998941)"><path
                   d="m 580.444,211.697 c 11.472,0 20.354,-3.946 20.354,-9.127 0,-5.181 -8.882,-9.252 -20.354,-9.252 -11.472,0 -20.357,4.071 -20.357,9.252 0,5.181 8.885,9.127 20.357,9.127 z"
                   style="fill:none;stroke:#010101;stroke-width:10.28291798;stroke-linecap:butt;stroke-linejoin:round;stroke-miterlimit:10;stroke-dasharray:none;stroke-opacity:1"
                   id="path4514"
                   inkscape:connector-curvature="0" /></g><path
                 d="m 730.367,276.172 c 11.61,0 20.5,-3.942 20.5,-9.117 0,-5.176 -8.89,-9.242 -20.5,-9.242 -11.609,0 -20.379,4.066 -20.379,9.242 0,5.175 8.77,9.117 20.379,9.117"
                 style="fill:#ff8080;fill-opacity:1;fill-rule:evenodd;stroke:none"
                 id="path4516"
                 inkscape:connector-curvature="0" /><g
                 id="g4518"
                 transform="scale(1.00106,0.998941)"><path
                   d="m 729.595,276.465 c 11.597,0 20.478,-3.946 20.478,-9.127 0,-5.182 -8.881,-9.252 -20.478,-9.252 -11.597,0 -20.358,4.07 -20.358,9.252 0,5.181 8.761,9.127 20.358,9.127 z"
                   style="fill:none;stroke:#010101;stroke-width:10.28291798;stroke-linecap:butt;stroke-linejoin:round;stroke-miterlimit:10;stroke-dasharray:none;stroke-opacity:1"
                   id="path4520"
                   inkscape:connector-curvature="0" /></g><path
                 d="m 552.281,275.188 c 11.61,0 20.504,-3.696 20.504,-8.379 0,-4.684 -8.894,-8.383 -20.504,-8.383 -11.605,0 -20.375,3.699 -20.375,8.383 0,4.683 8.77,8.379 20.375,8.379"
                 style="fill:#ff8080;fill-opacity:1;fill-rule:evenodd;stroke:none"
                 id="path4522"
                 inkscape:connector-curvature="0" /><g
                 id="g4524"
                 transform="scale(1.00106,0.998941)"><path
                   d="m 551.697,275.479 c 11.597,0 20.482,-3.699 20.482,-8.388 0,-4.688 -8.885,-8.391 -20.482,-8.391 -11.593,0 -20.353,3.703 -20.353,8.391 0,4.689 8.76,8.388 20.353,8.388 z"
                   style="fill:none;stroke:#010101;stroke-width:10.28291798;stroke-linecap:butt;stroke-linejoin:round;stroke-miterlimit:10;stroke-dasharray:none;stroke-opacity:1"
                   id="path4526"
                   inkscape:connector-curvature="0" /></g><path
                 d="m 655.031,450.801 c 10.254,0 18.282,-3.574 18.282,-8.133 0,-4.563 -8.028,-8.258 -18.282,-8.258 -10.25,0 -18.152,3.695 -18.152,8.258 0,4.559 7.902,8.133 18.152,8.133"
                 style="fill:#ff9967;fill-opacity:1;fill-rule:evenodd;stroke:none"
                 id="path4528"
                 inkscape:connector-curvature="0" /><g
                 id="g4530"
                 transform="scale(1.00106,0.998941)"><path
                   d="m 654.339,451.278 c 10.243,0 18.261,-3.578 18.261,-8.141 0,-4.567 -8.018,-8.266 -18.261,-8.266 -10.24,0 -18.134,3.699 -18.134,8.266 0,4.563 7.894,8.141 18.134,8.141 z"
                   style="fill:none;stroke:#010101;stroke-width:10.28291798;stroke-linecap:butt;stroke-linejoin:round;stroke-miterlimit:10;stroke-dasharray:none;stroke-opacity:1"
                   id="path4532"
                   inkscape:connector-curvature="0" /></g><path
                 d="m 627.617,410.008 -11.238,5.668 20.992,26.742 -9.754,-32.41"
                 style="fill:#010101;fill-opacity:1;fill-rule:evenodd;stroke:none"
                 id="path4534"
                 inkscape:connector-curvature="0" /><g
                 id="g4536"
                 transform="scale(1.00106,0.998941)"><path
                   d="m 551.822,275.479 72.541,143.723"
                   style="fill:none;stroke:#010101;stroke-width:0.123367;stroke-linecap:butt;stroke-linejoin:miter;stroke-miterlimit:10;stroke-dasharray:none;stroke-opacity:1"
                   id="path4538"
                   inkscape:connector-curvature="0" /></g><path
                 d="m 639.594,402.984 -12.223,3.329 15.188,30.316 -2.965,-33.645"
                 style="fill:#010101;fill-opacity:1;fill-rule:evenodd;stroke:none"
                 id="path4540"
                 inkscape:connector-curvature="0" /><g
                 id="g4542"
                 transform="scale(1.00106,0.998941)"><path
                   d="m 580.319,211.576 54.283,199.977"
                   style="fill:none;stroke:#010101;stroke-width:0.123367;stroke-linecap:butt;stroke-linejoin:miter;stroke-miterlimit:10;stroke-dasharray:none;stroke-opacity:1"
                   id="path4544"
                   inkscape:connector-curvature="0" /></g><path
                 d="m 658.738,400.645 -12.597,0.984 9.386,32.656 3.211,-33.64"
                 style="fill:#010101;fill-opacity:1;fill-rule:evenodd;stroke:none"
                 id="path4546"
                 inkscape:connector-curvature="0" /><g
                 id="g4548"
                 transform="scale(1.00106,0.998941)"><path
                   d="m 641.508,276.59 10.735,131.631"
                   style="fill:none;stroke:#010101;stroke-width:0.123367;stroke-linecap:butt;stroke-linejoin:miter;stroke-miterlimit:10;stroke-dasharray:none;stroke-opacity:1"
                   id="path4550"
                   inkscape:connector-curvature="0" /></g><path
                 d="m 685.906,408.035 -11.73,-4.558 -5.805,33.398 17.535,-28.84"
                 style="fill:#010101;fill-opacity:1;fill-rule:evenodd;stroke:none"
                 id="path4552"
                 inkscape:connector-curvature="0" /><g
                 id="g4554"
                 transform="scale(1.00106,0.998941)"><path
                   d="m 729.716,276.343 -52.8,136.074"
                   style="fill:none;stroke:#010101;stroke-width:0.123367;stroke-linecap:butt;stroke-linejoin:miter;stroke-miterlimit:10;stroke-dasharray:none;stroke-opacity:1"
                   id="path4556"
                   inkscape:connector-curvature="0" /></g><path
                 d="m 688.625,412.227 -12.102,-3.329 -2.718,33.77 14.82,-30.441"
                 style="fill:#010101;fill-opacity:1;fill-rule:evenodd;stroke:none"
                 id="path4558"
                 inkscape:connector-curvature="0" /><g
                 id="g4560"
                 transform="scale(1.00106,0.998941)"><path
                   d="m 702.331,338.765 -22.332,78.587"
                   style="fill:none;stroke:#010101;stroke-width:0.123367;stroke-linecap:butt;stroke-linejoin:miter;stroke-miterlimit:10;stroke-dasharray:none;stroke-opacity:1"
                   id="path4562"
                   inkscape:connector-curvature="0" /></g><path
                 d="m 761.613,606.449 c 10.25,0 18.153,-4.683 18.153,-10.722 0,-6.039 -7.903,-10.723 -18.153,-10.723 -10.254,0 -18.156,4.684 -18.156,10.723 0,6.039 7.902,10.722 18.156,10.722"
                 style="fill:#ffcc99;fill-opacity:1;fill-rule:evenodd;stroke:none"
                 id="path4564"
                 inkscape:connector-curvature="0" /><g
                 id="g4566"
                 transform="scale(1.00106,0.998941)"><path
                   d="m 760.808,607.092 c 10.239,0 18.133,-4.689 18.133,-10.734 0,-6.046 -7.894,-10.734 -18.133,-10.734 -10.243,0 -18.137,4.688 -18.137,10.734 0,6.045 7.894,10.734 18.137,10.734 z"
                   style="fill:none;stroke:#010101;stroke-width:10.28291798;stroke-linecap:butt;stroke-linejoin:round;stroke-miterlimit:10;stroke-dasharray:none;stroke-opacity:1"
                   id="path4568"
                   inkscape:connector-curvature="0" /></g><path
                 d="m 815.582,635.039 c 10.25,0 18.277,-4.805 18.277,-11.09 0,-6.285 -8.027,-11.094 -18.277,-11.094 -10.254,0 -18.156,4.809 -18.156,11.094 0,6.285 7.902,11.09 18.156,11.09"
                 style="fill:#ffcc99;fill-opacity:1;fill-rule:evenodd;stroke:none"
                 id="path4570"
                 inkscape:connector-curvature="0" /><g
                 id="g4572"
                 transform="scale(1.00106,0.998941)"><path
                   d="m 814.72,635.712 c 10.239,0 18.258,-4.81 18.258,-11.102 0,-6.291 -8.019,-11.105 -18.258,-11.105 -10.243,0 -18.137,4.814 -18.137,11.105 0,6.292 7.894,11.102 18.137,11.102 z"
                   style="fill:none;stroke:#010101;stroke-width:10.28291798;stroke-linecap:butt;stroke-linejoin:round;stroke-miterlimit:10;stroke-dasharray:none;stroke-opacity:1"
                   id="path4574"
                   inkscape:connector-curvature="0" /></g><path
                 d="m 840.031,606.57 c 10.25,0 18.278,-4.437 18.278,-10.226 0,-5.793 -8.028,-10.352 -18.278,-10.352 -10.25,0 -18.152,4.559 -18.152,10.352 0,5.789 7.902,10.226 18.152,10.226"
                 style="fill:#ffcc99;fill-opacity:1;fill-rule:evenodd;stroke:none"
                 id="path4576"
                 inkscape:connector-curvature="0" /><g
                 id="g4578"
                 transform="scale(1.00106,0.998941)"><path
                   d="m 839.143,607.213 c 10.239,0 18.258,-4.442 18.258,-10.237 0,-5.799 -8.019,-10.363 -18.258,-10.363 -10.239,0 -18.133,4.564 -18.133,10.363 0,5.795 7.894,10.237 18.133,10.237 z"
                   style="fill:none;stroke:#010101;stroke-width:10.28291798;stroke-linecap:butt;stroke-linejoin:round;stroke-miterlimit:10;stroke-dasharray:none;stroke-opacity:1"
                   id="path4580"
                   inkscape:connector-curvature="0" /></g><path
                 d="m 681.34,606.449 c 10.25,0 18.277,-4.316 18.277,-9.859 0,-5.547 -8.027,-9.86 -18.277,-9.86 -10.254,0 -18.156,4.313 -18.156,9.86 0,5.543 7.902,9.859 18.156,9.859"
                 style="fill:#ffcc99;fill-opacity:1;fill-rule:evenodd;stroke:none"
                 id="path4582"
                 inkscape:connector-curvature="0" /><g
                 id="g4584"
                 transform="scale(1.00106,0.998941)"><path
                   d="m 680.619,607.092 c 10.24,0 18.258,-4.321 18.258,-9.87 0,-5.553 -8.018,-9.87 -18.258,-9.87 -10.243,0 -18.137,4.317 -18.137,9.87 0,5.549 7.894,9.87 18.137,9.87 z"
                   style="fill:none;stroke:#010101;stroke-width:10.28291798;stroke-linecap:butt;stroke-linejoin:round;stroke-miterlimit:10;stroke-dasharray:none;stroke-opacity:1"
                   id="path4586"
                   inkscape:connector-curvature="0" /></g><path
                 d="m 761.242,695.426 c 11.36,0 20.129,-5.547 20.129,-12.817 0,-7.273 -8.769,-12.816 -20.129,-12.816 -11.363,0 -20.008,5.543 -20.008,12.816 0,7.27 8.645,12.817 20.008,12.817"
                 style="fill:#ffff99;fill-opacity:1;fill-rule:evenodd;stroke:none"
                 id="path4588"
                 inkscape:connector-curvature="0" /><g
                 id="g4590"
                 transform="scale(1.00106,0.998941)"><path
                   d="m 760.437,696.163 c 11.348,0 20.108,-5.553 20.108,-12.83 0,-7.281 -8.76,-12.83 -20.108,-12.83 -11.351,0 -19.986,5.549 -19.986,12.83 0,7.277 8.635,12.83 19.986,12.83 z"
                   style="fill:none;stroke:#010101;stroke-width:10.28291798;stroke-linecap:butt;stroke-linejoin:round;stroke-miterlimit:10;stroke-dasharray:none;stroke-opacity:1"
                   id="path4592"
                   inkscape:connector-curvature="0" /></g><path
                 d="m 725.797,652.66 -9.879,7.766 25.809,22.058 -15.93,-29.824"
                 style="fill:#010101;fill-opacity:1;fill-rule:evenodd;stroke:none"
                 id="path4594"
                 inkscape:connector-curvature="0" /><g
                 id="g4596"
                 transform="scale(1.00106,0.998941)"><path
                   d="m 680.74,607.092 43.427,55.391"
                   style="fill:none;stroke:#010101;stroke-width:0.123367;stroke-linecap:butt;stroke-linejoin:miter;stroke-miterlimit:10;stroke-dasharray:none;stroke-opacity:1"
                   id="path4598"
                   inkscape:connector-curvature="0" /></g><path
                 d="m 739.629,640.586 -11.484,4.93 19.265,27.972 -7.781,-32.902"
                 style="fill:#010101;fill-opacity:1;fill-rule:evenodd;stroke:none"
                 id="path4600"
                 inkscape:connector-curvature="0" /><g
                 id="g4602"
                 transform="scale(1.00106,0.998941)"><path
                   d="m 705.043,578.593 30.721,71.306"
                   style="fill:none;stroke:#010101;stroke-width:0.123367;stroke-linecap:butt;stroke-linejoin:miter;stroke-miterlimit:10;stroke-dasharray:none;stroke-opacity:1"
                   id="path4604"
                   inkscape:connector-curvature="0" /></g><path
                 d="m 767.785,636.52 h -12.594 l 6.543,33.273 6.051,-33.273"
                 style="fill:#010101;fill-opacity:1;fill-rule:evenodd;stroke:none"
                 id="path4606"
                 inkscape:connector-curvature="0" /><g
                 id="g4608"
                 transform="scale(1.00106,0.998941)"><path
                   d="m 760.683,607.092 -0.125,36.761"
                   style="fill:none;stroke:#010101;stroke-width:0.123367;stroke-linecap:butt;stroke-linejoin:miter;stroke-miterlimit:10;stroke-dasharray:none;stroke-opacity:1"
                   id="path4610"
                   inkscape:connector-curvature="0" /></g><path
                 d="m 803.23,654.016 -9.14,-8.75 -18.277,28.593 27.417,-19.843"
                 style="fill:#010101;fill-opacity:1;fill-rule:evenodd;stroke:none"
                 id="path4612"
                 inkscape:connector-curvature="0" /><g
                 id="g4614"
                 transform="scale(1.00106,0.998941)"><path
                   d="M 839.268,607.092 793.129,655.08"
                   style="fill:none;stroke:#010101;stroke-width:0.123367;stroke-linecap:butt;stroke-linejoin:miter;stroke-miterlimit:10;stroke-dasharray:none;stroke-opacity:1"
                   id="path4616"
                   inkscape:connector-curvature="0" /></g><path
                 d="m 805.949,659.316 -10.129,-7.269 -13.953,30.93 24.082,-23.661"
                 style="fill:#010101;fill-opacity:1;fill-rule:evenodd;stroke:none"
                 id="path4618"
                 inkscape:connector-curvature="0" /><g
                 id="g4620"
                 transform="scale(1.00106,0.998941)"><path
                   d="m 814.841,635.712 -18.629,26.153"
                   style="fill:none;stroke:#010101;stroke-width:0.123367;stroke-linecap:butt;stroke-linejoin:miter;stroke-miterlimit:10;stroke-dasharray:none;stroke-opacity:1"
                   id="path4622"
                   inkscape:connector-curvature="0" /></g><path
                 d="m 709.371,484.691 c 10.25,0 18.156,-3.945 18.156,-9.121 0,-5.175 -7.906,-9.121 -18.156,-9.121 -10.25,0 -18.152,3.946 -18.152,9.121 0,5.176 7.902,9.121 18.152,9.121"
                 style="fill:#ff9967;fill-opacity:1;fill-rule:evenodd;stroke:none"
                 id="path4624"
                 inkscape:connector-curvature="0" /><g
                 id="g4626"
                 transform="scale(1.00106,0.998941)"><path
                   d="m 708.621,485.205 c 10.239,0 18.137,-3.949 18.137,-9.131 0,-5.181 -7.898,-9.13 -18.137,-9.13 -10.239,0 -18.133,3.949 -18.133,9.13 0,5.182 7.894,9.131 18.133,9.131 z"
                   style="fill:none;stroke:#010101;stroke-width:10.28291798;stroke-linecap:butt;stroke-linejoin:round;stroke-miterlimit:10;stroke-dasharray:none;stroke-opacity:1"
                   id="path4628"
                   inkscape:connector-curvature="0" /></g><path
                 d="m 763.34,521.414 c 10.25,0 18.277,-3.941 18.277,-9.117 0,-5.176 -8.027,-9.246 -18.277,-9.246 -10.25,0 -18.152,4.07 -18.152,9.246 0,5.176 7.902,9.117 18.152,9.117"
                 style="fill:#ff9967;fill-opacity:1;fill-rule:evenodd;stroke:none"
                 id="path4630"
                 inkscape:connector-curvature="0" /><g
                 id="g4632"
                 transform="scale(1.00106,0.998941)"><path
                   d="m 762.533,521.967 c 10.239,0 18.258,-3.946 18.258,-9.127 0,-5.182 -8.019,-9.256 -18.258,-9.256 -10.24,0 -18.134,4.074 -18.134,9.256 0,5.181 7.894,9.127 18.134,9.127 z"
                   style="fill:none;stroke:#010101;stroke-width:10.28291798;stroke-linecap:butt;stroke-linejoin:round;stroke-miterlimit:10;stroke-dasharray:none;stroke-opacity:1"
                   id="path4634"
                   inkscape:connector-curvature="0" /></g><path
                 d="m 787.793,484.691 c 10.25,0 18.277,-3.945 18.277,-9.121 0,-5.175 -8.027,-9.121 -18.277,-9.121 -10.25,0 -18.152,3.946 -18.152,9.121 0,5.176 7.902,9.121 18.152,9.121"
                 style="fill:#ff9967;fill-opacity:1;fill-rule:evenodd;stroke:none"
                 id="path4636"
                 inkscape:connector-curvature="0" /><g
                 id="g4638"
                 transform="scale(1.00106,0.998941)"><path
                   d="m 786.96,485.205 c 10.239,0 18.258,-3.949 18.258,-9.131 0,-5.181 -8.019,-9.13 -18.258,-9.13 -10.239,0 -18.133,3.949 -18.133,9.13 0,5.182 7.894,9.131 18.133,9.131 z"
                   style="fill:none;stroke:#010101;stroke-width:10.28291798;stroke-linecap:butt;stroke-linejoin:round;stroke-miterlimit:10;stroke-dasharray:none;stroke-opacity:1"
                   id="path4640"
                   inkscape:connector-curvature="0" /></g><path
                 d="m 629.098,483.949 c 10.25,0 18.277,-3.82 18.277,-8.871 0,-5.055 -8.027,-8.996 -18.277,-8.996 -10.25,0 -18.153,3.941 -18.153,8.996 0,5.051 7.903,8.871 18.153,8.871"
                 style="fill:#ff9967;fill-opacity:1;fill-rule:evenodd;stroke:none"
                 id="path4642"
                 inkscape:connector-curvature="0" /><g
                 id="g4644"
                 transform="scale(1.00106,0.998941)"><path
                   d="m 628.432,484.462 c 10.24,0 18.258,-3.824 18.258,-8.88 0,-5.06 -8.018,-9.006 -18.258,-9.006 -10.239,0 -18.133,3.946 -18.133,9.006 0,5.056 7.894,8.88 18.133,8.88 z"
                   style="fill:none;stroke:#010101;stroke-width:10.28291798;stroke-linecap:butt;stroke-linejoin:round;stroke-miterlimit:10;stroke-dasharray:none;stroke-opacity:1"
                   id="path4646"
                   inkscape:connector-curvature="0" /></g><path
                 d="m 705.914,578.102 c 10.25,0 18.152,-4.559 18.152,-10.352 0,-5.789 -7.902,-10.352 -18.152,-10.352 -10.25,0 -18.152,4.563 -18.152,10.352 0,5.793 7.902,10.352 18.152,10.352"
                 style="fill:#ffcc99;fill-opacity:1;fill-rule:evenodd;stroke:none"
                 id="path4648"
                 inkscape:connector-curvature="0" /><g
                 id="g4650"
                 transform="scale(1.00106,0.998941)"><path
                   d="m 705.168,578.714 c 10.239,0 18.133,-4.563 18.133,-10.362 0,-5.796 -7.894,-10.363 -18.133,-10.363 -10.24,0 -18.134,4.567 -18.134,10.363 0,5.799 7.894,10.362 18.134,10.362 z"
                   style="fill:none;stroke:#010101;stroke-width:10.28291798;stroke-linecap:butt;stroke-linejoin:round;stroke-miterlimit:10;stroke-dasharray:none;stroke-opacity:1"
                   id="path4652"
                   inkscape:connector-curvature="0" /></g><path
                 d="m 673.93,536.82 -10.375,7.27 24.574,23.414 -14.199,-30.684"
                 style="fill:#010101;fill-opacity:1;fill-rule:evenodd;stroke:none"
                 id="path4654"
                 inkscape:connector-curvature="0" /><g
                 id="g4656"
                 transform="scale(1.00106,0.998941)"><path
                   d="m 628.557,484.341 43.302,62.175"
                   style="fill:none;stroke:#010101;stroke-width:0.123367;stroke-linecap:butt;stroke-linejoin:miter;stroke-miterlimit:10;stroke-dasharray:none;stroke-opacity:1"
                   id="path4658"
                   inkscape:connector-curvature="0" /></g><path
                 d="m 688.008,526.715 -11.856,4.187 17.164,29.207 -5.308,-33.394"
                 style="fill:#010101;fill-opacity:1;fill-rule:evenodd;stroke:none"
                 id="path4660"
                 inkscape:connector-curvature="0" /><g
                 id="g4662"
                 transform="scale(1.00106,0.998941)"><path
                   d="m 654.463,451.153 29.114,84.508"
                   style="fill:none;stroke:#010101;stroke-width:0.123367;stroke-linecap:butt;stroke-linejoin:miter;stroke-miterlimit:10;stroke-dasharray:none;stroke-opacity:1"
                   id="path4664"
                   inkscape:connector-curvature="0" /></g><path
                 d="m 713.695,524.371 -12.597,-0.613 5.062,33.519 7.535,-32.906"
                 style="fill:#010101;fill-opacity:1;fill-rule:evenodd;stroke:none"
                 id="path4666"
                 inkscape:connector-curvature="0" /><g
                 id="g4668"
                 transform="scale(1.00106,0.998941)"><path
                   d="m 708.5,485.205 -2.22,46.014"
                   style="fill:none;stroke:#010101;stroke-width:0.123367;stroke-linecap:butt;stroke-linejoin:miter;stroke-miterlimit:10;stroke-dasharray:none;stroke-opacity:1"
                   id="path4670"
                   inkscape:connector-curvature="0" /></g><path
                 d="m 745.805,539.898 -9.387,-8.378 -17.535,28.96 26.922,-20.582"
                 style="fill:#010101;fill-opacity:1;fill-rule:evenodd;stroke:none"
                 id="path4672"
                 inkscape:connector-curvature="0" /><g
                 id="g4674"
                 transform="scale(1.00106,0.998941)"><path
                   d="m 787.085,485.205 -51.2,56.009"
                   style="fill:none;stroke:#010101;stroke-width:0.123367;stroke-linecap:butt;stroke-linejoin:miter;stroke-miterlimit:10;stroke-dasharray:none;stroke-opacity:1"
                   id="path4676"
                   inkscape:connector-curvature="0" /></g><path
                 d="m 751.609,548.035 -9.14,-8.629 -18.153,28.594 27.293,-19.965"
                 style="fill:#010101;fill-opacity:1;fill-rule:evenodd;stroke:none"
                 id="path4678"
                 inkscape:connector-curvature="0" /><g
                 id="g4680"
                 transform="scale(1.00106,0.998941)"><path
                   d="m 767.715,521.845 -26.031,27.264"
                   style="fill:none;stroke:#010101;stroke-width:0.123367;stroke-linecap:butt;stroke-linejoin:miter;stroke-miterlimit:10;stroke-dasharray:none;stroke-opacity:1"
                   id="path4682"
                   inkscape:connector-curvature="0" /></g></g></g><path
             style="fill:none;stroke:#000000;stroke-width:2.36220479px;stroke-linecap:butt;stroke-linejoin:miter;stroke-opacity:1"
             d="M -537.50182,225.37603 -537.52969,6.3980821"
             id="path5865"
             inkscape:connector-curvature="0" /></g></g></g></g></svg>